<svg width="24" height="22" viewBox="0 0 24 22" fill="none" xmlns="http://www.w3.org/2000/svg">
<g filter="url(#filter0_d)">
<path d="M2.3999 10.5999C2.3999 10.3635 2.44646 10.1295 2.53692 9.91107C2.62738 9.69269 2.75996 9.49425 2.92711 9.32711C3.09426 9.15996 3.29269 9.02738 3.51107 8.93692C3.72946 8.84646 3.96352 8.7999 4.1999 8.7999C4.43628 8.7999 4.67035 8.84646 4.88873 8.93692C5.10712 9.02738 5.30555 9.15996 5.47269 9.32711C5.63984 9.49425 5.77243 9.69269 5.86289 9.91107C5.95334 10.1295 5.9999 10.3635 5.9999 10.5999V17.7999C5.9999 18.2773 5.81026 18.7351 5.47269 19.0727C5.13513 19.4103 4.67729 19.5999 4.1999 19.5999C3.72251 19.5999 3.26468 19.4103 2.92711 19.0727C2.58954 18.7351 2.3999 18.2773 2.3999 17.7999V10.5999ZM7.1999 10.3995V16.9155C7.19969 17.3615 7.32377 17.7987 7.5582 18.1781C7.79263 18.5576 8.12814 18.8641 8.5271 19.0635L8.5871 19.0935C9.25297 19.4263 9.98711 19.5997 10.7315 19.5999H17.2307C17.7857 19.6001 18.3237 19.408 18.753 19.0561C19.1822 18.7043 19.4763 18.2146 19.5851 17.6703L21.0251 10.4703C21.0947 10.1221 21.0862 9.76289 21.0001 9.41843C20.9141 9.07397 20.7528 8.75288 20.5277 8.47831C20.3026 8.20375 20.0194 7.98254 19.6985 7.83065C19.3776 7.67875 19.0269 7.59994 18.6719 7.5999H14.3999V2.7999C14.3999 2.16338 14.147 1.55293 13.697 1.10285C13.2469 0.652759 12.6364 0.399902 11.9999 0.399902C11.6816 0.399902 11.3764 0.52633 11.1514 0.751374C10.9263 0.976418 10.7999 1.28164 10.7999 1.5999V2.4003C10.7999 3.43888 10.463 4.44944 9.8399 5.2803L8.1599 7.5195C7.53676 8.35036 7.1999 9.36093 7.1999 10.3995V10.3995Z" fill="#000000"/>
</g>
<defs>
<filter id="filter0_d" x="-1.6001" y="0.399902" width="26.6718" height="27.2" filterUnits="userSpaceOnUse" color-interpolation-filters="sRGB">
<feFlood flood-opacity="0" result="BackgroundImageFix"/>
<feColorMatrix in="SourceAlpha" type="matrix" values="0 0 0 0 0 0 0 0 0 0 0 0 0 0 0 0 0 0 127 0"/>
<feOffset dy="4"/>
<feGaussianBlur stdDeviation="2"/>
<feColorMatrix type="matrix" values="0 0 0 0 0 0 0 0 0 0 0 0 0 0 0 0 0 0 0.25 0"/>
<feBlend mode="normal" in2="BackgroundImageFix" result="effect1_dropShadow"/>
<feBlend mode="normal" in="SourceGraphic" in2="effect1_dropShadow" result="shape"/>
</filter>
</defs>
</svg>
