<svg width="16" height="16" viewBox="0 0 16 16" fill="none" xmlns="http://www.w3.org/2000/svg">
<path d="M3.2001 2.3999C2.77575 2.3999 2.36878 2.56847 2.06873 2.86853C1.76867 3.16859 1.6001 3.57556 1.6001 3.9999C1.6001 4.42425 1.76867 4.83121 2.06873 5.13127C2.36878 5.43133 2.77575 5.5999 3.2001 5.5999H12.8001C13.2244 5.5999 13.6314 5.43133 13.9315 5.13127C14.2315 4.83121 14.4001 4.42425 14.4001 3.9999C14.4001 3.57556 14.2315 3.16859 13.9315 2.86853C13.6314 2.56847 13.2244 2.3999 12.8001 2.3999H3.2001Z" fill="#000000"/>
<path fill-rule="evenodd" clip-rule="evenodd" d="M2.3999 6.3999H13.5999V11.9999C13.5999 12.4242 13.4313 12.8312 13.1313 13.1313C12.8312 13.4313 12.4242 13.5999 11.9999 13.5999H3.9999C3.57556 13.5999 3.16859 13.4313 2.86853 13.1313C2.56847 12.8312 2.3999 12.4242 2.3999 11.9999V6.3999ZM6.3999 8.7999C6.3999 8.58773 6.48419 8.38425 6.63422 8.23422C6.78425 8.08419 6.98773 7.9999 7.1999 7.9999H8.7999C9.01208 7.9999 9.21556 8.08419 9.36559 8.23422C9.51562 8.38425 9.5999 8.58773 9.5999 8.7999C9.5999 9.01208 9.51562 9.21556 9.36559 9.36559C9.21556 9.51562 9.01208 9.5999 8.7999 9.5999H7.1999C6.98773 9.5999 6.78425 9.51562 6.63422 9.36559C6.48419 9.21556 6.3999 9.01208 6.3999 8.7999Z" fill="#000000"/>
</svg>
