<svg width="16" height="16" viewBox="0 0 16 16" fill="none" xmlns="http://www.w3.org/2000/svg">
<path fill-rule="evenodd" clip-rule="evenodd" d="M8.00001 14.4001C9.69739 14.4001 11.3253 13.7258 12.5255 12.5256C13.7257 11.3253 14.4 9.69748 14.4 8.0001C14.4 6.30271 13.7257 4.67485 12.5255 3.47461C11.3253 2.27438 9.69739 1.6001 8.00001 1.6001C6.30262 1.6001 4.67476 2.27438 3.47452 3.47461C2.27429 4.67485 1.60001 6.30271 1.60001 8.0001C1.60001 9.69748 2.27429 11.3253 3.47452 12.5256C4.67476 13.7258 6.30262 14.4001 8.00001 14.4001ZM10.9656 7.4345L8.56561 5.0345C8.41472 4.88877 8.21264 4.80814 8.00288 4.80996C7.79313 4.81178 7.59248 4.89592 7.44415 5.04424C7.29582 5.19257 7.21169 5.39322 7.20987 5.60298C7.20804 5.81273 7.28868 6.01482 7.43441 6.1657L8.46881 7.2001H5.60001C5.38783 7.2001 5.18435 7.28438 5.03432 7.43441C4.88429 7.58444 4.80001 7.78792 4.80001 8.0001C4.80001 8.21227 4.88429 8.41575 5.03432 8.56578C5.18435 8.71581 5.38783 8.8001 5.60001 8.8001H8.46881L7.43441 9.8345C7.358 9.90829 7.29705 9.99657 7.25512 10.0942C7.2132 10.1918 7.19113 10.2968 7.19021 10.403C7.18928 10.5092 7.20952 10.6145 7.24975 10.7129C7.28997 10.8112 7.34938 10.9005 7.42449 10.9756C7.4996 11.0507 7.58893 11.1101 7.68724 11.1504C7.78556 11.1906 7.8909 11.2108 7.99713 11.2099C8.10335 11.209 8.20833 11.1869 8.30593 11.145C8.40353 11.1031 8.49181 11.0421 8.56561 10.9657L10.9656 8.5657C11.1156 8.41567 11.1998 8.21223 11.1998 8.0001C11.1998 7.78797 11.1156 7.58452 10.9656 7.4345Z" fill="white"/>
</svg>
