<svg width="12" height="12" viewBox="0 0 12 12" fill="none" xmlns="http://www.w3.org/2000/svg">
<path fill-rule="evenodd" clip-rule="evenodd" d="M10.8 3.00005V7.80005C10.8 8.11831 10.6736 8.42353 10.4485 8.64858C10.2235 8.87362 9.91826 9.00005 9.6 9.00005H6.6L3.6 11.4V9.00005H2.4C2.08174 9.00005 1.77651 8.87362 1.55147 8.64858C1.32643 8.42353 1.2 8.11831 1.2 7.80005V3.00005C1.2 2.68179 1.32643 2.37656 1.55147 2.15152C1.77651 1.92648 2.08174 1.80005 2.4 1.80005H9.6C9.91826 1.80005 10.2235 1.92648 10.4485 2.15152C10.6736 2.37656 10.8 2.68179 10.8 3.00005ZM4.2 4.80005H3V6.00005H4.2V4.80005ZM5.4 4.80005H6.6V6.00005H5.4V4.80005ZM9 4.80005H7.8V6.00005H9V4.80005Z" fill="#000000"/>
</svg>
