<svg width="452" height="337" viewBox="0 0 452 337" fill="none" xmlns="http://www.w3.org/2000/svg">
<path d="M452 295.97H0V296.196H452V295.97Z" fill="#D1D5DB"/>
<path d="M290.654 308.571H260.714V308.797H290.654V308.571Z" fill="#D1D5DB"/>
<path d="M375.856 306.122H368V306.348H375.856V306.122Z" fill="#D1D5DB"/>
<path d="M358.517 302.126H296.214V302.352H358.517V302.126Z" fill="#D1D5DB"/>
<path d="M203.526 307.459H176.135V307.685H203.526V307.459Z" fill="#D1D5DB"/>
<path d="M168.09 307.459H150.715V307.685H168.09V307.459Z" fill="#D1D5DB"/>
<path d="M89.7672 303.645H47.4238V303.871H89.7672V303.645Z" fill="#D1D5DB"/>
<path d="M214.248 255.651H39.6945C38.3271 255.649 37.0165 255.104 36.0504 254.136C35.0843 253.168 34.5417 251.857 34.5417 250.489V5.11664C34.5537 3.75705 35.1015 2.45705 36.0663 1.49903C37.0311 0.541006 38.3349 0.00232905 39.6945 0H214.248C215.617 0 216.93 0.543835 217.898 1.51187C218.866 2.4799 219.41 3.79283 219.41 5.16184V250.489C219.41 251.858 218.866 253.171 217.898 254.139C216.93 255.107 215.617 255.651 214.248 255.651ZM39.6945 0.180801C38.387 0.183195 37.1339 0.704275 36.2102 1.62966C35.2865 2.55506 34.7677 3.80914 34.7677 5.11664V250.489C34.7677 251.797 35.2865 253.051 36.2102 253.976C37.1339 254.902 38.387 255.423 39.6945 255.425H214.248C215.556 255.423 216.81 254.902 217.735 253.977C218.661 253.052 219.181 251.798 219.184 250.489V5.11664C219.181 3.80831 218.661 2.55425 217.735 1.62911C216.81 0.703981 215.556 0.18319 214.248 0.180801H39.6945Z" fill="#D1D5DB"/>
<path d="M409.792 255.651H235.23C233.862 255.649 232.55 255.104 231.583 254.137C230.615 253.169 230.071 251.858 230.068 250.489V5.11664C230.082 3.75622 230.632 2.45624 231.598 1.49846C232.565 0.54069 233.869 0.00230365 235.23 0H409.792C411.15 0.00470486 412.452 0.544433 413.415 1.5022C414.378 2.45997 414.924 3.75861 414.936 5.11664V250.489C414.936 251.855 414.395 253.165 413.431 254.133C412.467 255.1 411.158 255.646 409.792 255.651ZM235.23 0.180801C233.922 0.18319 232.668 0.703981 231.742 1.62911C230.817 2.55425 230.297 3.80831 230.294 5.11664V250.489C230.297 251.798 230.817 253.052 231.742 253.977C232.668 254.902 233.922 255.423 235.23 255.425H409.792C411.101 255.423 412.355 254.902 413.28 253.977C414.205 253.052 414.726 251.798 414.728 250.489V5.11664C414.726 3.80831 414.205 2.55425 413.28 1.62911C412.355 0.703981 411.101 0.18319 409.792 0.180801H235.23Z" fill="#D1D5DB"/>
<path d="M51.8354 162.494L205.778 162.494L205.778 20.7649L51.8354 20.7649L51.8354 162.494Z" fill="#D1D5DB"/>
<path d="M48.1742 162.494L204.187 162.494L204.187 20.7649L48.1742 20.7649L48.1742 162.494Z" fill="#E5E7EB"/>
<path d="M197.633 155.407V27.8522L54.7373 27.8522V155.407H197.633Z" fill="#F9FAFB"/>
<path d="M179.977 155.398L131.921 27.8522H111.689L159.746 155.398H179.977Z" fill="white"/>
<path d="M154.005 155.398L105.958 27.8522H92.0271L140.075 155.398H154.005Z" fill="white"/>
<path d="M110.939 155.407L110.939 27.8522H103.11L103.11 155.407H110.939Z" fill="#D1D5DB"/>
<path d="M154.503 155.398V27.8432H146.674V155.398H154.503Z" fill="#D1D5DB"/>
<path d="M109.529 159.89L109.529 22.5729H99.6388L99.6388 159.89H109.529Z" fill="#E5E7EB"/>
<path d="M153.092 159.9V22.5819H143.203V159.9H153.092Z" fill="#E5E7EB"/>
<path d="M55.4333 155.407L55.4333 27.8522H54.7373L54.7373 155.407H55.4333Z" fill="#D1D5DB"/>
<path d="M362.224 295.961V197.226L67.7999 197.226V295.961H362.224Z" fill="#E5E7EB"/>
<path d="M350.255 237.146V205.289C350.255 203.931 349.154 202.831 347.796 202.831L82.246 202.831C80.888 202.831 79.7871 203.931 79.7871 205.289V237.146C79.7871 238.504 80.888 239.605 82.246 239.605H347.796C349.154 239.605 350.255 238.504 350.255 237.146Z" fill="#E5E7EB"/>
<path d="M350.246 287.409V246.204C350.246 244.846 349.145 243.746 347.787 243.746L82.237 243.746C80.879 243.746 79.7781 244.846 79.7781 246.204V287.409C79.7781 288.767 80.879 289.868 82.237 289.868H347.787C349.145 289.868 350.246 288.767 350.246 287.409Z" fill="#E5E7EB"/>
<path d="M296.105 202.216H133.918C133.918 203.484 134.422 204.7 135.319 205.597C136.216 206.494 137.432 206.998 138.701 206.998H291.323C292.591 206.998 293.808 206.494 294.704 205.597C295.601 204.7 296.105 203.484 296.105 202.216Z" fill="#E5E7EB"/>
<path d="M296.105 243.176H133.918C133.918 243.804 134.042 244.426 134.282 245.006C134.523 245.586 134.875 246.113 135.319 246.557C135.763 247.002 136.29 247.354 136.871 247.594C137.451 247.834 138.073 247.958 138.701 247.958H291.323C291.951 247.958 292.573 247.834 293.153 247.594C293.733 247.354 294.26 247.002 294.704 246.557C295.148 246.113 295.501 245.586 295.741 245.006C295.981 244.426 296.105 243.804 296.105 243.176Z" fill="#E5E7EB"/>
<path d="M384.2 295.961V197.226H362.224V295.961H384.2Z" fill="#D1D5DB"/>
<path d="M67.8 191.142V197.226L362.224 197.226V191.142L67.8 191.142Z" fill="#F9FAFB"/>
<path d="M336.342 182.328C336.342 184.665 337.271 186.907 338.924 188.56C340.577 190.213 342.819 191.142 345.156 191.142C347.494 191.142 349.736 190.213 351.389 188.56C353.042 186.907 353.97 184.665 353.97 182.328H336.342Z" fill="#E5E7EB"/>
<path d="M312.847 182.328C312.847 184.665 313.776 186.907 315.429 188.56C317.082 190.213 319.324 191.142 321.661 191.142C323.999 191.142 326.241 190.213 327.894 188.56C329.547 186.907 330.475 184.665 330.475 182.328H312.847Z" fill="#E5E7EB"/>
<path d="M70.9641 188.168C70.9641 189.804 78.2956 191.142 87.3355 191.142C96.3755 191.142 103.707 189.804 103.707 188.168H70.9641Z" fill="#E5E7EB"/>
<path d="M70.9641 186.604C70.9641 188.249 78.2956 189.587 87.3355 189.587C96.3755 189.587 103.707 188.249 103.707 186.604H70.9641Z" fill="#E5E7EB"/>
<path d="M362.224 191.142V197.226H384.2V191.142H362.224Z" fill="#B2B7BF"/>
<path d="M374.618 18.9478H320.884V88.9627H374.618V18.9478Z" fill="#D1D5DB"/>
<path d="M372.114 18.9478H318.38V88.9627H372.114V18.9478Z" fill="#E5E7EB"/>
<path d="M364.9 28.3585H325.603V79.561H364.9V28.3585Z" fill="white"/>
<path d="M252.144 109.791V163.525H337.047V109.791H252.144Z" fill="#D1D5DB"/>
<path d="M249.558 109.791V163.525H334.462V109.791H249.558Z" fill="#E5E7EB"/>
<path d="M258.969 117.005V156.302H325.051V117.005H258.969Z" fill="white"/>
<path d="M404.242 103.363H360.551V146.412H404.242V103.363Z" fill="#D1D5DB"/>
<path d="M401.738 103.363H358.047V146.412H401.738V103.363Z" fill="#E5E7EB"/>
<path d="M394.524 112.774H365.27V137.01H394.524V112.774Z" fill="white"/>
<path d="M306.989 51.8806H263.299V94.929H306.989V51.8806Z" fill="#D1D5DB"/>
<path d="M304.494 51.8806H260.804V94.929H304.494V51.8806Z" fill="#E5E7EB"/>
<path d="M297.28 61.2912H268.027V85.5274H297.28V61.2912Z" fill="white"/>
<path d="M226 336.794C322.803 336.794 401.277 332.213 401.277 326.561C401.277 320.909 322.803 316.328 226 316.328C129.197 316.328 50.7234 320.909 50.7234 326.561C50.7234 332.213 129.197 336.794 226 336.794Z" fill="#E5E7EB"/>
<path d="M286.378 66.0643H285.438V72.0126H286.378V66.0643Z" fill="#756E65"/>
<path d="M286.378 61.2279H285.474C285.469 57.7633 284.09 54.4422 281.64 51.9932C279.189 49.5442 275.867 48.1675 272.402 48.1651V47.2611C276.104 47.273 279.65 48.748 282.268 51.3645C284.887 53.9809 286.364 57.5265 286.378 61.2279Z" fill="#756E65"/>
<path d="M272.366 50.5155H147.596C141.675 50.5155 136.875 55.3157 136.875 61.2369V315.713C136.875 321.634 141.675 326.434 147.596 326.434H272.366C278.288 326.434 283.088 321.634 283.088 315.713V61.2369C283.088 55.3157 278.288 50.5155 272.366 50.5155Z" fill="#756E65"/>
<path opacity="0.95" d="M278.224 315.713V61.2279C278.224 57.5883 275.274 54.6378 271.634 54.6378L146.864 54.6378C143.224 54.6378 140.274 57.5883 140.274 61.2279L140.274 315.713C140.274 319.353 143.224 322.303 146.864 322.303H271.634C275.274 322.303 278.224 319.353 278.224 315.713Z" fill="white"/>
<path d="M209.258 312.088C213.377 312.088 216.716 308.749 216.716 304.63C216.716 300.511 213.377 297.172 209.258 297.172C205.139 297.172 201.8 300.511 201.8 304.63C201.8 308.749 205.139 312.088 209.258 312.088Z" fill="#756E65"/>
<path d="M203.554 53.8874C203.554 55.5202 204.202 57.086 205.357 58.2406C206.511 59.3951 208.077 60.0437 209.71 60.0437C211.343 60.0437 212.909 59.3951 214.063 58.2406C215.218 57.086 215.866 55.5202 215.866 53.8874H203.554Z" fill="#756E65"/>
<path opacity="0.7" d="M249.965 80.6006H169.509C166.227 80.6102 163.083 81.9181 160.762 84.2386C158.442 86.5591 157.134 89.7037 157.124 92.9854V101.248C157.134 104.53 158.442 107.674 160.762 109.995C163.083 112.315 166.227 113.623 169.509 113.633H249.965L262.35 120.973V92.9493C262.328 89.6746 261.016 86.5406 258.697 84.2284C256.378 81.9162 253.24 80.6125 249.965 80.6006Z" fill="#756E65"/>
<path d="M247.723 92.434H171.706V94.4951H247.723V92.434Z" fill="white"/>
<path d="M247.723 99.7383H186.333V101.799H247.723V99.7383Z" fill="white"/>
<path opacity="0.15" d="M169.464 135.6H249.92C253.202 135.61 256.346 136.917 258.667 139.238C260.987 141.558 262.295 144.703 262.305 147.985V156.238C262.295 159.52 260.987 162.665 258.667 164.985C256.346 167.306 253.202 168.614 249.92 168.623H169.464L157.079 175.964V147.94C157.098 144.665 158.411 141.531 160.73 139.219C163.05 136.908 166.189 135.607 169.464 135.6Z" fill="#756E65"/>
<path opacity="0.5" d="M247.723 147.424H171.706V149.485H247.723V147.424Z" fill="#756E65"/>
<path opacity="0.5" d="M206.962 154.738H171.706V156.799H206.962V154.738Z" fill="#756E65"/>
<path opacity="0.5" d="M226.805 154.738H212.467V156.799H226.805V154.738Z" fill="#756E65"/>
<path opacity="0.7" d="M249.965 190.59H169.509C166.227 190.6 163.083 191.908 160.762 194.228C158.442 196.549 157.134 199.693 157.124 202.975V211.229C157.131 214.511 158.439 217.657 160.76 219.978C163.081 222.299 166.227 223.606 169.509 223.613H249.965L262.35 230.954V202.93C262.326 199.657 261.012 196.525 258.693 194.215C256.375 191.905 253.238 190.602 249.965 190.59Z" fill="#756E65"/>
<path d="M247.723 202.415H171.706V204.476H247.723V202.415Z" fill="white"/>
<path d="M247.723 209.728H186.333V211.789H247.723V209.728Z" fill="white"/>
<path opacity="0.15" d="M169.464 245.581H200.769C204.05 245.593 207.194 246.901 209.514 249.221C211.834 251.541 213.142 254.684 213.154 257.965V266.228C213.142 269.509 211.834 272.652 209.514 274.972C207.194 277.292 204.05 278.601 200.769 278.613H169.464L157.079 285.944V257.965C157.089 254.684 158.397 251.539 160.717 249.219C163.038 246.898 166.182 245.59 169.464 245.581Z" fill="#756E65"/>
<path opacity="0.5" d="M175.738 262.097C175.738 262.812 175.526 263.511 175.128 264.106C174.731 264.7 174.166 265.164 173.505 265.437C172.845 265.711 172.118 265.783 171.416 265.643C170.715 265.504 170.07 265.159 169.565 264.654C169.059 264.148 168.715 263.504 168.575 262.802C168.436 262.101 168.507 261.374 168.781 260.713C169.055 260.052 169.518 259.487 170.113 259.09C170.707 258.693 171.406 258.481 172.122 258.481C173.077 258.492 173.99 258.877 174.666 259.553C175.341 260.228 175.726 261.141 175.738 262.097Z" fill="#756E65"/>
<path opacity="0.5" d="M183.051 262.829C185.073 262.829 186.712 261.19 186.712 259.168C186.712 257.146 185.073 255.507 183.051 255.507C181.029 255.507 179.39 257.146 179.39 259.168C179.39 261.19 181.029 262.829 183.051 262.829Z" fill="#756E65"/>
<path opacity="0.5" d="M197.678 266.481C197.678 267.196 197.466 267.895 197.068 268.49C196.671 269.085 196.106 269.548 195.446 269.822C194.785 270.096 194.058 270.167 193.356 270.028C192.655 269.888 192.011 269.544 191.505 269.038C190.999 268.532 190.655 267.888 190.515 267.187C190.376 266.485 190.447 265.758 190.721 265.097C190.995 264.437 191.458 263.872 192.053 263.475C192.648 263.077 193.347 262.865 194.062 262.865C195.021 262.865 195.941 263.246 196.619 263.924C197.297 264.602 197.678 265.522 197.678 266.481Z" fill="#756E65"/>
<path d="M311.274 253.301C312.269 255.281 313.155 257.269 314.086 259.258C315.017 261.247 315.894 263.272 316.725 265.297C317.557 267.322 318.425 269.356 319.22 271.426C320.016 273.496 320.821 275.566 321.553 277.754L318.316 274.708C320.203 275.352 322.181 275.694 324.174 275.72C326.487 275.782 328.802 275.677 331.099 275.404C333.486 275.15 335.89 274.753 338.331 274.301C340.772 273.849 343.213 273.288 345.563 272.737L347.706 277.944C345.353 279.237 342.92 280.375 340.419 281.352C337.915 282.357 335.352 283.208 332.744 283.901C330.033 284.632 327.262 285.116 324.464 285.348C321.343 285.651 318.192 285.393 315.162 284.588L313.037 284.001L311.88 281.515C310.144 277.709 308.264 273.804 306.456 269.907C305.552 267.955 304.603 265.993 303.699 264.031C302.795 262.07 301.891 260.099 300.987 258.128L311.274 253.301Z" fill="#FFBE9D"/>
<path d="M342.616 274.328L346.169 270.856L351.81 276.958C351.81 276.958 349.767 280.529 344.686 278.45L342.616 274.328Z" fill="#FFBE9D"/>
<path d="M351.529 268.56L354.639 273.632L351.819 276.958L346.178 270.856L351.529 268.56Z" fill="#FFBE9D"/>
<path d="M295.31 245.174C302.542 242.38 308.147 246.548 317.286 258.083L306.583 269.085C306.583 269.085 281.207 250.58 295.31 245.174Z" fill="#1F2937"/>
<path opacity="0.2" d="M308.888 257.107C305.471 254.892 302.497 255.516 299.983 257.577C300.933 261.093 303.364 265.125 305.706 268.425C306.257 268.859 306.61 269.094 306.61 269.094L312.576 262.956C312.42 261.772 312.01 260.636 311.373 259.627C310.737 258.617 309.889 257.757 308.888 257.107Z" fill="#111827"/>
<path d="M350.39 321.86L359.051 320.857L358.328 303.102L349.676 304.097L350.39 321.86Z" fill="#FFBE9D"/>
<path d="M359.123 317.123L349.369 317.259C349.211 317.267 349.06 317.331 348.946 317.441C348.831 317.551 348.76 317.698 348.745 317.855L347.642 325.53C347.61 325.712 347.617 325.898 347.662 326.076C347.708 326.254 347.792 326.421 347.907 326.564C348.023 326.707 348.168 326.824 348.333 326.906C348.498 326.988 348.679 327.034 348.863 327.04C351.891 326.941 353.283 326.715 357.107 326.651C359.467 326.651 366.572 326.787 369.826 326.742C373.081 326.697 373.298 323.126 371.951 322.809C365.903 321.453 362.423 319.51 360.407 317.629C360.063 317.298 359.601 317.116 359.123 317.123Z" fill="#1F2937"/>
<path d="M361.193 314.863C361.33 314.811 361.476 314.793 361.621 314.811C361.766 314.828 361.905 314.88 362.025 314.963C362.12 315.01 362.202 315.08 362.264 315.167C362.326 315.254 362.364 315.354 362.377 315.46C362.486 316.364 360.569 317.991 360.307 318.172C360.281 318.191 360.249 318.201 360.217 318.201C360.184 318.201 360.153 318.191 360.126 318.172C360.096 318.156 360.071 318.131 360.055 318.1C360.039 318.069 360.032 318.034 360.036 318C360.099 317.024 360.325 315.288 361.094 314.899L361.193 314.863ZM360.407 317.629C361.166 316.97 362.106 315.975 362.043 315.478C362.043 315.424 362.043 315.342 361.889 315.27C361.8 315.205 361.695 315.166 361.585 315.156C361.475 315.146 361.365 315.167 361.266 315.216C360.85 315.442 360.533 316.337 360.407 317.629Z" fill="#00694E"/>
<path d="M361.103 317.304C361.423 317.136 361.773 317.033 362.133 317.002C362.493 316.971 362.856 317.012 363.2 317.123C363.318 317.198 363.409 317.308 363.46 317.438C363.51 317.569 363.517 317.712 363.48 317.846C363.462 317.974 363.414 318.095 363.34 318.2C363.266 318.305 363.169 318.391 363.056 318.452C362.152 318.949 360.235 318.208 360.154 318.181C360.126 318.168 360.101 318.149 360.08 318.126C360.06 318.102 360.045 318.075 360.036 318.045C360.03 318.016 360.032 317.985 360.042 317.957C360.051 317.928 360.068 317.903 360.09 317.883C360.392 317.633 360.735 317.437 361.103 317.304ZM362.784 318.208L362.884 318.163C362.955 318.122 363.016 318.066 363.062 317.999C363.109 317.931 363.141 317.855 363.155 317.774C363.155 317.557 363.11 317.476 363.037 317.44C362.604 317.159 361.275 317.521 360.561 317.982C361.266 318.263 362.036 318.341 362.784 318.208Z" fill="#00694E"/>
<path opacity="0.2" d="M349.676 304.106L358.328 303.102L358.698 312.26L350.002 312.296L349.676 304.106Z" fill="#111827"/>
<path d="M307.215 293.8C307.215 293.8 329.689 272.9 344.279 272.583C354.929 272.357 362.54 307.577 362.54 307.577L349.884 307.821C349.884 307.821 347.66 295.364 339.389 291.929C327.438 309.864 278.721 345.31 283.341 306.881C290.573 304.16 307.215 293.8 307.215 293.8Z" fill="#00694E"/>
<path opacity="0.2" d="M307.215 293.8C307.215 293.8 329.689 272.9 344.279 272.583C354.929 272.357 362.54 307.577 362.54 307.577L349.884 307.821C349.884 307.821 347.66 295.364 339.389 291.929C327.438 309.864 278.721 345.31 283.341 306.881C290.573 304.16 307.215 293.8 307.215 293.8Z" fill="#111827"/>
<path d="M362.495 309.322L347.615 310.75L347.66 305.326L363.399 303.455L362.495 309.322Z" fill="#1F2937"/>
<path d="M277.709 308.21C277.709 308.21 268.045 289.334 266.861 258.933C266.59 251.773 273.035 245.02 280.421 244.64C286.622 244.315 293.185 244.234 298.501 244.252C303.816 244.27 307.884 247.795 308.49 252.912C309.828 264.194 310.063 281.325 316.979 301.728L277.709 308.21Z" fill="#1F2937"/>
<path opacity="0.2" d="M271.39 259.086C276.714 253.075 278.55 254.991 279.345 255.714C286.722 262.395 275.892 283.196 273.722 286.261C272.198 278.492 271.291 270.614 271.01 262.702C270.955 261.485 271.083 260.266 271.39 259.086Z" fill="#111827"/>
<path d="M287.617 226.57C287.02 232.111 285.556 240.618 281.786 244.568C284.751 247.362 289.578 250.11 296.44 251.258C299.983 249.793 300.453 246.53 298.736 244.261C292.679 243.203 292.751 241.486 295.039 237.625L287.617 226.57Z" fill="#FFBE9D"/>
<path opacity="0.2" d="M290.645 231.08L295.039 237.616C294.456 238.516 294.003 239.493 293.692 240.518C291.54 239.614 289.172 236.324 289.642 233.901C289.806 232.909 290.146 231.954 290.645 231.08Z" fill="#111827"/>
<path d="M303.491 216.354C307.044 220.124 314.511 220.142 311.302 215.676C308.092 211.211 300.725 213.416 303.491 216.354Z" fill="#1F2937"/>
<path d="M289.09 215.948C287.111 223.18 285.592 227.229 287.843 232.22C288.526 233.847 289.645 235.255 291.075 236.289C292.506 237.323 294.193 237.944 295.953 238.083C297.712 238.222 299.476 237.874 301.052 237.078C302.627 236.281 303.952 235.066 304.883 233.566C308.499 227.853 311.157 217.05 305.362 211.563C304.162 210.337 302.657 209.453 301.001 209.001C299.346 208.549 297.6 208.547 295.943 208.993C294.286 209.439 292.778 210.319 291.574 211.541C290.369 212.763 289.512 214.284 289.09 215.948Z" fill="#FFBE9D"/>
<path d="M287.472 222.655C288.376 222.492 292.842 221.136 295.02 219.039C297.47 216.68 297.488 214.393 296.828 213.353C296.168 212.313 290.998 210.316 288.584 210.777C284.769 211.509 285.709 218.262 285.763 220.088C285.792 220.63 285.966 221.154 286.266 221.605C286.567 222.057 286.983 222.42 287.472 222.655Z" fill="#FFBE9D"/>
<path opacity="0.7" d="M287.472 222.655C288.376 222.492 292.842 221.136 295.02 219.039C297.47 216.68 297.488 214.393 296.828 213.353C296.168 212.313 290.998 210.316 288.584 210.777C284.769 211.509 285.709 218.262 285.763 220.088C285.792 220.63 285.966 221.154 286.266 221.605C286.567 222.057 286.983 222.42 287.472 222.655Z" fill="#1F2937"/>
<path d="M283.684 223.152C284.388 224.706 285.649 225.939 287.219 226.606C289.298 227.446 290.482 225.702 290.03 223.577C289.624 221.706 288.051 219.003 285.908 219.057C283.766 219.112 282.835 221.236 283.684 223.152Z" fill="#FFBE9D"/>
<path d="M290.482 212.937C299.703 214.908 306.257 220.097 310.615 216.978C313.697 214.772 311.672 210.75 308.138 207.839C305.118 205.353 300.906 204.584 299.64 202.55C299.492 203.227 299.55 203.932 299.804 204.576C300.058 205.22 300.498 205.773 301.068 206.166C301.068 206.166 292.742 204.883 290.437 202.713C289.886 204.006 292.019 206.501 292.019 206.501C292.019 206.501 289.669 208.734 282.979 206.211C283.377 208.372 285.239 211.816 290.482 212.937Z" fill="#1F2937"/>
<path d="M308.797 217.71H308.436V217.24C309.232 217.339 310.039 217.175 310.733 216.771C311.427 216.368 311.97 215.748 312.278 215.007C312.624 214.017 312.649 212.942 312.351 211.936C312.052 210.931 311.445 210.044 310.614 209.403C309.816 208.781 308.945 208.259 308.02 207.848C305.877 206.772 303.446 205.552 302.271 201.999L302.713 201.854C303.825 205.217 306.067 206.374 308.237 207.423C309.203 207.854 310.114 208.4 310.949 209.05C311.862 209.749 312.529 210.721 312.854 211.824C313.179 212.927 313.145 214.106 312.757 215.188C312.44 215.967 311.888 216.628 311.179 217.08C310.469 217.532 309.637 217.752 308.797 217.71Z" fill="#1F2937"/>
<path d="M299.54 222.972C299.342 223.541 299.486 224.129 299.848 224.273C300.209 224.418 300.67 224.074 300.869 223.505C301.068 222.935 300.924 222.348 300.562 222.203C300.2 222.059 299.73 222.384 299.54 222.972Z" fill="#1F2937"/>
<path d="M306.357 225.033C306.167 225.602 306.302 226.181 306.673 226.325C307.044 226.47 307.496 226.136 307.686 225.557C307.875 224.978 307.749 224.409 307.378 224.255C307.008 224.102 306.556 224.454 306.357 225.033Z" fill="#1F2937"/>
<path d="M303.852 224.337C303.923 226.362 304.264 228.368 304.865 230.303C303.545 230.845 301.999 229.743 301.999 229.743L303.852 224.337Z" fill="#EB996E"/>
<path d="M298.32 231.117C297.095 230.442 296.186 229.311 295.789 227.971C295.782 227.949 295.78 227.926 295.783 227.903C295.786 227.88 295.793 227.858 295.805 227.838C295.817 227.819 295.833 227.802 295.852 227.789C295.871 227.776 295.893 227.767 295.915 227.763C295.938 227.758 295.961 227.757 295.984 227.761C296.007 227.765 296.029 227.773 296.048 227.786C296.068 227.799 296.084 227.815 296.097 227.835C296.11 227.854 296.119 227.876 296.123 227.898C296.355 228.627 296.747 229.295 297.272 229.852C297.796 230.409 298.438 230.841 299.152 231.117C299.196 231.135 299.231 231.17 299.25 231.214C299.269 231.258 299.269 231.307 299.251 231.352C299.246 231.374 299.235 231.394 299.22 231.412C299.206 231.429 299.187 231.444 299.166 231.453C299.146 231.463 299.123 231.467 299.1 231.467C299.077 231.467 299.055 231.461 299.034 231.451C298.789 231.356 298.55 231.244 298.32 231.117Z" fill="#1F2937"/>
<path d="M297.687 219.229C297.632 219.199 297.585 219.156 297.552 219.102C297.5 219.025 297.482 218.929 297.501 218.838C297.519 218.746 297.573 218.666 297.651 218.614C298.11 218.304 298.638 218.113 299.189 218.057C299.739 218.002 300.295 218.085 300.806 218.298C300.85 218.317 300.889 218.345 300.921 218.38C300.954 218.415 300.979 218.455 300.996 218.5C301.013 218.544 301.021 218.592 301.019 218.639C301.018 218.687 301.007 218.734 300.987 218.777C300.969 218.819 300.944 218.856 300.911 218.888C300.879 218.919 300.84 218.943 300.798 218.96C300.755 218.976 300.71 218.983 300.665 218.981C300.62 218.979 300.576 218.968 300.535 218.949C300.127 218.791 299.688 218.734 299.253 218.783C298.819 218.832 298.402 218.985 298.04 219.229C297.986 219.26 297.926 219.276 297.864 219.276C297.802 219.276 297.741 219.26 297.687 219.229Z" fill="#1F2937"/>
<path d="M308.68 223.342C308.624 223.323 308.574 223.291 308.533 223.249C308.492 223.206 308.462 223.155 308.445 223.098C308.329 222.658 308.114 222.25 307.816 221.905C307.518 221.56 307.146 221.288 306.727 221.109C306.638 221.078 306.564 221.014 306.52 220.93C306.476 220.846 306.466 220.748 306.492 220.657C306.503 220.613 306.524 220.572 306.552 220.537C306.58 220.501 306.615 220.472 306.655 220.45C306.695 220.429 306.739 220.417 306.784 220.413C306.829 220.41 306.875 220.416 306.917 220.431C307.449 220.646 307.924 220.981 308.304 221.411C308.684 221.841 308.958 222.354 309.105 222.908C309.12 222.952 309.127 222.999 309.123 223.045C309.12 223.092 309.108 223.137 309.087 223.178C309.066 223.22 309.036 223.256 309.001 223.286C308.965 223.316 308.923 223.338 308.879 223.351C308.813 223.366 308.744 223.363 308.68 223.342Z" fill="#1F2937"/>
<path d="M380.43 326.082L385.583 318.588L371.707 306.501L366.554 313.995L380.43 326.082Z" fill="#FFBE9D"/>
<path d="M382.021 315.044L375.973 322.574C375.868 322.701 375.81 322.861 375.81 323.026C375.81 323.192 375.868 323.352 375.973 323.478L380.683 329.336C380.795 329.476 380.937 329.588 381.098 329.666C381.259 329.743 381.436 329.783 381.614 329.783C381.793 329.783 381.97 329.743 382.131 329.666C382.292 329.588 382.434 329.476 382.546 329.336C384.453 326.877 385.728 324.988 388.178 321.932C389.687 320.052 394.433 314.556 396.521 311.988C398.61 309.421 396.223 306.89 395.129 307.758C390.221 311.636 385.854 314.013 383.215 314.375C382.747 314.442 382.322 314.68 382.021 315.044Z" fill="#1F2937"/>
<path d="M381.624 311.952C381.667 311.813 381.742 311.685 381.842 311.579C381.943 311.472 382.066 311.39 382.202 311.338C382.297 311.288 382.403 311.263 382.51 311.263C382.617 311.263 382.722 311.288 382.817 311.338C383.64 311.817 383.721 314.33 383.721 314.619C383.72 314.653 383.709 314.685 383.69 314.712C383.67 314.739 383.644 314.761 383.613 314.773C383.584 314.79 383.551 314.8 383.518 314.8C383.484 314.8 383.451 314.79 383.423 314.773C382.681 314.14 381.452 312.965 381.615 312.061C381.613 312.024 381.616 311.988 381.624 311.952ZM383.368 314.239C383.296 313.227 383.07 311.889 382.636 311.636C382.594 311.615 382.548 311.604 382.501 311.604C382.454 311.604 382.407 311.615 382.365 311.636C382.261 311.672 382.169 311.734 382.096 311.817C382.023 311.899 381.973 311.999 381.949 312.106C381.886 312.576 382.392 313.363 383.368 314.239Z" fill="#00694E"/>
<path d="M383.54 313.489C383.748 312.721 384.146 311.889 384.643 311.681C384.774 311.63 384.917 311.623 385.052 311.66C385.188 311.698 385.307 311.778 385.393 311.889C385.483 311.981 385.551 312.092 385.592 312.215C385.633 312.337 385.645 312.466 385.628 312.594C385.502 313.589 383.748 314.71 383.666 314.755C383.641 314.771 383.611 314.779 383.581 314.779C383.55 314.779 383.521 314.771 383.495 314.755C383.466 314.745 383.441 314.727 383.423 314.703C383.405 314.679 383.396 314.649 383.395 314.619C383.38 314.237 383.429 313.855 383.54 313.489ZM385.258 312.666C385.258 312.666 385.258 312.603 385.258 312.567C385.269 312.486 385.261 312.404 385.234 312.327C385.207 312.25 385.163 312.18 385.104 312.124C384.959 311.961 384.851 311.97 384.769 312.007C384.29 312.187 383.784 313.471 383.721 314.312C384.374 313.914 384.906 313.345 385.258 312.666Z" fill="#00694E"/>
<path opacity="0.2" d="M366.554 313.995L371.707 306.501L378.866 312.73L372.954 319.573L366.554 313.995Z" fill="#111827"/>
<path d="M291.82 305.453C291.82 305.453 331.325 265.315 349.107 282.491C360.181 293.194 376.453 307.939 376.453 307.939L367.024 317.114C367.024 317.114 343.14 304.413 336.921 297.398C304.286 333.883 275.123 336.378 277.745 308.246C282.371 307.01 287.073 306.077 291.82 305.453Z" fill="#00694E"/>
<path d="M379.264 308.02L368.904 321.038L364.511 318.09L375.097 304.268L379.264 308.02Z" fill="#1F2937"/>
<path d="M277.844 256.383L278.622 272.836C278.767 275.548 278.938 278.26 279.146 280.972C279.255 282.301 279.399 283.612 279.544 284.868C279.625 285.501 279.707 286.116 279.806 286.676C279.906 287.237 280.014 287.761 280.086 288.078C280.091 288.126 280.091 288.174 280.086 288.222C279.937 287.954 279.727 287.724 279.472 287.553C279.324 287.447 279.159 287.367 278.984 287.318C278.884 287.318 278.83 287.318 278.875 287.318C279.615 287.432 280.371 287.383 281.09 287.174C283.481 286.577 285.809 285.751 288.042 284.706C290.455 283.648 292.86 282.428 295.274 281.162C297.687 279.896 300.101 278.55 302.442 277.239L305.823 281.759C301.585 285.703 296.981 289.236 292.073 292.308C290.817 293.077 289.515 293.818 288.141 294.514C286.706 295.254 285.216 295.883 283.684 296.394C282.813 296.682 281.922 296.906 281.018 297.063C279.906 297.271 278.772 297.325 277.646 297.226C276.918 297.158 276.201 297 275.512 296.756C274.682 296.464 273.902 296.046 273.198 295.518C272.465 294.949 271.832 294.262 271.327 293.484C271.096 293.128 270.89 292.756 270.712 292.372L270.368 291.54C270.051 290.679 269.782 289.801 269.564 288.909C269.365 288.105 269.202 287.354 269.058 286.604C268.759 285.113 268.533 283.657 268.334 282.22C267.919 279.345 267.62 276.506 267.367 273.677C266.861 268.018 266.563 262.422 266.463 256.736L277.844 256.383Z" fill="#FFBE9D"/>
<path d="M275.069 245.78C270.811 246.259 264.438 250.3 264.221 269.085L282.482 267.647C282.482 267.647 291.088 243.944 275.069 245.78Z" fill="#1F2937"/>
<path d="M317.801 267.72L311.021 268.163C310.621 268.218 310.247 268.393 309.947 268.663C309.647 268.934 309.436 269.289 309.34 269.681L306.167 284.579C306.113 284.741 306.101 284.914 306.131 285.082C306.161 285.25 306.233 285.408 306.34 285.541C306.447 285.674 306.586 285.778 306.744 285.844C306.901 285.91 307.073 285.935 307.243 285.917L314.023 285.474C314.424 285.421 314.799 285.247 315.099 284.976C315.4 284.705 315.61 284.349 315.704 283.955L318.877 269.058C318.931 268.895 318.943 268.722 318.913 268.554C318.883 268.386 318.811 268.229 318.704 268.095C318.597 267.962 318.458 267.858 318.3 267.793C318.143 267.727 317.971 267.702 317.801 267.72Z" fill="#00694E"/>
<path d="M302.994 276.886L308.608 274.934L307.225 283.729C307.225 283.729 300.969 285.104 300.454 281.741L301.358 278.748C301.472 278.334 301.678 277.952 301.962 277.629C302.245 277.307 302.598 277.053 302.994 276.886Z" fill="#FFBE9D"/>
<path d="M315.026 275.675L312.594 283.503L307.225 283.729L308.608 274.934L315.026 275.675Z" fill="#FFBE9D"/>
<path d="M120.575 91.304C116.164 81.0617 140.219 70.3402 147.017 86.2868C158.562 91.304 143.808 112.638 147.144 116.254C150.48 119.87 152.993 115.486 152.993 115.486C152.993 115.486 156.365 124.472 147.768 131.668C140.066 138.131 116.896 139.885 116.842 127.148C116.77 110.586 126.361 104.728 120.575 91.304Z" fill="#1F2937"/>
<path d="M142.696 306.329L136.224 310.099L120.684 292.336L128.748 285.058L142.696 306.329Z" fill="#EB996E"/>
<path d="M135.482 308.472L142.163 303.346C142.267 303.253 142.403 303.201 142.543 303.201C142.683 303.201 142.818 303.253 142.922 303.346L147.352 307.722C147.46 307.844 147.541 307.988 147.59 308.144C147.639 308.3 147.654 308.465 147.634 308.627C147.614 308.789 147.56 308.946 147.476 309.086C147.392 309.226 147.278 309.346 147.144 309.439C144.794 311.184 143.573 311.916 140.635 314.176C138.827 315.559 135.211 318.597 132.734 320.504C130.257 322.412 128.377 320.215 129.254 319.211C133.213 314.691 134.072 311.979 134.678 309.566C134.815 309.121 135.098 308.735 135.482 308.472Z" fill="#1F2937"/>
<path d="M133.982 311.148C133.517 311.581 132.924 311.851 132.291 311.916C132.141 311.91 131.994 311.866 131.864 311.789C131.735 311.712 131.627 311.603 131.55 311.473C131.506 311.391 131.483 311.3 131.483 311.207C131.483 311.113 131.506 311.022 131.55 310.94C132.002 310.036 135.22 309.322 135.582 309.24C135.617 309.235 135.652 309.24 135.685 309.254C135.717 309.268 135.744 309.292 135.763 309.322C135.78 309.352 135.789 309.386 135.789 309.421C135.789 309.456 135.78 309.49 135.763 309.521C135.22 310.116 134.624 310.661 133.982 311.148ZM132.065 310.813C131.971 310.878 131.893 310.965 131.839 311.066C131.819 311.097 131.808 311.133 131.808 311.17C131.808 311.207 131.819 311.243 131.839 311.274C131.887 311.361 131.955 311.435 132.039 311.487C132.123 311.539 132.22 311.569 132.319 311.573C132.906 311.573 133.928 310.904 135.085 309.692C134.024 309.898 133.004 310.277 132.065 310.813Z" fill="#00694E"/>
<path d="M135.681 309.539H135.609C134.705 309.783 132.382 309.656 131.993 308.942C131.912 308.779 131.885 308.499 132.246 308.165C132.504 307.925 132.843 307.792 133.195 307.794C134.38 307.794 135.645 309.195 135.69 309.258C135.706 309.283 135.714 309.311 135.714 309.34C135.714 309.369 135.706 309.397 135.69 309.421C135.699 309.46 135.696 309.501 135.681 309.539ZM132.572 308.372L132.49 308.445C132.255 308.662 132.309 308.77 132.328 308.806C132.545 309.24 134.199 309.448 135.229 309.304C134.69 308.714 133.972 308.317 133.186 308.174C132.965 308.169 132.748 308.239 132.572 308.372Z" fill="#00694E"/>
<path d="M119.165 128.44C118.741 130.384 118.261 132.138 117.719 133.955C117.177 135.772 116.616 137.571 115.965 139.306C114.715 142.873 113.247 146.36 111.572 149.748L110.243 152.279C109.764 153.111 109.339 153.942 108.797 154.765L108.019 155.985C107.748 156.401 107.54 156.772 107.169 157.26C106.989 157.495 106.808 157.73 106.564 158.01C106.257 158.372 105.911 158.699 105.533 158.987C105.076 159.336 104.549 159.583 103.987 159.71C103.726 159.768 103.459 159.799 103.192 159.8C102.864 159.804 102.538 159.758 102.224 159.665C101.638 159.506 101.104 159.194 100.679 158.761C100.252 158.333 99.9408 157.804 99.7746 157.224C99.6908 156.956 99.6332 156.68 99.6029 156.401C99.5321 155.749 99.5321 155.091 99.6029 154.439C99.6661 153.897 99.7565 153.391 99.8469 152.903C100.028 151.917 100.263 150.995 100.507 150.073C101.014 148.258 101.618 146.472 102.315 144.721L105.931 145.517L105.687 150.941C105.687 151.845 105.633 152.695 105.623 153.526C105.623 153.942 105.623 154.349 105.623 154.711C105.622 154.971 105.658 155.23 105.732 155.479C105.732 155.479 105.732 155.479 105.732 155.316C105.62 154.974 105.428 154.664 105.171 154.412C104.821 154.056 104.386 153.794 103.906 153.653C103.646 153.583 103.379 153.543 103.11 153.535C102.898 153.539 102.686 153.563 102.478 153.608C102.154 153.687 101.847 153.825 101.574 154.015C101.384 154.15 101.456 154.078 101.492 154.015L101.7 153.662L102.911 151.492C103.318 150.733 103.689 149.956 104.087 149.187L105.199 146.837C106.609 143.646 107.911 140.364 108.995 137.019C109.556 135.347 110.071 133.656 110.586 131.966C111.102 130.275 111.563 128.531 111.97 126.931L119.165 128.44Z" fill="#EB996E"/>
<path d="M116.074 119.03C113.452 119.455 109.294 136.115 109.294 136.115L115.341 140.771C115.341 140.771 121.407 128.73 121.669 123.315C121.85 119.391 118.053 118.713 116.074 119.03Z" fill="#EB996E"/>
<path d="M106.591 146.321L105.569 138.041L100.823 145.002C101.025 145.841 101.467 146.603 102.095 147.195C102.722 147.787 103.509 148.184 104.358 148.337L106.591 146.321Z" fill="#EB996E"/>
<path d="M139.758 320.387L132.526 320.631L131.143 295.391L141.178 295.536L139.758 320.387Z" fill="#EB996E"/>
<path d="M132.038 318.326L140.174 318.271C140.31 318.266 140.443 318.314 140.544 318.406C140.646 318.497 140.707 318.624 140.717 318.759L141.205 325.169C141.21 325.505 141.081 325.83 140.847 326.072C140.614 326.314 140.294 326.454 139.957 326.462C137.137 326.462 135.781 326.272 132.219 326.299C130.022 326.299 126.795 326.561 123.776 326.588C120.756 326.615 120.783 323.614 122.067 323.334C127.808 322.077 128.811 320.396 130.827 318.814C131.167 318.524 131.592 318.353 132.038 318.326Z" fill="#1F2937"/>
<path d="M115.631 118.975C115.631 118.975 112.015 119.879 112.015 162.666L141.024 165.233C142.479 153.309 143.655 145.978 153.264 122.094C149.322 120.887 145.293 119.981 141.214 119.382C136.861 118.674 132.462 118.285 128.052 118.216C122.266 118.225 115.631 118.975 115.631 118.975Z" fill="#00694E"/>
<path opacity="0.2" d="M147.506 127.554L149.052 132.825C147.84 136.088 146.837 138.972 145.996 141.566C145.355 136.842 145.874 132.034 147.506 127.554Z" fill="#111827"/>
<path d="M105.569 138.041L100.823 145.002L106.591 144.667L109.664 138.303L105.569 138.041Z" fill="#EB996E"/>
<path d="M108.579 154.051L114.003 153.969C114.182 153.966 114.358 153.925 114.519 153.848C114.681 153.772 114.825 153.662 114.941 153.527C115.057 153.391 115.143 153.232 115.193 153.061C115.244 152.889 115.257 152.709 115.233 152.532L113.542 140.373C113.502 140.068 113.351 139.789 113.117 139.588C112.884 139.388 112.584 139.281 112.277 139.288L106.853 139.37C106.674 139.37 106.498 139.41 106.335 139.484C106.173 139.559 106.029 139.668 105.912 139.803C105.796 139.939 105.709 140.098 105.66 140.269C105.61 140.441 105.597 140.621 105.623 140.798L107.314 152.957C107.354 153.263 107.505 153.543 107.738 153.745C107.971 153.947 108.271 154.055 108.579 154.051Z" fill="#1F2937"/>
<path d="M142.299 104.331C140.771 108.525 138.683 116.263 141.169 119.373C136.844 122.989 131.998 125.93 126.795 128.097C123.767 121.028 128.007 118.207 128.007 118.207C132.915 117.493 133.367 113.949 133.078 110.559L142.299 104.331Z" fill="#EB996E"/>
<path d="M122.429 99.5214C121.669 112.078 114.121 115.676 115.893 122.121C118.397 131.161 128.612 124.083 128.612 124.083C128.612 124.083 123.052 125.891 122.7 121.498C122.411 117.882 135.247 118.442 131.686 109.935C129.399 104.457 122.429 99.5214 122.429 99.5214Z" fill="#1F2937"/>
<path opacity="0.2" d="M139.668 107.504L133.087 110.559C133.159 111.353 133.159 112.152 133.087 112.946C134.461 113.072 138.023 112.042 139.37 109.818C139.743 109.107 139.849 108.286 139.668 107.504Z" fill="#111827"/>
<path d="M143.438 92.5244C144.098 99.6479 144.531 102.658 141.521 106.835C137.001 113.118 128.097 112.376 125.321 105.578C122.817 99.4671 122.157 88.8361 128.639 84.9579C130.063 84.0934 131.685 83.6077 133.35 83.547C135.014 83.4862 136.667 83.8524 138.15 84.6108C139.633 85.3692 140.898 86.4945 141.824 87.8797C142.749 89.2649 143.305 90.8638 143.438 92.5244Z" fill="#EB996E"/>
<path d="M141.865 85.3738C136.242 81.5137 131.568 88.9265 141.548 96.1314C151.529 103.336 148.256 89.7582 141.865 85.3738Z" fill="#1F2937"/>
<path d="M138.873 83.3036C141.196 85.3918 127.365 93.0939 119.843 90.5356C112.322 87.9773 118.361 82.2369 121.1 81.4956C118.75 83.7646 122.863 87.2089 124.852 85.0573C126.84 82.9058 134.208 79.1181 138.873 83.3036Z" fill="#1F2937"/>
<path d="M111.978 162.666C111.978 162.666 96.6738 227.474 98.0207 243.836C99.5847 262.965 120.503 293.8 120.503 293.8L130.113 285.076C130.113 285.076 120.576 259.819 113.515 243.366C115.775 226.913 135.754 180.429 135.754 164.772L111.978 162.666Z" fill="#00694E"/>
<path opacity="0.6" d="M111.978 162.666C111.978 162.666 96.6738 227.474 98.0207 243.836C99.5847 262.965 120.503 293.8 120.503 293.8L130.113 285.076C130.113 285.076 120.576 259.819 113.515 243.366C115.775 226.913 135.754 180.429 135.754 164.772L111.978 162.666Z" fill="#111827"/>
<path d="M131.884 286.378L120.53 294.84L117.619 292.625L130.076 282.798L131.884 286.378Z" fill="#00694E"/>
<path opacity="0.2" d="M123.306 191.169C114.871 202.849 114.464 224.328 114.989 236.369C117.882 225.286 123.947 208.734 128.784 193.818C128.666 188.104 127.247 185.7 123.306 191.169Z" fill="#111827"/>
<path d="M117.421 162.72C117.421 162.72 123.025 218.687 124.897 237.58C127.121 260.008 130.384 295.979 130.384 295.979L141.178 295.527C141.178 295.527 143.546 265.035 141.792 244.903C142.109 218.235 146.041 181.975 140.979 165.197L117.421 162.72Z" fill="#00694E"/>
<path opacity="0.6" d="M117.421 162.72C117.421 162.72 123.025 218.687 124.897 237.58C127.121 260.008 130.384 295.979 130.384 295.979L141.178 295.527C141.178 295.527 143.546 265.035 141.792 244.903C142.109 218.235 146.041 181.975 140.979 165.197L117.421 162.72Z" fill="#111827"/>
<path d="M142 297.506L129.616 297.154L128.748 293.258L142.76 292.869L142 297.506Z" fill="#00694E"/>
<path d="M132.355 96.4568C132.445 97.0263 132.21 97.5416 131.83 97.6049C131.451 97.6682 131.08 97.2433 130.99 96.7009C130.899 96.1585 131.134 95.6161 131.514 95.5528C131.894 95.4895 132.264 95.8783 132.355 96.4568Z" fill="#1F2937"/>
<path d="M125.855 97.4603C125.945 98.0388 125.71 98.5541 125.331 98.6083C124.951 98.6626 124.58 98.2467 124.49 97.7043C124.399 97.1619 124.634 96.6105 125.014 96.5563C125.394 96.502 125.764 96.8907 125.855 97.4603Z" fill="#1F2937"/>
<path d="M125.177 96.5291L123.74 96.3483C123.74 96.3483 124.616 97.3156 125.177 96.5291Z" fill="#1F2937"/>
<path d="M127.988 98.0298C127.677 99.4196 127.178 100.761 126.506 102.016C126.831 102.179 127.188 102.269 127.552 102.28C127.916 102.291 128.278 102.223 128.612 102.08L127.988 98.0298Z" fill="#EB996E"/>
<path d="M132.355 103.662C132.061 103.766 131.758 103.841 131.451 103.888C131.406 103.896 131.361 103.886 131.323 103.861C131.286 103.835 131.26 103.796 131.252 103.752C131.248 103.729 131.249 103.706 131.254 103.684C131.259 103.662 131.269 103.641 131.282 103.622C131.296 103.604 131.313 103.588 131.332 103.576C131.352 103.564 131.374 103.556 131.396 103.553C132.115 103.46 132.801 103.198 133.398 102.787C133.995 102.377 134.487 101.831 134.832 101.194C134.853 101.155 134.887 101.125 134.929 101.11C134.971 101.095 135.016 101.096 135.058 101.112C135.078 101.121 135.097 101.134 135.113 101.15C135.129 101.167 135.141 101.186 135.15 101.207C135.158 101.228 135.162 101.25 135.162 101.273C135.162 101.295 135.157 101.318 135.148 101.338C134.556 102.448 133.553 103.281 132.355 103.662Z" fill="#1F2937"/>
<path d="M145.417 97.3879C145.369 98.08 145.184 98.7557 144.874 99.3762C144.564 99.9967 144.134 100.55 143.609 101.004C142.217 102.197 140.744 101.149 140.482 99.4219C140.237 97.8761 140.68 95.3901 142.389 94.9019C142.76 94.788 143.153 94.7677 143.534 94.8427C143.914 94.9177 144.271 95.0858 144.571 95.332C144.87 95.5782 145.105 95.8948 145.252 96.2535C145.4 96.6122 145.457 97.002 145.417 97.3879Z" fill="#EB996E"/>
<path d="M135.311 92.8951C135.265 92.904 135.219 92.9039 135.174 92.8946C135.129 92.8852 135.086 92.867 135.048 92.8408C134.703 92.5843 134.302 92.4136 133.877 92.3428C133.453 92.2721 133.018 92.3034 132.608 92.434C132.566 92.4515 132.522 92.4605 132.477 92.4604C132.432 92.4603 132.387 92.4511 132.346 92.4333C132.304 92.4156 132.267 92.3897 132.236 92.3572C132.205 92.3247 132.181 92.2863 132.165 92.2442C132.132 92.1602 132.133 92.0667 132.169 91.9839C132.204 91.901 132.271 91.8354 132.355 91.8012C132.869 91.6262 133.418 91.5783 133.955 91.6617C134.492 91.7452 135 91.9574 135.437 92.2804C135.51 92.3316 135.561 92.4093 135.578 92.4971C135.595 92.5848 135.577 92.6757 135.528 92.7504C135.474 92.8222 135.397 92.8733 135.311 92.8951Z" fill="#1F2937"/>
<path d="M123.034 94.9652C122.995 94.9832 122.952 94.9925 122.908 94.9925C122.864 94.9925 122.821 94.9832 122.781 94.9652C122.74 94.9468 122.704 94.9203 122.673 94.8874C122.643 94.8545 122.619 94.8158 122.604 94.7737C122.589 94.7315 122.583 94.6867 122.585 94.642C122.587 94.5972 122.599 94.5534 122.619 94.5132C122.833 94.0148 123.164 93.5754 123.584 93.2323C124.004 92.8892 124.501 92.6526 125.032 92.5425C125.119 92.5361 125.205 92.5628 125.272 92.6171C125.34 92.6714 125.385 92.7493 125.397 92.8352C125.41 92.9211 125.39 93.0086 125.34 93.0801C125.291 93.1516 125.216 93.2017 125.132 93.2205C124.713 93.315 124.322 93.5077 123.992 93.7827C123.662 94.0577 123.402 94.4073 123.233 94.8025C123.213 94.8417 123.185 94.8763 123.151 94.9043C123.116 94.9323 123.077 94.953 123.034 94.9652Z" fill="#1F2937"/>
<path d="M155.172 130.773C155.307 132.083 155.38 133.232 155.416 134.452C155.452 135.672 155.479 136.848 155.47 138.068C155.434 140.479 155.28 142.889 155.009 145.3C154.732 147.74 154.279 150.157 153.653 152.532C153.33 153.759 152.938 154.966 152.478 156.148C152.252 156.745 151.999 157.341 151.737 157.956C151.737 157.956 151.601 158.245 151.511 158.408C151.415 158.595 151.303 158.774 151.176 158.941C150.953 159.272 150.692 159.575 150.399 159.845C149.923 160.253 149.39 160.588 148.817 160.84C147.998 161.182 147.132 161.402 146.249 161.491C145.544 161.568 144.834 161.599 144.125 161.581C142.848 161.546 141.574 161.435 140.31 161.246C137.942 160.872 135.597 160.365 133.286 159.728C131.017 159.104 128.766 158.417 126.569 157.685C124.372 156.952 122.185 156.139 120.006 155.226L121.136 151.754C123.333 152.234 125.566 152.74 127.79 153.165C130.013 153.59 132.228 154.069 134.434 154.394C136.64 154.72 138.845 155.054 140.979 155.19C141.998 155.27 143.022 155.288 144.043 155.244C144.48 155.223 144.915 155.175 145.345 155.099C145.606 155.059 145.858 154.979 146.096 154.864C146.096 154.864 146.096 154.864 145.96 154.937C145.877 155.001 145.804 155.077 145.743 155.163L145.635 155.325C145.635 155.325 145.553 155.506 145.635 155.389C145.806 154.918 145.978 154.485 146.123 153.96C146.43 152.984 146.683 151.98 146.909 150.959C147.332 148.869 147.634 146.756 147.813 144.631C148.012 142.479 148.075 140.292 148.075 138.104C148.075 137.01 148.075 135.916 148.075 134.823C148.075 133.729 147.976 132.599 147.913 131.622L155.172 130.773Z" fill="#EB996E"/>
<path d="M153.192 122.094C156.311 124.128 155.253 141.856 155.253 141.856L147.912 143.329C147.912 143.329 147.849 134.289 147.063 128.422C146.529 124.436 150.968 120.639 153.192 122.094Z" fill="#EB996E"/>
<path d="M128.061 319.166C127.973 319.049 127.913 318.913 127.886 318.769C127.859 318.624 127.867 318.476 127.907 318.335C127.924 318.23 127.967 318.132 128.031 318.048C128.096 317.964 128.181 317.898 128.278 317.855C129.182 317.467 131.243 318.868 131.478 319.022C131.504 319.041 131.525 319.067 131.536 319.098C131.547 319.128 131.549 319.162 131.541 319.193C131.533 319.227 131.516 319.258 131.493 319.284C131.469 319.309 131.439 319.328 131.406 319.338C130.456 319.564 128.766 319.853 128.133 319.239L128.061 319.166ZM130.935 319.094C130.031 318.561 128.856 317.955 128.395 318.19C128.353 318.21 128.317 318.24 128.29 318.278C128.263 318.316 128.246 318.361 128.242 318.407C128.208 318.511 128.203 318.622 128.227 318.728C128.251 318.835 128.303 318.933 128.377 319.013C128.721 319.32 129.661 319.356 130.935 319.112V319.094Z" fill="#00694E"/>
<path d="M130.429 318.524C130.173 318.268 129.97 317.963 129.832 317.628C129.694 317.293 129.624 316.934 129.625 316.572C129.664 316.438 129.745 316.319 129.855 316.233C129.965 316.148 130.1 316.098 130.239 316.093C130.366 316.073 130.495 316.082 130.617 316.12C130.739 316.157 130.851 316.222 130.944 316.31C131.677 316.997 131.55 319.076 131.541 319.166C131.54 319.197 131.531 319.228 131.515 319.254C131.499 319.281 131.477 319.304 131.451 319.32C131.424 319.333 131.395 319.34 131.365 319.34C131.335 319.34 131.305 319.333 131.279 319.32C130.956 319.101 130.669 318.833 130.429 318.524ZM130.773 316.644C130.751 316.618 130.727 316.594 130.7 316.572C130.642 316.516 130.572 316.474 130.495 316.449C130.419 316.423 130.337 316.416 130.257 316.427C130.031 316.427 129.986 316.554 129.959 316.635C129.823 317.132 130.565 318.298 131.216 318.841C131.275 318.082 131.122 317.321 130.773 316.644Z" fill="#00694E"/>
<path d="M141.693 163.552L142.009 166.264C142.082 166.472 141.81 166.661 141.476 166.625L111.644 163.986C111.382 163.986 111.183 163.814 111.192 163.651L111.364 161.011C111.364 160.831 111.626 160.695 111.906 160.722L141.277 163.326C141.36 163.324 141.442 163.344 141.515 163.384C141.588 163.423 141.649 163.481 141.693 163.552Z" fill="white"/>
<path d="M137.209 166.517L137.996 166.58C138.158 166.58 138.285 166.526 138.294 166.426L138.475 163C138.475 162.901 138.357 162.801 138.204 162.792L137.408 162.72C137.254 162.72 137.119 162.774 137.11 162.874L136.929 166.309C136.929 166.408 137.056 166.499 137.209 166.517Z" fill="#00694E"/>
<path opacity="0.6" d="M137.209 166.517L137.996 166.58C138.158 166.58 138.285 166.526 138.294 166.426L138.475 163C138.475 162.901 138.357 162.801 138.204 162.792L137.408 162.72C137.254 162.72 137.119 162.774 137.11 162.874L136.929 166.309C136.929 166.408 137.056 166.499 137.209 166.517Z" fill="#111827"/>
<path d="M113.787 164.438L114.573 164.51C114.736 164.51 114.862 164.456 114.871 164.356L115.052 160.921C115.052 160.822 114.935 160.731 114.781 160.713L113.994 160.65C113.832 160.65 113.705 160.704 113.696 160.804L113.515 164.23C113.506 164.329 113.633 164.429 113.787 164.438Z" fill="#00694E"/>
<path opacity="0.6" d="M113.787 164.438L114.573 164.51C114.736 164.51 114.862 164.456 114.871 164.356L115.052 160.921C115.052 160.822 114.935 160.731 114.781 160.713L113.994 160.65C113.832 160.65 113.705 160.704 113.696 160.804L113.515 164.23C113.506 164.329 113.633 164.429 113.787 164.438Z" fill="#111827"/>
<path d="M125.502 165.477L126.289 165.55C126.443 165.55 126.578 165.486 126.578 165.387L126.768 161.961C126.768 161.861 126.65 161.771 126.488 161.753L125.701 161.68C125.548 161.68 125.412 161.744 125.412 161.843L125.222 165.269C125.222 165.369 125.349 165.432 125.502 165.477Z" fill="#00694E"/>
<path opacity="0.6" d="M125.502 165.477L126.289 165.55C126.443 165.55 126.578 165.486 126.578 165.387L126.768 161.961C126.768 161.861 126.65 161.771 126.488 161.753L125.701 161.68C125.548 161.68 125.412 161.744 125.412 161.843L125.222 165.269C125.222 165.369 125.349 165.432 125.502 165.477Z" fill="#111827"/>
<path d="M122.266 151.971L117.746 145.942L115.866 153.174C115.866 153.174 119.229 156.112 122.085 154.982L122.266 151.971Z" fill="#EB996E"/>
<path d="M111.96 144.613L110.704 150.715L116.806 153.834L117.773 145.942L111.96 144.613Z" fill="#EB996E"/>
<path d="M131.686 95.5257L130.239 95.3449C130.239 95.3449 131.08 96.3122 131.686 95.5257Z" fill="#1F2937"/>
</svg>
