<svg width="20" height="20" viewBox="0 0 20 20" fill="none" xmlns="http://www.w3.org/2000/svg">
<path d="M11.2931 10L10.9396 10.3536L7.64661 13.6465C7.64659 13.6466 7.64657 13.6466 7.64655 13.6466C7.55285 13.7404 7.50021 13.8675 7.50021 14C7.50021 14.1326 7.55287 14.2598 7.64661 14.3535C7.74036 14.4472 7.86747 14.4998 8 14.4998C8.13256 14.4998 8.25969 14.4472 8.35345 14.3535L11.2931 10ZM11.2931 10L10.9396 9.64649L7.65015 6.35709C7.56065 6.26307 7.51118 6.13788 7.51231 6.00798C7.51345 5.87689 7.56603 5.75148 7.65873 5.65878C7.75144 5.56607 7.87685 5.51349 8.00794 5.51235C8.13784 5.51122 8.26303 5.56069 8.35704 5.65019L12.3534 9.64654C12.3534 9.64656 12.3534 9.64658 12.3534 9.64659C12.4471 9.74035 12.4998 9.86748 12.4998 10C12.4998 10.1326 12.4471 10.2597 12.3534 10.3535C12.3534 10.3535 12.3534 10.3535 12.3534 10.3535L8.3535 14.3534L11.2931 10Z" fill="#1F2937" stroke="#6B7280"/>
</svg>
