<svg width="20" height="20" viewBox="0 0 20 20" fill="none" xmlns="http://www.w3.org/2000/svg">
<path fill-rule="evenodd" clip-rule="evenodd" d="M12.3158 3.05098C12.4404 3.09246 12.5557 3.15808 12.655 3.2441C12.7542 3.33013 12.8356 3.43487 12.8944 3.55234C12.9531 3.66982 12.9882 3.79772 12.9975 3.92875C13.0069 4.05978 12.9903 4.19136 12.9488 4.31598L8.94879 16.316C8.86498 16.5677 8.68462 16.7758 8.44738 16.8945C8.21015 17.0132 7.93548 17.0328 7.68379 16.949C7.4321 16.8652 7.22401 16.6848 7.1053 16.4476C6.98659 16.2104 6.96698 15.9357 7.05079 15.684L11.0508 3.68398C11.0923 3.55934 11.1579 3.44409 11.2439 3.34482C11.3299 3.24554 11.4347 3.16419 11.5521 3.10541C11.6696 3.04663 11.7975 3.01156 11.9286 3.00223C12.0596 2.99289 12.1912 3.00946 12.3158 3.05098ZM5.70679 6.29298C5.89426 6.48051 5.99957 6.73482 5.99957 6.99998C5.99957 7.26515 5.89426 7.51946 5.70679 7.70698L3.41379 9.99998L5.70679 12.293C5.8023 12.3852 5.87848 12.4956 5.93089 12.6176C5.9833 12.7396 6.01088 12.8708 6.01204 13.0036C6.01319 13.1364 5.98789 13.268 5.93761 13.3909C5.88733 13.5138 5.81307 13.6255 5.71918 13.7194C5.62529 13.8133 5.51364 13.8875 5.39074 13.9378C5.26784 13.9881 5.13616 14.0134 5.00339 14.0122C4.87061 14.0111 4.73939 13.9835 4.61738 13.9311C4.49538 13.8787 4.38503 13.8025 4.29279 13.707L1.29279 10.707C1.10532 10.5195 1 10.2651 1 9.99998C1 9.73482 1.10532 9.48051 1.29279 9.29298L4.29279 6.29298C4.48031 6.10551 4.73462 6.0002 4.99979 6.0002C5.26495 6.0002 5.51926 6.10551 5.70679 6.29298ZM14.2928 6.29298C14.4803 6.10551 14.7346 6.0002 14.9998 6.0002C15.265 6.0002 15.5193 6.10551 15.7068 6.29298L18.7068 9.29298C18.8943 9.48051 18.9996 9.73482 18.9996 9.99998C18.9996 10.2651 18.8943 10.5195 18.7068 10.707L15.7068 13.707C15.6145 13.8025 15.5042 13.8787 15.3822 13.9311C15.2602 13.9835 15.129 14.0111 14.9962 14.0122C14.8634 14.0134 14.7317 13.9881 14.6088 13.9378C14.4859 13.8875 14.3743 13.8133 14.2804 13.7194C14.1865 13.6255 14.1122 13.5138 14.062 13.3909C14.0117 13.268 13.9864 13.1364 13.9875 13.0036C13.9887 12.8708 14.0163 12.7396 14.0687 12.6176C14.1211 12.4956 14.1973 12.3852 14.2928 12.293L16.5858 9.99998L14.2928 7.70698C14.1053 7.51946 14 7.26515 14 6.99998C14 6.73482 14.1053 6.48051 14.2928 6.29298Z" fill="#000000"/>
</svg>
