<svg width="452" height="337" viewBox="0 0 452 337" fill="none" xmlns="http://www.w3.org/2000/svg">
<path d="M452 295.97H0V296.196H452V295.97Z" fill="#E5E7EB"/>
<path d="M406.71 310.515H376.769V310.741H406.71V310.515Z" fill="#E5E7EB"/>
<path d="M299.423 312.974H291.567V313.2H299.423V312.974Z" fill="#E5E7EB"/>
<path d="M375.865 302.126H358.518V302.352H375.865V302.126Z" fill="#E5E7EB"/>
<path d="M86.4675 303.645H47.4237V303.871H86.4675V303.645Z" fill="#E5E7EB"/>
<path d="M100.245 303.645H94.5223V303.871H100.245V303.645Z" fill="#E5E7EB"/>
<path d="M203.536 307.46H118.849V307.686H203.536V307.46Z" fill="#E5E7EB"/>
<path d="M214.248 255.651H39.6944C38.327 255.649 37.0164 255.104 36.0503 254.136C35.0842 253.168 34.5416 251.857 34.5416 250.489V5.11664C34.5535 3.75705 35.1014 2.45705 36.0662 1.49903C37.031 0.541006 38.3348 0.00232905 39.6944 0H214.248C215.617 0 216.93 0.543835 217.898 1.51187C218.866 2.4799 219.41 3.79283 219.41 5.16184V250.489C219.41 251.858 218.866 253.171 217.898 254.139C216.93 255.107 215.617 255.651 214.248 255.651ZM39.6944 0.180801C38.3869 0.183195 37.1338 0.704275 36.2101 1.62967C35.2864 2.55506 34.7676 3.80914 34.7676 5.11664V250.489C34.7676 251.797 35.2864 253.051 36.2101 253.976C37.1338 254.902 38.3869 255.423 39.6944 255.425H214.248C215.556 255.423 216.81 254.902 217.735 253.977C218.66 253.052 219.181 251.798 219.184 250.489V5.11664C219.181 3.80831 218.66 2.55425 217.735 1.62911C216.81 0.703981 215.556 0.18319 214.248 0.180801H39.6944Z" fill="#E5E7EB"/>
<path d="M409.792 255.651H235.23C233.861 255.649 232.55 255.104 231.582 254.137C230.615 253.169 230.07 251.858 230.068 250.489V5.11664C230.082 3.75622 230.632 2.45624 231.598 1.49846C232.564 0.54069 233.869 0.00230365 235.23 0H409.792C411.15 0.00470487 412.452 0.544433 413.415 1.5022C414.377 2.45997 414.924 3.75861 414.936 5.11664V250.489C414.936 251.855 414.395 253.165 413.43 254.133C412.466 255.101 411.158 255.646 409.792 255.651ZM235.23 0.180801C233.921 0.18319 232.667 0.703981 231.742 1.62911C230.817 2.55425 230.296 3.80831 230.294 5.11664V250.489C230.296 251.798 230.817 253.052 231.742 253.977C232.667 254.902 233.921 255.423 235.23 255.425H409.792C411.1 255.423 412.355 254.902 413.28 253.977C414.205 253.052 414.726 251.798 414.728 250.489V5.11664C414.726 3.80831 414.205 2.55425 413.28 1.62911C412.355 0.703981 411.1 0.18319 409.792 0.180801H235.23Z" fill="#E5E7EB"/>
<path d="M382.338 22.4012H206.248V177.076H382.338V22.4012Z" fill="#E5E7EB"/>
<path d="M386.939 22.4012H208.399V177.076H386.939V22.4012Z" fill="#F3F4F6"/>
<path d="M382.338 177.066H206.248V181.333H382.338V177.066Z" fill="#E5E7EB"/>
<path d="M394.587 177.066H216.047V181.333H394.587V177.066Z" fill="#F3F4F6"/>
<path d="M380.503 170.648V28.8286L214.827 28.8286V170.648H380.503Z" fill="white"/>
<path d="M237.002 170.639L255.271 28.8286H286.902L268.623 170.639H237.002Z" fill="white"/>
<path d="M275.412 170.639L293.691 28.8286H306.022L287.743 170.639H275.412Z" fill="white"/>
<path d="M380.511 170.639V28.8195H379.698V170.639H380.511Z" fill="#E5E7EB"/>
<path opacity="0.5" d="M388.449 42.3434H212.359L211.771 31.3236H387.861L388.449 42.3434Z" fill="#D1D5DB"/>
<path opacity="0.5" d="M388.449 60.4505H212.359L211.771 49.4398H387.861L388.449 60.4505Z" fill="#D1D5DB"/>
<path opacity="0.5" d="M388.449 78.5577H212.359L211.771 67.5469H387.861L388.449 78.5577Z" fill="#D1D5DB"/>
<path opacity="0.5" d="M388.449 96.6739H212.359L211.771 85.6541H387.861L388.449 96.6739Z" fill="#D1D5DB"/>
<path opacity="0.5" d="M388.449 114.781H212.359L211.771 103.761H387.861L388.449 114.781Z" fill="#D1D5DB"/>
<path opacity="0.5" d="M388.449 132.888H212.359L211.771 121.868H387.861L388.449 132.888Z" fill="#D1D5DB"/>
<path d="M108.028 54.8909H53.0195V163.651H108.028V54.8909Z" fill="#D1D5DB"/>
<path d="M111.292 54.8909H55.1984V163.651H111.292V54.8909Z" fill="#F3F4F6"/>
<path d="M59.8899 61.1827L59.8899 157.359H106.582V61.1827H59.8899Z" fill="white"/>
<path d="M181.469 38.2934H126.461V147.054H181.469V38.2934Z" fill="#D1D5DB"/>
<path d="M184.732 38.2934H128.639V147.054H184.732V38.2934Z" fill="#F3F4F6"/>
<path d="M133.34 44.5853V140.762H180.041V44.5853H133.34Z" fill="white"/>
<path d="M171.697 195.734H148.545V295.97H171.697V195.734Z" fill="#E5E7EB"/>
<path d="M167.303 295.97H171.697V285.764H162.693L167.303 295.97Z" fill="#F3F4F6"/>
<path d="M85.1568 195.734H62.0054V295.97H85.1568V195.734Z" fill="#E5E7EB"/>
<path d="M171.697 195.734H81.3147V289.705H171.697V195.734Z" fill="#F3F4F6"/>
<path d="M127.979 201.981V276.94H168.28V201.981H127.979Z" fill="#E5E7EB"/>
<path d="M84.7228 201.981V276.94H125.023V201.981H84.7228Z" fill="#E5E7EB"/>
<path d="M108.869 204.846H100.895C97.5539 204.879 94.3091 203.726 91.7378 201.592H118.026C115.455 203.726 112.21 204.879 108.869 204.846Z" fill="#F3F4F6"/>
<path d="M152.532 204.846H144.559C141.217 204.881 137.972 203.728 135.401 201.592H161.689C159.118 203.726 155.873 204.879 152.532 204.846Z" fill="#F3F4F6"/>
<path d="M85.7172 295.97H81.3147V285.764H90.3276L85.7172 295.97Z" fill="#F3F4F6"/>
<path d="M102.532 186.17C102.532 186.17 103.219 195.734 129.57 195.734C155.922 195.734 156.609 186.17 156.609 186.17H102.532Z" fill="#E5E7EB"/>
<path d="M206.401 229.047L404.215 229.047V212.485L206.401 212.485V229.047Z" fill="#E5E7EB"/>
<path d="M206.41 229.047H262.558V212.485H206.41V229.047Z" fill="#D1D5DB"/>
<path d="M392.381 295.97H404.224V229.047H392.381V295.97Z" fill="#E5E7EB"/>
<path d="M392.381 233.684L404.223 231.37V229.047H392.381V233.684Z" fill="#D1D5DB"/>
<path d="M206.401 295.97H218.244V229.047H206.401V295.97Z" fill="#D1D5DB"/>
<path d="M250.715 295.97H262.558V229.047H250.715V295.97Z" fill="#E5E7EB"/>
<path d="M250.716 233.684L262.558 231.37V229.047H250.716V233.684Z" fill="#D1D5DB"/>
<path d="M355.308 295.97H367.15V229.047H355.308V295.97Z" fill="#D1D5DB"/>
<path d="M226 336.794C322.803 336.794 401.277 332.213 401.277 326.561C401.277 320.909 322.803 316.328 226 316.328C129.197 316.328 50.7234 320.909 50.7234 326.561C50.7234 332.213 129.197 336.794 226 336.794Z" fill="#F3F4F6"/>
<path d="M210.189 67.1943H102.351C100.643 67.1766 98.9509 67.5144 97.3809 68.1861C95.8109 68.8578 94.3977 69.8487 93.2313 71.0959C92.0649 72.3431 91.1707 73.8193 90.6054 75.4307C90.0402 77.042 89.8163 78.7534 89.9481 80.4559L105.406 310.434C105.698 314.016 107.313 317.362 109.937 319.818C112.561 322.275 116.005 323.667 119.599 323.722H227.437C229.147 323.742 230.843 323.404 232.415 322.731C233.987 322.058 235.402 321.065 236.568 319.814C237.735 318.564 238.627 317.083 239.189 315.468C239.751 313.853 239.97 312.138 239.831 310.434L224.373 80.4559C224.075 76.8798 222.458 73.542 219.837 71.0912C217.216 68.6403 213.777 67.2514 210.189 67.1943Z" fill="#756E65"/>
<path opacity="0.3" d="M210.189 67.1943H102.351C100.643 67.1766 98.9509 67.5144 97.3809 68.1861C95.8109 68.8578 94.3977 69.8487 93.2313 71.0959C92.0649 72.3431 91.1707 73.8193 90.6054 75.4307C90.0402 77.042 89.8163 78.7534 89.9481 80.4559L105.406 310.434C105.698 314.016 107.313 317.362 109.937 319.818C112.561 322.275 116.005 323.667 119.599 323.722H227.437C229.147 323.742 230.843 323.404 232.415 322.731C233.987 322.058 235.402 321.065 236.568 319.814C237.735 318.564 238.627 317.083 239.189 315.468C239.751 313.853 239.97 312.138 239.831 310.434L224.373 80.4559C224.075 76.8798 222.458 73.542 219.837 71.0912C217.216 68.6403 213.777 67.2514 210.189 67.1943Z" fill="white"/>
<path d="M90.0803 116.47L89.1783 116.531L90.6344 138.223L91.5363 138.163L90.0803 116.47Z" fill="#756E65"/>
<path d="M92.3371 149.568L91.4352 149.628L92.0895 159.351L92.9915 159.291L92.3371 149.568Z" fill="#756E65"/>
<path d="M113.235 312.784C113.309 313.661 113.06 314.534 112.536 315.241C112.012 315.947 111.248 316.439 110.388 316.623C109.528 316.807 108.63 316.671 107.863 316.24C107.096 315.81 106.512 315.115 106.22 314.285C105.771 313.061 105.497 311.78 105.407 310.479L89.9481 80.456C89.8566 79.1612 89.9602 77.86 90.2555 76.5959C90.4372 75.7345 90.927 74.969 91.6329 74.4429C92.3388 73.9168 93.2123 73.6664 94.0898 73.7385C94.9672 73.8106 95.7882 74.2003 96.3987 74.8346C97.0093 75.4688 97.3675 76.304 97.4061 77.1835L113.235 312.784Z" fill="#756E65"/>
<path d="M227.437 319.41H127.247C124.76 319.343 122.383 318.365 120.569 316.662C118.754 314.959 117.627 312.65 117.403 310.172L101.944 80.2029C101.845 79.0925 101.981 77.9737 102.342 76.9191C102.704 75.8645 103.283 74.8979 104.043 74.0819C104.803 73.266 105.726 72.619 106.752 72.1831C107.778 71.7472 108.884 71.532 109.999 71.5516H210.189C212.675 71.6187 215.051 72.5953 216.865 74.2963C218.679 75.9974 219.807 78.3048 220.034 80.7815L235.492 310.759C235.588 311.869 235.451 312.987 235.088 314.04C234.725 315.093 234.146 316.059 233.387 316.874C232.628 317.689 231.706 318.336 230.681 318.773C229.656 319.21 228.551 319.427 227.437 319.41ZM109.999 72.5189C109.017 72.5009 108.043 72.69 107.139 73.0739C106.235 73.4577 105.422 74.0278 104.754 74.7468C104.085 75.4658 103.575 76.3177 103.258 77.2469C102.94 78.1761 102.822 79.1618 102.911 80.1396L118.37 310.072C118.571 312.308 119.586 314.392 121.222 315.929C122.859 317.465 125.003 318.347 127.247 318.407H227.437C228.419 318.425 229.394 318.236 230.298 317.852C231.201 317.468 232.014 316.898 232.683 316.179C233.351 315.46 233.861 314.608 234.179 313.679C234.496 312.75 234.614 311.764 234.525 310.786L219.066 80.8176C218.866 78.5818 217.85 76.4976 216.214 74.961C214.577 73.4244 212.433 72.5425 210.189 72.4828L109.999 72.5189Z" fill="white"/>
<g opacity="0.5">
<path opacity="0.5" d="M202.484 175.922C217.763 159.765 215.507 132.821 197.446 115.742C179.384 98.6616 152.357 97.9135 137.078 114.071C121.799 130.228 124.054 157.171 142.116 174.251C160.177 191.331 187.205 192.079 202.484 175.922Z" fill="#756E65"/>
<path opacity="0.5" d="M195.942 169.745C208.165 156.82 206.36 135.266 191.912 121.603C177.463 107.94 155.842 107.341 143.62 120.266C131.397 133.191 133.202 154.745 147.65 168.408C162.099 182.071 183.72 182.67 195.942 169.745Z" fill="white"/>
<path opacity="0.5" d="M189.395 163.598C198.563 153.907 197.212 137.743 186.379 127.494C175.545 117.246 159.331 116.794 150.163 126.485C140.995 136.176 142.346 152.34 153.179 162.589C164.013 172.837 180.227 173.289 189.395 163.598Z" fill="#756E65"/>
<path opacity="0.5" d="M182.865 157.378C188.978 150.914 188.075 140.134 180.849 133.301C173.623 126.468 162.81 126.168 156.697 132.633C150.584 139.097 151.486 149.877 158.712 156.71C165.938 163.543 176.752 163.843 182.865 157.378Z" fill="white"/>
<path opacity="0.5" d="M176.32 151.22C179.377 147.988 178.927 142.598 175.314 139.181C171.702 135.764 166.295 135.613 163.238 138.845C160.181 142.076 160.631 147.466 164.244 150.884C167.856 154.301 173.263 154.452 176.32 151.22Z" fill="#756E65"/>
</g>
<path d="M177.989 202.957C177.826 202.957 177.672 202.957 177.51 202.957C176.269 200.561 174.401 198.547 172.105 197.13C169.809 195.713 167.172 194.946 164.474 194.911C163.09 194.91 161.715 195.124 160.397 195.544C159.097 193.161 157.185 191.167 154.859 189.768C152.533 188.368 149.877 187.613 147.162 187.58C145.456 187.555 143.762 187.867 142.176 188.498C140.591 189.129 139.146 190.067 137.924 191.258C136.702 192.449 135.727 193.87 135.055 195.438C134.383 197.007 134.028 198.692 134.009 200.399C132.66 200.478 131.34 200.827 130.128 201.425C128.915 202.023 127.835 202.857 126.95 203.879C126.066 204.901 125.394 206.09 124.977 207.376C124.559 208.661 124.402 210.017 124.517 211.364C124.751 214.333 126.086 217.108 128.261 219.143C130.435 221.178 133.291 222.328 136.269 222.366H179.318C180.567 222.38 181.806 222.134 182.955 221.641C184.103 221.149 185.136 220.422 185.987 219.507C186.839 218.592 187.489 217.509 187.897 216.328C188.305 215.147 188.462 213.893 188.358 212.648C188.144 210.032 186.964 207.59 185.046 205.798C183.129 204.006 180.613 202.993 177.989 202.957Z" fill="white"/>
<path d="M205.407 97.7767H205.036C204.069 95.9102 202.612 94.3415 200.823 93.2381C199.033 92.1347 196.978 91.5381 194.875 91.512C193.796 91.5097 192.722 91.6743 191.693 92.0002C190.678 90.1446 189.188 88.5923 187.376 87.5026C185.563 86.4128 183.493 85.8248 181.379 85.7987C178.701 85.7601 176.118 86.7855 174.196 88.6499C172.274 90.5143 171.17 93.0653 171.127 95.7427C170.075 95.8053 169.046 96.0778 168.101 96.5442C167.155 97.0106 166.313 97.6614 165.623 98.4583C164.933 99.2552 164.41 100.182 164.083 101.184C163.757 102.187 163.635 103.244 163.723 104.295C163.908 106.607 164.949 108.767 166.643 110.353C168.337 111.938 170.561 112.834 172.881 112.864H206.437C207.413 112.878 208.38 112.687 209.277 112.304C210.174 111.922 210.982 111.355 211.647 110.642C212.312 109.928 212.82 109.083 213.139 108.161C213.458 107.239 213.58 106.261 213.498 105.289C213.319 103.257 212.392 101.364 210.898 99.9763C209.403 98.5885 207.446 97.8047 205.407 97.7767Z" fill="white"/>
<path opacity="0.3" d="M218.768 238.529H156.79C156.342 238.524 155.898 238.612 155.486 238.789C155.074 238.965 154.704 239.225 154.398 239.553C154.093 239.88 153.859 240.268 153.712 240.691C153.565 241.114 153.508 241.563 153.545 242.01L156.058 278.974C156.13 279.914 156.551 280.792 157.239 281.436C157.927 282.081 158.831 282.444 159.773 282.455H168.09L168.786 292.679L178.305 282.455H221.697C222.145 282.461 222.59 282.374 223.003 282.198C223.415 282.023 223.786 281.762 224.092 281.434C224.398 281.107 224.631 280.718 224.778 280.295C224.924 279.871 224.98 279.421 224.942 278.974L222.438 242.01C222.363 241.079 221.947 240.209 221.269 239.567C220.592 238.925 219.701 238.555 218.768 238.529Z" fill="white"/>
<path d="M218.289 262.829H160.56L160.243 258.155H217.982L218.289 262.829Z" fill="white"/>
<path d="M200.688 272.538H161.22L160.903 267.864H200.372L200.688 272.538Z" fill="white"/>
<path d="M217.638 253.12H159.9L159.583 248.446H217.322L217.638 253.12Z" fill="white"/>
<path d="M267.258 82.264L269.636 83.9725C270.462 84.5752 271.293 85.1447 272.131 85.6811C273.803 86.793 275.485 87.9049 277.184 88.9174C278.884 89.9299 280.601 90.8881 282.301 91.7379C283.894 92.5411 285.544 93.2269 287.237 93.79C286.861 93.697 286.471 93.6785 286.089 93.7357C285.86 93.7637 285.637 93.8278 285.429 93.9256C285.167 94.0612 285.248 94.0702 285.384 93.9889C285.907 93.6264 286.378 93.1946 286.785 92.7052C287.974 91.2853 289.051 89.7739 290.003 88.1852C291.061 86.5218 292.073 84.759 293.04 82.951C294.008 81.143 294.975 79.2898 295.87 77.527L295.933 77.4095C296.391 76.5081 297.169 75.8096 298.114 75.4501C299.059 75.0907 300.104 75.096 301.045 75.465C301.986 75.8341 302.756 76.5405 303.205 77.4465C303.654 78.3524 303.749 79.3931 303.473 80.3656C302.244 84.6726 300.687 88.8795 298.817 92.9493C297.803 95.1391 296.609 97.2406 295.246 99.2321C294.394 100.466 293.395 101.592 292.272 102.586C291.45 103.302 290.52 103.881 289.515 104.303C288.808 104.593 288.067 104.791 287.309 104.891C286.403 104.994 285.486 104.942 284.597 104.737C282.182 104.177 279.818 103.418 277.528 102.468C275.385 101.596 273.291 100.609 271.254 99.5123C269.247 98.4456 267.292 97.3216 265.387 96.1404C264.438 95.5437 263.498 94.9381 262.567 94.3324C261.636 93.7267 260.759 93.0939 259.737 92.3526C258.596 91.3003 257.881 89.8652 257.729 88.3202C257.577 86.7753 257.998 85.2283 258.912 83.9737C259.826 82.719 261.17 81.8441 262.687 81.5156C264.204 81.187 265.79 81.4276 267.141 82.1917L267.258 82.264Z" fill="#00694E"/>
<path opacity="0.2" d="M267.258 82.264L269.636 83.9725C270.462 84.5752 271.293 85.1447 272.131 85.6811C273.803 86.793 275.485 87.9049 277.184 88.9174C278.884 89.9299 280.601 90.8881 282.301 91.7379C283.894 92.5411 285.544 93.2269 287.237 93.79C286.861 93.697 286.471 93.6785 286.089 93.7357C285.86 93.7637 285.637 93.8278 285.429 93.9256C285.167 94.0612 285.248 94.0702 285.384 93.9889C285.907 93.6264 286.378 93.1946 286.785 92.7052C287.974 91.2853 289.051 89.7739 290.003 88.1852C291.061 86.5218 292.073 84.759 293.04 82.951C294.008 81.143 294.975 79.2898 295.87 77.527L295.933 77.4095C296.391 76.5081 297.169 75.8096 298.114 75.4501C299.059 75.0907 300.104 75.096 301.045 75.465C301.986 75.8341 302.756 76.5405 303.205 77.4465C303.654 78.3524 303.749 79.3931 303.473 80.3656C302.244 84.6726 300.687 88.8795 298.817 92.9493C297.803 95.1391 296.609 97.2406 295.246 99.2321C294.394 100.466 293.395 101.592 292.272 102.586C291.45 103.302 290.52 103.881 289.515 104.303C288.808 104.593 288.067 104.791 287.309 104.891C286.403 104.994 285.486 104.942 284.597 104.737C282.182 104.177 279.818 103.418 277.528 102.468C275.385 101.596 273.291 100.609 271.254 99.5123C269.247 98.4456 267.292 97.3216 265.387 96.1404C264.438 95.5437 263.498 94.9381 262.567 94.3324C261.636 93.7267 260.759 93.0939 259.737 92.3526C258.596 91.3003 257.881 89.8652 257.729 88.3202C257.577 86.7753 257.998 85.2283 258.912 83.9737C259.826 82.719 261.17 81.8441 262.687 81.5156C264.204 81.187 265.79 81.4276 267.141 82.1917L267.258 82.264Z" fill="#111827"/>
<path d="M298.148 75.8366L300.598 71.6963L305.299 76.7677C304.62 78.2405 303.394 79.3914 301.882 79.9769C301.542 80.0927 301.18 80.1285 300.824 80.0815C300.468 80.0344 300.128 79.9058 299.83 79.7057L298.926 79.1272C298.398 78.7836 298.023 78.2502 297.878 77.6375C297.733 77.0248 297.83 76.3799 298.148 75.8366Z" fill="#FFBE9D"/>
<path d="M307.26 69.2283L308.3 69.8702C308.626 70.072 308.9 70.3474 309.101 70.6742C309.302 71.001 309.423 71.3702 309.456 71.7523C309.488 72.1344 309.431 72.5188 309.288 72.8748C309.146 73.2308 308.922 73.5485 308.634 73.8026L305.299 76.7677L300.598 71.6962L304.693 69.2193C305.08 68.9831 305.525 68.859 305.978 68.8605C306.431 68.8621 306.875 68.9895 307.26 69.2283Z" fill="#FFBE9D"/>
<path d="M209.746 319.22L216.906 319.428L219.6 302.849L212.449 302.641L209.746 319.22Z" fill="#FFBE9D"/>
<path d="M218.036 317.413L210.035 316.4C209.901 316.379 209.764 316.412 209.654 316.492C209.544 316.571 209.47 316.691 209.448 316.825L208.264 323.099C208.22 323.431 208.31 323.766 208.513 324.032C208.716 324.298 209.017 324.473 209.348 324.518C212.142 324.825 213.489 324.825 217.005 325.268C219.166 325.549 224.798 326.905 227.79 326.534C230.782 326.163 230.33 323.225 229.029 323.117C223.198 322.611 221.01 319.835 219.202 318C218.888 317.681 218.479 317.475 218.036 317.413Z" fill="#1F2937"/>
<path opacity="0.2" d="M212.44 302.65L219.6 302.858L218.207 311.401L211.048 311.193L212.44 302.65Z" fill="#111827"/>
<path d="M251.574 143.736C251.574 143.736 245.328 203.029 241.169 223.17C236.649 245.228 222.031 309.756 222.031 309.756L208.932 308.788C208.932 308.788 216.11 242.037 221.986 220.431C221.986 197.994 227.41 135.112 227.41 135.112L251.574 143.736Z" fill="#1F2937"/>
<path opacity="0.3" d="M230.701 163.778C230.583 159.14 228.07 157.649 225.593 157.703C224.689 168.858 223.722 182.536 222.99 194.875C227.383 187.752 231.026 176.66 230.701 163.778Z" fill="#111827"/>
<path d="M208.544 308.879L222.574 309.918L224.183 304.63L208.028 304.467L208.544 308.879Z" fill="white"/>
<path d="M137.146 263.652L141.657 269.229L155.153 259.493L150.633 253.925L137.146 263.652Z" fill="#FFBE9D"/>
<path d="M142.633 269.238L138.619 262.25C138.556 262.132 138.448 262.043 138.32 262.002C138.192 261.961 138.053 261.973 137.932 262.033L132.21 264.872C131.92 265.037 131.706 265.31 131.617 265.632C131.527 265.954 131.568 266.298 131.731 266.59C133.168 269.003 133.982 270.079 135.745 273.153C136.829 275.042 139.686 280.475 141.169 283.097C142.651 285.718 145.21 284.154 144.785 282.916C142.977 277.347 142.461 273.089 142.832 270.549C142.915 270.102 142.845 269.641 142.633 269.238Z" fill="#1F2937"/>
<path opacity="0.2" d="M150.633 253.925L155.153 259.502L148.193 264.51L143.673 258.942L150.633 253.925Z" fill="#111827"/>
<path d="M238.511 138.638C238.511 138.638 220.892 189.063 212.883 208.011C204.123 228.757 151.736 265.604 151.736 265.604L143.465 255.398C143.465 255.398 179.064 219.717 192.281 202.794C199.603 179.751 215.233 130.312 215.233 130.312L238.511 138.638Z" fill="#1F2937"/>
<path d="M143.13 254.982L152.071 266.011L156.437 263.489L145.969 251.809L143.13 254.982Z" fill="white"/>
<path d="M251.502 144.079L215.197 130.312C216.101 126.994 220.847 117.249 225.069 103.68C228.261 93.6528 230.584 83.3694 232.011 72.9437C232.048 72.6398 232.147 72.3466 232.301 72.0822C232.455 71.8177 232.662 71.5874 232.908 71.4055C233.155 71.2236 233.435 71.0938 233.733 71.0241C234.031 70.9544 234.341 70.9462 234.642 71.0001C235.32 71.1176 236.125 71.2713 237.011 71.4431C239.298 71.9041 242.154 72.555 244.875 73.3867C250.098 74.9178 255.229 76.7469 260.243 78.8649C261.922 79.6208 263.555 80.4751 265.134 81.4232C266.073 81.958 266.945 82.6045 267.728 83.3488C268.012 83.5761 268.247 83.8581 268.419 84.178C268.592 84.4979 268.698 84.8492 268.732 85.211C268.732 90.4 263.534 110.505 251.502 144.079Z" fill="#F3F4F6"/>
<path d="M259.52 78.5305C255.434 75.8727 255.633 72.8353 257.016 69.9063C257.364 69.182 257.753 68.4787 258.182 67.8L254.25 61.1556L251.357 56.283C250.724 61.6347 248.79 71.1086 244.27 73.2059C246.74 76.6938 250.268 79.2931 254.331 80.6187C261.003 82.6979 259.52 78.5305 259.52 78.5305Z" fill="#FFBE9D"/>
<path d="M254.078 80.5101L254.015 78.8106L249.495 79.6965L254.078 80.5101Z" fill="#D1D5DB"/>
<path d="M254.078 80.5103L254.919 79.1271L257.839 82.6799L254.078 80.5103Z" fill="#D1D5DB"/>
<path d="M244.884 72.3923C247.634 74.9221 250.704 77.08 254.015 78.8107C252.207 79.9226 250.489 82.8516 249.838 85.2743C248.374 84.2528 242.516 74.6161 241.702 71.9674L244.884 72.3923Z" fill="white"/>
<path d="M258.671 77.4999C257.6 78.3935 256.294 78.9586 254.91 79.1271C255.877 80.5464 256.718 84.2256 256.718 86.3591C258.408 85.2562 261.021 81.4052 261.437 79.6604L258.671 77.4999Z" fill="white"/>
<path opacity="0.3" d="M258.815 77.3734C258.815 77.3734 262.766 79.2718 266.255 81.4233C267.685 82.3046 268.789 83.6267 269.402 85.1903C270.015 86.7539 270.104 88.4744 269.654 90.0926C265.342 105.334 259.52 120.133 257.107 128.368C254.548 137.146 250.986 148.157 250.986 148.157L244.83 149.612C244.83 149.612 260.261 90.5898 258.815 77.3734Z" fill="#111827"/>
<path opacity="0.3" d="M244.794 71.7052C244.794 71.7052 239.488 71.0092 234.85 70.8012C233.224 70.728 231.622 71.2176 230.315 72.1875C229.007 73.1573 228.074 74.5482 227.672 76.1258C225.322 85.4189 223.586 103.192 221.209 110.107C218.253 118.749 214.248 135.6 214.248 135.6L235.275 147.75C235.275 147.75 256.519 82.49 244.794 71.7052Z" fill="#111827"/>
<path d="M244.794 71.7052C244.794 71.7052 239.488 71.0092 234.85 70.8012C233.224 70.728 231.622 71.2176 230.315 72.1875C229.007 73.1573 228.074 74.5482 227.672 76.1258C225.322 85.4189 222.122 102.776 219.735 109.7C216.761 118.343 210.451 133.033 210.451 133.033L236.975 145.472C236.975 145.472 256.519 82.49 244.794 71.7052Z" fill="#00694E"/>
<path opacity="0.2" d="M244.794 71.7052C244.794 71.7052 239.488 71.0092 234.85 70.8012C233.224 70.728 231.622 71.2176 230.315 72.1875C229.007 73.1573 228.074 74.5482 227.672 76.1258C225.322 85.4189 222.122 102.776 219.735 109.7C216.761 118.343 210.451 133.033 210.451 133.033L236.975 145.472C236.975 145.472 256.519 82.49 244.794 71.7052Z" fill="#111827"/>
<path d="M258.815 77.3734C258.815 77.3734 262.766 79.2718 266.255 81.4233C267.685 82.3046 268.789 83.6267 269.402 85.1903C270.015 86.7539 270.104 88.4744 269.654 90.0926C265.342 105.334 261.934 121.308 260.216 129.715C258.408 138.665 256.519 146.81 256.519 146.81L246.575 148.157C246.575 148.157 260.261 90.5898 258.815 77.3734Z" fill="#00694E"/>
<path opacity="0.2" d="M258.815 77.3734C258.815 77.3734 262.766 79.2718 266.255 81.4233C267.685 82.3046 268.789 83.6267 269.402 85.1903C270.015 86.7539 270.104 88.4744 269.654 90.0926C265.342 105.334 261.934 121.308 260.216 129.715C258.408 138.665 256.519 146.81 256.519 146.81L246.575 148.157C246.575 148.157 260.261 90.5898 258.815 77.3734Z" fill="#111827"/>
<path opacity="0.2" d="M258.183 67.8C257.752 68.4876 257.363 69.1999 257.016 69.9335C255.082 68.7673 253.093 65.5491 253.563 63.3162C253.711 62.5726 253.941 61.8479 254.25 61.1556L258.183 67.8Z" fill="#111827"/>
<path d="M263.76 40.3907C268.569 41.0144 270.332 47.5052 267.675 51.7901C263.317 45.4712 263.76 40.3907 263.76 40.3907Z" fill="#1F2937"/>
<path d="M248.79 52.3597C250.417 59.3115 251.005 63.4518 255.172 66.5706C256.515 67.6002 258.114 68.2427 259.796 68.4286C261.478 68.6146 263.179 68.3368 264.714 67.6254C266.25 66.914 267.561 65.7962 268.507 64.3928C269.453 62.9895 269.996 61.3542 270.079 59.6641C270.531 53.1643 267.801 42.8858 260.433 41.0236C258.849 40.5765 257.174 40.5544 255.578 40.9595C253.982 41.3646 252.52 42.1826 251.34 43.3314C250.16 44.4801 249.303 45.9192 248.856 47.504C248.408 49.0887 248.385 50.7634 248.79 52.3597Z" fill="#FFBE9D"/>
<path d="M250.932 58.5522C255.118 58.6697 254.467 51.736 252.641 49.1144C258.445 50.0184 268.063 44.8927 269.03 39.523C270.432 31.7395 258.562 31.7395 254.72 34.2165C256.374 34.334 257.215 35.7352 256.817 36.4584C256.817 36.4584 251.086 34.7227 247.38 36.7386C248.998 37.3353 250.715 39.6676 244.559 40.4089C238.701 41.114 240.473 47.0081 243.429 46.8996C241.856 49.3133 239.967 54.8006 243.511 57.1329C247.054 59.4652 249.477 62.5026 248.709 63.7502C249.947 63.705 252.578 62.2134 250.932 58.5522Z" fill="#1F2937"/>
<path d="M244.27 46.3571C241.467 46.6283 239.858 48.8159 239.75 51.7811C240.95 49.7384 242.477 47.9061 244.27 46.3571Z" fill="#1F2937"/>
<path d="M247.117 58.6425C247.832 60.0694 249.059 61.1736 250.553 61.7342C252.514 62.4484 253.545 60.7127 253.039 58.7781C252.578 57.0244 251.005 54.5565 249.016 54.683C247.027 54.8096 246.25 56.8707 247.117 58.6425Z" fill="#FFBE9D"/>
<path d="M259.81 52.8931C259.9 53.4626 260.289 53.8784 260.659 53.7971C261.03 53.7157 261.256 53.2456 261.166 52.6761C261.075 52.1066 260.686 51.6817 260.307 51.7721C259.927 51.8625 259.71 52.3236 259.81 52.8931Z" fill="#1F2937"/>
<path d="M266.291 52.0252C266.382 52.5947 266.761 53.0105 267.141 52.9292C267.521 52.8478 267.738 52.3777 267.647 51.7992C267.557 51.2206 267.168 50.8138 266.788 50.8952C266.409 50.9765 266.192 51.4466 266.291 52.0252Z" fill="#1F2937"/>
<path d="M264.275 52.5856C265.259 54.2425 266.456 55.7623 267.837 57.1056C266.987 58.1814 265.188 58.0096 265.188 58.0096L264.275 52.5856Z" fill="#EB996E"/>
<path d="M263.109 59.8268C262.44 59.8447 261.775 59.7265 261.153 59.4794C260.532 59.2324 259.967 58.8615 259.493 58.3894C259.463 58.3575 259.447 58.3155 259.447 58.2719C259.447 58.2282 259.463 58.1862 259.493 58.1544C259.509 58.1382 259.528 58.1254 259.549 58.1167C259.57 58.108 259.592 58.1035 259.615 58.1035C259.638 58.1035 259.66 58.108 259.681 58.1167C259.702 58.1254 259.721 58.1382 259.737 58.1544C260.261 58.6618 260.895 59.041 261.59 59.2621C262.285 59.4833 263.021 59.5404 263.742 59.429C263.766 59.421 263.791 59.4184 263.816 59.4214C263.841 59.4244 263.866 59.4328 263.887 59.4462C263.908 59.4596 263.927 59.4775 263.94 59.4987C263.954 59.5199 263.963 59.5439 263.966 59.569C263.97 59.594 263.968 59.6195 263.96 59.6436C263.952 59.6677 263.94 59.6898 263.922 59.7084C263.905 59.7269 263.884 59.7415 263.861 59.751C263.837 59.7606 263.812 59.7648 263.787 59.7635C263.563 59.8023 263.336 59.8234 263.109 59.8268Z" fill="#1F2937"/>
<path d="M261.301 61.7069C260.76 61.3085 260.307 60.804 259.968 60.2242C259.629 59.6444 259.412 59.0016 259.33 58.335C259.328 58.2909 259.342 58.2475 259.371 58.2138C259.4 58.1802 259.44 58.1588 259.484 58.1542C259.506 58.1517 259.529 58.1538 259.55 58.1603C259.571 58.1668 259.591 58.1775 259.608 58.1919C259.625 58.2063 259.638 58.2241 259.648 58.244C259.658 58.2639 259.664 58.2857 259.665 58.3079C259.771 59.0294 260.039 59.7176 260.449 60.3205C260.859 60.9233 261.401 61.4252 262.033 61.7883C262.053 61.7987 262.07 61.8128 262.083 61.8299C262.097 61.847 262.107 61.8667 262.113 61.8878C262.119 61.9089 262.121 61.931 262.118 61.9528C262.115 61.9745 262.108 61.9954 262.097 62.0143C262.085 62.0339 262.07 62.0511 262.052 62.065C262.035 62.0788 262.014 62.0889 261.992 62.0948C261.97 62.1006 261.948 62.1022 261.925 62.0992C261.903 62.0963 261.881 62.0889 261.862 62.0776C261.669 61.9635 261.482 61.8398 261.301 61.7069Z" fill="#1F2937"/>
<path d="M257.45 51.076C257.397 51.0894 257.341 51.0894 257.287 51.076C257.247 51.056 257.211 51.028 257.182 50.9937C257.152 50.9594 257.13 50.9195 257.117 50.8764C257.103 50.8333 257.098 50.7879 257.103 50.743C257.107 50.6981 257.121 50.6545 257.143 50.615C257.381 50.1306 257.735 49.7123 258.173 49.397C258.612 49.0817 259.121 48.879 259.656 48.807C259.7 48.8033 259.745 48.8086 259.788 48.8226C259.831 48.8367 259.87 48.8591 259.904 48.8886C259.937 48.9181 259.965 48.9541 259.984 48.9944C260.004 49.0348 260.015 49.0786 260.017 49.1234C260.021 49.168 260.016 49.213 260.002 49.2556C259.988 49.2981 259.965 49.3375 259.936 49.3712C259.906 49.4049 259.87 49.4324 259.83 49.4519C259.79 49.4715 259.746 49.4827 259.701 49.485C259.286 49.5446 258.891 49.7029 258.55 49.9467C258.208 50.1905 257.93 50.5127 257.739 50.8862C257.715 50.9425 257.674 50.9904 257.623 51.0242C257.572 51.0579 257.511 51.0759 257.45 51.076Z" fill="#1F2937"/>
<path d="M268.696 49.4308C268.641 49.4324 268.586 49.42 268.537 49.3947C268.488 49.3694 268.446 49.332 268.416 49.2861C268.175 48.9229 267.855 48.6198 267.478 48.4003C267.102 48.1808 266.68 48.0509 266.246 48.0205C266.166 48.0074 266.092 47.966 266.04 47.9039C265.987 47.8418 265.958 47.763 265.958 47.6815C265.958 47.6001 265.987 47.5212 266.04 47.4591C266.092 47.397 266.166 47.3557 266.246 47.3425C266.788 47.373 267.315 47.5294 267.786 47.7993C268.257 48.0692 268.658 48.4452 268.958 48.8974C268.984 48.9335 269.002 48.9744 269.012 49.0176C269.022 49.0609 269.023 49.1057 269.016 49.1495C269.008 49.1933 268.992 49.2351 268.968 49.2725C268.944 49.3099 268.913 49.3422 268.877 49.3675C268.825 49.4079 268.761 49.4301 268.696 49.4308Z" fill="#1F2937"/>
<path d="M236.794 82.4989C234.986 83.9725 233.078 85.6087 231.261 87.2088C229.444 88.8089 227.591 90.4542 225.837 92.1356C222.348 95.3653 219.08 98.8264 216.056 102.495L215.025 103.833L214.899 104.005C214.926 103.965 214.95 103.922 214.971 103.879C215.026 103.777 215.071 103.671 215.107 103.562C215.176 103.38 215.212 103.187 215.215 102.993C215.215 102.685 215.161 102.685 215.215 102.83C215.255 103.108 215.334 103.379 215.45 103.634C215.815 104.488 216.269 105.3 216.806 106.057C217.429 106.971 218.099 107.852 218.813 108.697C220.269 110.505 221.896 112.232 223.604 113.94C225.313 115.649 227.121 117.375 228.848 118.957L228.965 119.057C229.727 119.741 230.202 120.688 230.294 121.708C230.387 122.727 230.091 123.745 229.466 124.555C228.84 125.366 227.932 125.91 226.922 126.079C225.912 126.248 224.875 126.029 224.02 125.466C219.486 122.592 215.246 119.276 211.364 115.567C210.379 114.582 209.412 113.551 208.462 112.412C207.436 111.178 206.528 109.849 205.75 108.444C205.279 107.58 204.895 106.671 204.602 105.732C204.209 104.467 204.068 103.137 204.186 101.817C204.26 100.991 204.449 100.178 204.747 99.4038C204.903 99.0026 205.087 98.6129 205.298 98.2376L205.624 97.7042L205.768 97.4873L206.944 95.7426C210.076 91.3693 213.562 87.2604 217.367 83.4572C219.175 81.5769 221.073 79.7418 222.999 77.9699C224.924 76.1981 226.832 74.4895 228.956 72.7538C230.262 71.9806 231.801 71.7022 233.295 71.9694C234.789 72.2365 236.137 73.0315 237.093 74.2093C238.05 75.3872 238.551 76.8695 238.506 78.3861C238.461 79.9028 237.873 81.3528 236.848 82.4718L236.794 82.4989Z" fill="#00694E"/>
<path opacity="0.2" d="M236.794 82.4989C234.986 83.9725 233.078 85.6087 231.261 87.2088C229.444 88.8089 227.591 90.4542 225.837 92.1356C222.348 95.3653 219.08 98.8264 216.056 102.495L215.025 103.833L214.899 104.005C214.926 103.965 214.95 103.922 214.971 103.879C215.026 103.777 215.071 103.671 215.107 103.562C215.176 103.38 215.212 103.187 215.215 102.993C215.215 102.685 215.161 102.685 215.215 102.83C215.255 103.108 215.334 103.379 215.45 103.634C215.815 104.488 216.269 105.3 216.806 106.057C217.429 106.971 218.099 107.852 218.813 108.697C220.269 110.505 221.896 112.232 223.604 113.94C225.313 115.649 227.121 117.375 228.848 118.957L228.965 119.057C229.727 119.741 230.202 120.688 230.294 121.708C230.387 122.727 230.091 123.745 229.466 124.555C228.84 125.366 227.932 125.91 226.922 126.079C225.912 126.248 224.875 126.029 224.02 125.466C219.486 122.592 215.246 119.276 211.364 115.567C210.379 114.582 209.412 113.551 208.462 112.412C207.436 111.178 206.528 109.849 205.75 108.444C205.279 107.58 204.895 106.671 204.602 105.732C204.209 104.467 204.068 103.137 204.186 101.817C204.26 100.991 204.449 100.178 204.747 99.4038C204.903 99.0026 205.087 98.6129 205.298 98.2376L205.624 97.7042L205.768 97.4873L206.944 95.7426C210.076 91.3693 213.562 87.2604 217.367 83.4572C219.175 81.5769 221.073 79.7418 222.999 77.9699C224.924 76.1981 226.832 74.4895 228.956 72.7538C230.262 71.9806 231.801 71.7022 233.295 71.9694C234.789 72.2365 236.137 73.0315 237.093 74.2093C238.05 75.3872 238.551 76.8695 238.506 78.3861C238.461 79.9028 237.873 81.3528 236.848 82.4718L236.794 82.4989Z" fill="#111827"/>
<path d="M230.222 120.449L236.369 124.21L228.513 128.684C228.513 128.684 223.288 124.779 225.521 122.257L228.143 120.449C228.452 120.248 228.813 120.141 229.182 120.141C229.551 120.141 229.912 120.248 230.222 120.449Z" fill="#FFBE9D"/>
<path d="M236.703 131.08L233.322 133.069C233.088 133.208 232.829 133.3 232.559 133.337C232.289 133.374 232.014 133.357 231.751 133.286C231.488 133.215 231.242 133.092 231.027 132.925C230.813 132.757 230.634 132.548 230.502 132.31L228.513 128.694L236.369 124.219L237.634 128.739C237.76 129.177 237.737 129.645 237.568 130.068C237.4 130.492 237.096 130.848 236.703 131.08Z" fill="#FFBE9D"/>
<path d="M295.508 67.2396L303.834 65.6033C301.547 69.6352 304.91 73.4953 307.929 75.918C309.367 77.0751 308.354 79.1453 306.121 79.534L300.697 80.6007C294.152 81.9205 295.508 67.2396 295.508 67.2396Z" fill="#756E65"/>
<path d="M292.2 67.8815L311.292 64.1841C314.274 63.5898 316.898 61.8392 318.592 59.3151C320.286 56.7909 320.912 53.6986 320.332 50.7145C319.734 47.7356 317.982 45.1139 315.459 43.4207C312.936 41.7274 309.846 41.0998 306.863 41.6745L287.779 45.417C284.8 46.0178 282.178 47.7712 280.485 50.2956C278.792 52.82 278.164 55.911 278.739 58.8957C279.348 61.8639 281.103 64.4722 283.623 66.1545C286.143 67.8368 289.225 68.4574 292.2 67.8815Z" fill="#756E65"/>
<path opacity="0.3" d="M292.2 67.8815L311.292 64.1841C314.274 63.5898 316.898 61.8392 318.592 59.3151C320.286 56.7909 320.912 53.6986 320.332 50.7145C319.734 47.7356 317.982 45.1139 315.459 43.4207C312.936 41.7274 309.846 41.0998 306.863 41.6745L287.779 45.417C284.8 46.0178 282.178 47.7712 280.485 50.2956C278.792 52.82 278.164 55.911 278.739 58.8957C279.348 61.8639 281.103 64.4722 283.623 66.1545C286.143 67.8368 289.225 68.4574 292.2 67.8815Z" fill="white"/>
<path d="M344.162 71.7777L311.618 71.3438C308.797 71.8952 301.674 35.3736 304.458 34.8222L334.417 22.1662L344.162 71.7777Z" fill="#756E65"/>
<path d="M336.695 47.4691C339.407 61.1737 342.724 72.0579 344.162 71.7776C345.599 71.4974 344.587 60.1522 341.893 46.4656C339.199 32.7791 335.863 21.8768 334.426 22.1571C332.988 22.4373 334.01 33.7554 336.695 47.4691Z" fill="#756E65"/>
<path opacity="0.3" d="M336.695 47.4691C339.407 61.1737 342.724 72.0579 344.162 71.7776C345.599 71.4974 344.587 60.1522 341.893 46.4656C339.199 32.7791 335.863 21.8768 334.426 22.1571C332.988 22.4373 334.01 33.7554 336.695 47.4691Z" fill="#111827"/>
<path d="M348.944 45.7787C348.284 42.4249 340.808 41.0598 339.226 41.3762C337.644 41.6926 336.875 44.6578 337.526 48.0116C338.177 51.3655 340.012 53.8243 341.603 53.517C343.194 53.2096 349.577 49.1235 348.944 45.7787Z" fill="#756E65"/>
<path d="M399.284 37.0773L356.94 43.928L357.095 44.8829L399.439 38.0322L399.284 37.0773Z" fill="#756E65"/>
<path d="M370.311 18.7949L352.948 33.5982L353.576 34.3343L370.939 19.531L370.311 18.7949Z" fill="#756E65"/>
<path d="M378.907 64.5748L378.585 65.4869L384.953 67.7344L385.275 66.8223L378.907 64.5748Z" fill="#756E65"/>
<path d="M355.834 56.7147L355.527 57.6318L371.64 63.0358L371.947 62.1187L355.834 56.7147Z" fill="#756E65"/>
</svg>
