<svg width="20" height="20" viewBox="0 0 20 20" fill="none" xmlns="http://www.w3.org/2000/svg">
<path d="M19.5997 9.3999C19.5997 9.87729 19.4101 10.3351 19.0725 10.6727C18.7349 11.0103 18.2771 11.1999 17.7997 11.1999C17.3223 11.1999 16.8645 11.0103 16.5269 10.6727C16.1894 10.3351 15.9997 9.87729 15.9997 9.3999V2.1999C15.9997 1.72251 16.1894 1.26468 16.5269 0.927111C16.8645 0.589545 17.3223 0.399903 17.7997 0.399903C18.2771 0.399903 18.7349 0.589545 19.0725 0.927111C19.4101 1.26468 19.5997 1.72251 19.5997 2.1999V9.3999ZM14.7997 9.6003V3.0843C14.8 2.63843 14.6761 2.20129 14.4419 1.82189C14.2077 1.44249 13.8724 1.13583 13.4737 0.936303L13.4137 0.906303C12.7468 0.572963 12.0113 0.399581 11.2657 0.399903H4.76771C4.21268 0.399683 3.67472 0.591845 3.24544 0.94367C2.81616 1.2955 2.5221 1.78523 2.41331 2.3295L0.973309 9.5295C0.903701 9.87776 0.912249 10.2371 0.998335 10.5817C1.08442 10.9262 1.2459 11.2474 1.47113 11.522C1.69635 11.7965 1.97971 12.0177 2.30077 12.1695C2.62182 12.3214 2.97257 12.4 3.32771 12.3999H7.59971V17.1999C7.59971 17.8364 7.85257 18.4469 8.30265 18.897C8.75274 19.347 9.36319 19.5999 9.99971 19.5999C10.318 19.5999 10.6232 19.4735 10.8482 19.2484C11.0733 19.0234 11.1997 18.7182 11.1997 18.3999V17.5995C11.1997 16.5609 11.5366 15.5504 12.1597 14.7195L13.8397 12.4803C14.4629 11.6494 14.7997 10.6389 14.7997 9.6003V9.6003Z" fill="#000000"/>
</svg>
