<svg width="454" height="427" viewBox="0 0 454 427" fill="none" xmlns="http://www.w3.org/2000/svg">
<path d="M248.234 337.75H144.084V418.08H248.234V337.75Z" fill="#E5E7EB"/>
<path d="M222.144 417.52C222.004 417.52 221.884 399.61 221.884 377.52C221.884 355.43 222.004 337.52 222.144 337.52C222.284 337.52 222.404 355.43 222.404 377.52C222.404 399.61 222.284 417.52 222.144 417.52Z" fill="#D1D5DB"/>
<path d="M239.404 399.8H231.424V408.83H239.404V399.8Z" fill="white"/>
<path d="M187.694 337.96H175.864V355.1H187.694V337.96Z" fill="#D1D5DB"/>
<path d="M187.694 400.7H175.864V417.84H187.694V400.7Z" fill="#D1D5DB"/>
<path d="M437.224 317.61H305.894V418.9H437.224V317.61Z" fill="#E5E7EB"/>
<path d="M404.314 418.18C404.174 418.18 404.054 395.61 404.054 367.76C404.054 339.91 404.174 317.34 404.314 317.34C404.454 317.34 404.574 339.91 404.574 367.76C404.574 395.61 404.464 418.18 404.314 418.18Z" fill="#D1D5DB"/>
<path d="M426.084 395.84H416.014V407.22H426.084V395.84Z" fill="white"/>
<path d="M360.874 317.87H345.954V339.48H360.874V317.87Z" fill="#D1D5DB"/>
<path d="M360.874 396.98H345.954V418.59H360.874V396.98Z" fill="#D1D5DB"/>
<path d="M58.5339 320.59C63.8539 317.85 70.1139 317.49 76.0139 318.47C79.1839 318.99 82.4839 319.94 84.6439 322.32C86.8039 324.7 87.2039 328.89 84.7339 330.94C83.2539 332.16 81.2039 332.34 79.2839 332.32C74.6639 332.26 69.5439 331.45 65.8539 334.23C63.7439 335.82 62.3439 338.45 59.8539 339.23C57.3639 340.01 54.6139 338.54 53.3139 336.32C52.1112 334.005 51.8462 331.315 52.5739 328.81C52.8683 327.074 53.5593 325.429 54.5929 324.003C55.6266 322.578 56.9753 321.41 58.5339 320.59Z" fill="#E5E7EB"/>
<path d="M46.3539 297.08C49.6039 301.72 55.9239 300.19 58.8539 297.35C61.7839 294.51 63.0239 290.41 64.1439 286.5C66.7239 277.55 69.3139 268.16 67.4039 259.05C66.944 256.287 65.7292 253.706 63.8939 251.59C62.9647 250.551 61.7801 249.773 60.4576 249.333C59.135 248.892 57.7204 248.805 56.3539 249.08C53.1639 249.92 51.1839 253.08 49.7539 256.01C45.5377 264.769 43.3307 274.359 43.2939 284.08C43.2939 288.61 43.8039 293.35 46.3539 297.08Z" fill="#E5E7EB"/>
<path d="M37.4339 303.74C40.9639 299.55 41.6339 293.45 40.0639 288.2C38.4939 282.95 34.9439 278.49 30.8539 274.84C26.0435 270.561 20.446 267.26 14.3739 265.12C12.0205 264.169 9.48919 263.739 6.9539 263.86C5.68916 263.932 4.46126 264.313 3.37716 264.968C2.29305 265.623 1.38561 266.534 0.733896 267.62C-1.0061 270.93 0.663896 274.94 2.4639 278.22C5.6337 283.991 9.25147 289.505 13.2839 294.71C16.5339 298.89 20.2839 303.02 25.1939 304.91C30.1039 306.8 35.2839 306.58 37.9039 303.15" fill="#E5E7EB"/>
<path d="M46.1339 367.1C46.3075 366.413 46.4081 365.709 46.4339 365C46.5839 363.46 46.7639 361.53 46.9939 359.24C47.2805 356.407 47.7111 353.59 48.2839 350.8C49.0353 347.389 50.062 344.045 51.3539 340.8C52.621 337.577 54.3344 334.547 56.4439 331.8C58.1685 329.566 60.3638 327.74 62.8739 326.45C64.581 325.609 66.4101 325.042 68.2939 324.77C69.003 324.742 69.7071 324.638 70.3939 324.46C69.686 324.382 68.9718 324.382 68.2639 324.46C66.3077 324.608 64.3939 325.105 62.6139 325.93C59.9632 327.18 57.6389 329.029 55.8239 331.33C53.6161 334.113 51.8364 337.211 50.5439 340.52C49.2535 343.804 48.2498 347.193 47.5439 350.65C46.9999 353.475 46.6225 356.33 46.4139 359.2C46.2339 361.65 46.1639 363.63 46.1339 365C46.0602 365.698 46.0602 366.402 46.1339 367.1Z" fill="#D1D5DB"/>
<path d="M46.5339 362.68C46.5932 362.35 46.6134 362.014 46.5939 361.68C46.5939 360.94 46.5939 360.01 46.5939 358.88C46.5939 356.45 46.5939 352.93 46.7139 348.59C46.9339 339.91 47.7139 330.59 49.1239 317.4C50.4939 305.01 52.3239 290.6 54.2639 281.23C54.6739 279.1 55.0939 277.18 55.4939 275.5C55.8939 273.82 56.1839 272.36 56.4939 271.19C56.8039 270.02 56.9739 269.19 57.1539 268.47C57.2517 268.145 57.3088 267.809 57.3239 267.47C57.1732 267.762 57.0591 268.071 56.9839 268.39C56.7639 269.1 56.4939 269.98 56.1639 271.07C55.8339 272.16 55.4339 273.68 55.0139 275.35C54.5939 277.02 54.1139 278.94 53.6639 281.07C51.2616 292.152 49.4557 303.355 48.2539 314.63C46.8139 327.83 46.1639 339.85 46.1039 348.55C46.1039 352.9 46.1039 356.43 46.2539 358.86C46.3239 359.99 46.3839 360.92 46.4239 361.65C46.419 361.996 46.4559 362.342 46.5339 362.68Z" fill="#D1D5DB"/>
<path d="M46.5939 339.5C46.6701 338.525 46.6701 337.545 46.5939 336.57C46.4839 334.69 46.2239 331.98 45.6939 328.65C45.0398 324.757 44.1651 320.904 43.0739 317.11C41.8127 312.441 40.1981 307.874 38.2439 303.45C34.8981 295.298 30.0965 287.823 24.0739 281.39C23.0289 280.285 21.9132 279.25 20.7339 278.29C20.2239 277.85 19.7339 277.42 19.3139 277.08L18.0739 276.19C17.2956 275.596 16.4695 275.068 15.6039 274.61C15.4639 274.8 19.0939 276.94 23.6739 281.81C29.4997 288.303 34.1735 295.743 37.4939 303.81C39.4144 308.205 41.0348 312.726 42.3439 317.34C43.4435 321.099 44.3547 324.91 45.0739 328.76C45.6739 332.05 46.0739 334.76 46.2339 336.6C46.2767 337.575 46.397 338.544 46.5939 339.5Z" fill="#D1D5DB"/>
<path d="M22.6339 376.86L24.9539 408.69H65.8439L68.1639 376.86H22.6339Z" fill="#E5E7EB"/>
<path d="M73.0339 364.32H18.6839V376.86H73.0339V364.32Z" fill="#E5E7EB"/>
<path d="M18.6839 407.47V410.94H21.2439H72.1439V407.47H18.6839Z" fill="#D1D5DB"/>
<path d="M23.7439 416.68L21.2439 410.56H70.1939L67.2739 416.68H23.7439Z" fill="#D1D5DB"/>
<path d="M67.4039 387.26C67.3528 387.367 67.289 387.468 67.2139 387.56C67.0539 387.77 66.8439 388.04 66.6039 388.37L64.2239 391.37L64.1139 391.51L64.0139 391.37L58.1639 383.28H58.4939L52.7339 391.43L52.5539 391.69L52.3539 391.45L45.5239 383.32H45.9139L45.5439 383.8L39.4339 391.45L39.2239 391.71L39.0439 391.44L33.2739 383.29H33.6139L26.5139 391.37L26.3939 391.52L26.2939 391.35L24.0739 387.67C23.8339 387.27 23.6539 386.94 23.5039 386.67C23.4285 386.558 23.368 386.437 23.3239 386.31C23.4175 386.406 23.4981 386.513 23.5639 386.63L24.1939 387.58L26.5239 391.25H26.3039L33.3039 383.07L33.4739 382.86L33.6339 383.08L39.4539 391.2H39.0739L45.1639 383.53C45.2939 383.37 45.4239 383.21 45.5339 383.06L45.7339 382.81L45.9339 383.05L52.7439 391.2H52.3639L58.1839 383.09L58.3539 382.85L58.5139 383.09C60.8239 386.38 62.7839 389.17 64.2439 391.27H64.0339L66.5139 388.27C66.7839 387.96 67.0039 387.71 67.1739 387.5C67.2446 387.414 67.3215 387.334 67.4039 387.26Z" fill="#F9FAFB"/>
<path d="M68.7339 376.65C68.7339 376.79 58.4839 376.91 45.8539 376.91C33.2239 376.91 22.9739 376.79 22.9739 376.65C22.9739 376.51 33.2139 376.4 45.8539 376.4C58.4939 376.4 68.7339 376.51 68.7339 376.65Z" fill="#F9FAFB"/>
<path d="M355.496 15.8011L347.116 15.8465L347.342 57.5459L355.721 57.5005L355.496 15.8011Z" fill="#D1D5DB"/>
<path d="M296.218 15.9121L274.518 16.0295L274.642 39.0492L296.342 38.9318L296.218 15.9121Z" fill="#E5E7EB"/>
<path d="M317.817 15.7953L296.117 15.9127L296.241 38.9324L317.941 38.8149L317.817 15.7953Z" fill="#F9FAFB"/>
<path d="M274.544 22.4C288.971 22.52 303.404 22.4533 317.844 22.2C317.905 22.2 317.963 22.1758 318.007 22.1326C318.05 22.0895 318.074 22.031 318.074 21.97C318.074 21.909 318.05 21.8505 318.007 21.8074C317.963 21.7642 317.905 21.74 317.844 21.74C303.424 21.66 288.964 21.74 274.544 22.01C274.5 22.0201 274.46 22.0448 274.432 22.0803C274.404 22.1157 274.388 22.1597 274.388 22.205C274.388 22.2503 274.404 22.2943 274.432 22.3297C274.46 22.3651 274.5 22.3899 274.544 22.4Z" fill="#D1D5DB"/>
<path d="M300.42 38.5491L260.991 38.7625L261.092 57.5222L300.522 57.3088L300.42 38.5491Z" fill="#E5E7EB"/>
<path d="M339.659 38.3368L300.229 38.5502L300.331 57.3099L339.76 57.0966L339.659 38.3368Z" fill="#F9FAFB"/>
<path d="M261.014 44C287.204 44.29 313.484 44 339.684 43.61C339.745 43.61 339.803 43.5858 339.846 43.5426C339.89 43.4995 339.914 43.441 339.914 43.38C339.914 43.319 339.89 43.2605 339.846 43.2174C339.803 43.1742 339.745 43.15 339.684 43.15C313.494 43.01 287.204 43.02 261.014 43.6C260.961 43.6 260.91 43.6211 260.872 43.6586C260.835 43.6961 260.814 43.747 260.814 43.8C260.814 43.853 260.835 43.9039 260.872 43.9414C260.91 43.9789 260.961 44 261.014 44Z" fill="#D1D5DB"/>
<path d="M399.024 57.54H246.264V64.26H399.024V57.54Z" fill="#D1D5DB"/>
<path d="M277.474 60.77H271.274V83.7H277.474V60.77Z" fill="#D1D5DB"/>
<path d="M370.044 60.77H363.844V83.7H370.044V60.77Z" fill="#D1D5DB"/>
<path d="M363.672 0.246896L355.292 0.292236L355.602 57.6414L363.982 57.5961L363.672 0.246896Z" fill="#E5E7EB"/>
<path d="M376.759 10.9261L363.74 10.9965L363.991 57.4758L377.011 57.4054L376.759 10.9261Z" fill="#F9FAFB"/>
<path d="M376.674 19.9C372.346 20.2057 368.002 20.2057 363.674 19.9C368.002 19.6076 372.345 19.6076 376.674 19.9Z" fill="#D1D5DB"/>
<path d="M376.674 18C374.511 18.2189 372.336 18.2924 370.164 18.22C367.991 18.292 365.817 18.2185 363.654 18C367.982 17.6943 372.326 17.6943 376.654 18H376.674Z" fill="#D1D5DB"/>
<path d="M376.674 50.43C372.346 50.7357 368.002 50.7357 363.674 50.43C368.002 50.1376 372.345 50.1376 376.674 50.43Z" fill="#D1D5DB"/>
<path d="M376.674 48.48C372.345 48.7724 368.002 48.7724 363.674 48.48C368.002 48.1743 372.346 48.1743 376.674 48.48Z" fill="#D1D5DB"/>
<path d="M370.374 44.22C370.254 44.22 370.154 39.53 370.154 33.75C370.154 27.97 370.254 23.27 370.374 23.27C370.494 23.27 370.604 27.96 370.604 33.75C370.604 39.54 370.504 44.22 370.374 44.22Z" fill="#D1D5DB"/>
<path d="M390.994 22.36H376.824V57.44H390.994V22.36Z" fill="#E5E7EB"/>
<path d="M359.354 12.47C360.685 12.47 361.764 11.391 361.764 10.06C361.764 8.72899 360.685 7.64999 359.354 7.64999C358.023 7.64999 356.944 8.72899 356.944 10.06C356.944 11.391 358.023 12.47 359.354 12.47Z" fill="#D1D5DB"/>
<path d="M360.104 16.69H358.614V50.81H360.104V16.69Z" fill="#D1D5DB"/>
<path d="M441.734 418.35C441.734 418.5 345.614 418.61 227.084 418.61C108.554 418.61 12.4139 418.5 12.4139 418.35C12.4139 418.2 108.514 418.09 227.084 418.09C345.654 418.09 441.734 418.21 441.734 418.35Z" fill="#1F2937"/>
<path d="M126.284 51.35C131 57.1211 133.553 64.3573 133.504 71.81C133.454 76.03 132.674 80.68 135.134 84.11C136.994 86.71 140.394 88.02 141.904 90.84C143.724 94.23 142.174 98.52 143.294 102.2C144.874 107.42 150.994 109.61 154.624 113.68C156.171 115.48 157.254 117.631 157.777 119.947C158.3 122.262 158.247 124.67 157.624 126.96C156.963 129.241 155.767 131.33 154.135 133.056C152.504 134.781 150.484 136.092 148.244 136.88C145.852 137.823 143.184 137.78 140.824 136.76C138.374 135.54 136.824 133.03 135.624 130.58C133.214 125.76 112.044 99.71 110.844 94.45" fill="#1F2937"/>
<path d="M110.884 45.21C102.224 43.81 93.8839 49.56 90.2539 57.54C86.6239 65.52 86.5039 74.54 86.2539 83.34C86.0039 92.14 85.3639 101.26 80.8939 108.8C78.0539 113.59 73.6539 117.8 72.9639 123.31C72.3439 128.25 74.9039 133.23 74.0539 138.14C73.3139 142.42 70.0539 146.14 70.1839 150.47C70.3439 155.69 75.7139 159.62 80.9239 159.76C86.1339 159.9 91.0139 157.17 95.1039 153.93C101.768 148.639 107.1 141.862 110.674 134.14" fill="#1F2937"/>
<path d="M96.6339 65.85C96.3619 63.6716 96.5302 61.4608 97.129 59.3487C97.7278 57.2366 98.7447 55.2663 100.12 53.5548C101.494 51.8433 103.199 50.4254 105.132 49.3853C107.066 48.3452 109.188 47.7041 111.374 47.5C120.104 46.66 127.874 53.17 129.184 61.85C130.334 69.46 131.314 77.14 131.284 79.93C131.174 88.34 126.284 91.61 124.284 92.6C123.564 92.8582 122.821 93.0425 122.064 93.15V93.21L123.924 102.87C124.774 109.2 121.244 114.87 114.924 115.76C108.604 116.65 103.634 111.82 102.664 105.49L96.6339 65.85Z" fill="#FFBE9D"/>
<path d="M127.464 65.53C127.324 65.73 126.214 65.14 124.794 65.35C123.374 65.56 122.424 66.42 122.244 66.27C122.064 66.12 122.244 65.87 122.684 65.47C123.231 64.9373 123.93 64.5878 124.684 64.47C125.424 64.3559 126.181 64.4821 126.844 64.83C127.344 65.15 127.534 65.45 127.464 65.53Z" fill="#1F2937"/>
<path d="M114.804 68.61C114.664 68.81 113.554 68.21 112.124 68.42C110.694 68.63 109.764 69.5 109.584 69.35C109.404 69.2 109.584 68.94 110.024 68.55C110.571 68.0173 111.27 67.6678 112.024 67.55C112.765 67.4445 113.52 67.5739 114.184 67.92C114.674 68.23 114.874 68.52 114.804 68.61Z" fill="#1F2937"/>
<path d="M119.994 76.24C120.709 75.8959 121.465 75.6439 122.244 75.49C122.604 75.4 122.934 75.28 122.964 75.02C122.932 74.6547 122.792 74.3069 122.564 74.02L121.074 71.36C119.004 67.64 117.454 64.56 117.604 64.47C117.754 64.38 119.604 67.35 121.604 71.07C122.114 71.99 122.604 72.87 123.044 73.7C123.334 74.1067 123.476 74.6012 123.444 75.1C123.411 75.2365 123.347 75.3634 123.257 75.471C123.166 75.5785 123.053 75.6638 122.924 75.72C122.729 75.8053 122.524 75.8658 122.314 75.9C121.559 76.114 120.779 76.2283 119.994 76.24Z" fill="#1F2937"/>
<path d="M121.984 93.16C121.984 93.16 116.554 94.41 109.074 91.28C109.074 91.28 112.304 98.23 122.494 95.76L121.984 93.16Z" fill="#EB996E"/>
<path d="M114.074 64.88C113.994 65.29 112.544 65.31 110.904 65.76C109.264 66.21 107.974 66.85 107.704 66.54C107.584 66.39 107.764 65.99 108.254 65.54C108.914 64.9757 109.693 64.569 110.534 64.3506C111.374 64.1323 112.253 64.1082 113.104 64.28C113.764 64.43 114.074 64.69 114.074 64.88Z" fill="#1F2937"/>
<path d="M126.294 62.38C126.094 62.74 125.064 62.55 123.884 62.7C122.704 62.85 121.734 63.24 121.454 62.93C121.334 62.78 121.454 62.44 121.834 62.07C122.358 61.6051 123.016 61.3181 123.714 61.25C124.403 61.167 125.1 61.2961 125.714 61.62C126.194 61.89 126.384 62.2 126.294 62.38Z" fill="#1F2937"/>
<path d="M111.714 70.45C111.736 70.6048 111.788 70.7536 111.868 70.8879C111.948 71.0222 112.054 71.1392 112.18 71.2323C112.305 71.3253 112.448 71.3925 112.6 71.4298C112.752 71.4672 112.909 71.4741 113.064 71.45C113.214 71.4327 113.359 71.3857 113.491 71.3118C113.623 71.2379 113.739 71.1384 113.832 71.0193C113.925 70.9002 113.993 70.7638 114.033 70.618C114.073 70.4722 114.083 70.3199 114.064 70.17C114.017 69.8586 113.849 69.5785 113.596 69.3911C113.342 69.2037 113.025 69.1242 112.714 69.17C112.563 69.186 112.417 69.2321 112.285 69.3056C112.152 69.3792 112.036 69.4786 111.943 69.598C111.849 69.7175 111.781 69.8544 111.742 70.0008C111.702 70.1472 111.693 70.2999 111.714 70.45Z" fill="#1F2937"/>
<path d="M124.324 67.72C124.371 68.0314 124.539 68.3115 124.792 68.4989C125.045 68.6864 125.362 68.7659 125.674 68.72C125.824 68.7027 125.969 68.6558 126.101 68.5818C126.233 68.5079 126.349 68.4085 126.442 68.2893C126.535 68.1702 126.603 68.0338 126.643 67.888C126.683 67.7422 126.693 67.5899 126.674 67.44C126.627 67.1286 126.459 66.8485 126.205 66.6611C125.952 66.4737 125.635 66.3942 125.324 66.44C125.173 66.456 125.027 66.5021 124.895 66.5757C124.762 66.6492 124.646 66.7486 124.553 66.8681C124.459 66.9875 124.391 67.1244 124.352 67.2708C124.312 67.4172 124.303 67.5699 124.324 67.72Z" fill="#1F2937"/>
<path d="M122.234 79C121.841 78.8779 121.418 78.897 121.038 79.0541C120.659 79.2112 120.346 79.4963 120.154 79.86C119.971 80.194 119.896 80.5768 119.941 80.955C119.986 81.3333 120.148 81.6881 120.404 81.97C120.676 82.2377 121.035 82.3998 121.416 82.4273C121.797 82.4548 122.176 82.3459 122.484 82.12C122.87 81.7688 123.103 81.2808 123.134 80.76C123.202 80.2826 123.088 79.7971 122.814 79.4C122.673 79.2059 122.473 79.0635 122.243 78.9948C122.014 78.9261 121.768 78.935 121.544 79.02" fill="#EB996E"/>
<path d="M128.074 55C127.289 51.8317 125.33 49.0796 122.594 47.3C120.354 45.6822 117.693 44.7478 114.934 44.61C112.157 44.4905 109.446 45.4756 107.394 47.35C105.938 48.7934 105.105 50.7499 105.074 52.8L105.234 51.4C104.814 52.5392 104.814 53.7909 105.234 54.93C105.464 55.54 105.744 56.16 105.984 56.77C106.7 58.5328 108.028 59.978 109.724 60.84C110.492 61.252 111.352 61.462 112.224 61.45C112.66 61.4412 113.089 61.3374 113.481 61.1457C113.874 60.954 114.219 60.679 114.494 60.34C115.115 59.256 115.307 57.9789 115.034 56.76C115.69 57.9645 116.626 58.9935 117.764 59.76C118.345 60.1312 119.035 60.291 119.72 60.2127C120.405 60.1344 121.042 59.8227 121.524 59.33C122.344 58.33 122.024 56.75 121.524 55.51C122.298 56.6796 123.381 57.611 124.654 58.2C124.989 58.3921 125.36 58.5127 125.744 58.554C126.128 58.5953 126.516 58.5565 126.884 58.44C127.178 58.2941 127.435 58.0833 127.636 57.8234C127.837 57.5636 127.977 57.2615 128.044 56.94C128.192 56.3029 128.203 55.6414 128.074 55Z" fill="#1F2937"/>
<path d="M120.844 57.66C120.754 57.66 120.774 56.47 120.384 54.66C119.934 52.2549 118.725 50.0573 116.934 48.39C115.95 47.4949 114.762 46.8531 113.474 46.52C112.419 46.2611 111.32 46.2338 110.254 46.44C109.271 46.6698 108.332 47.0582 107.474 47.59C107.474 47.59 107.644 47.34 108.084 47.02C108.715 46.5783 109.424 46.2594 110.174 46.08C111.295 45.8175 112.462 45.8175 113.584 46.08C114.966 46.425 116.238 47.1129 117.284 48.08C119.159 49.816 120.384 52.1416 120.754 54.67C120.873 55.4175 120.933 56.1731 120.934 56.93C120.946 57.1767 120.916 57.4237 120.844 57.66Z" fill="#4B5563"/>
<path d="M212.944 174.25L174.494 159C174.494 159 154.804 133.17 155.214 132.67L141.384 147.81L161.484 175L208.074 185.92L216.074 183.7C214.314 175.21 212.944 174.25 212.944 174.25Z" fill="#FFBE9D"/>
<path d="M129.144 100.56L123.904 98.56L101.284 101.43V105.43L100.634 105.51C95.7579 106.547 91.0811 108.363 86.7839 110.89C82.7586 113.347 79.5603 116.952 77.6001 121.242C75.6399 125.531 75.0074 130.308 75.7839 134.96C76.7039 140.68 78.4839 147.63 81.9239 151.65C88.4939 159.34 94.4939 149.84 94.4939 149.84C94.4939 149.84 98.6139 159.24 98.3739 163.69C98.1739 167.42 96.5339 175.18 96.0039 177.6C95.9821 177.697 95.9803 177.797 95.9985 177.894C96.0167 177.992 96.0545 178.084 96.1097 178.167C96.1649 178.249 96.2363 178.319 96.3196 178.373C96.4028 178.427 96.4962 178.463 96.5939 178.48L144.314 187.31L144.544 175.64L143.024 127.64L140.874 109C140.874 109 140.944 100.1 129.144 100.56Z" fill="#00694E"/>
<path d="M140.144 105.9L158.344 132.19L143.694 150.03L140.144 105.9Z" fill="#00694E"/>
<path d="M144.074 161.22C144.009 160.656 143.985 160.088 144.004 159.52C144.004 158.34 144.004 156.79 143.944 154.9C143.855 149.827 143.492 144.763 142.854 139.73C142.104 133.83 140.954 128.56 140.084 124.73L139.024 120.23C138.87 119.686 138.757 119.131 138.684 118.57C138.911 119.09 139.092 119.628 139.224 120.18C139.534 121.18 139.954 122.75 140.434 124.65C141.725 129.584 142.707 134.594 143.374 139.65C144.017 144.704 144.331 149.795 144.314 154.89C144.314 156.89 144.264 158.43 144.204 159.52C144.209 160.089 144.166 160.658 144.074 161.22Z" fill="#1F2937"/>
<path d="M99.2739 121.25C99.2739 121.33 97.8939 121.32 95.6839 121.43C92.8003 121.586 89.9323 121.957 87.1039 122.54C84.2762 123.133 81.4955 123.932 78.7839 124.93C76.7039 125.7 75.4539 126.27 75.4139 126.19C75.6702 125.989 75.9528 125.824 76.2539 125.7C76.8039 125.4 77.6239 125.02 78.6539 124.59C84.0499 122.362 89.8167 121.168 95.6539 121.07C96.7739 121.07 97.6539 121.07 98.3039 121.13C98.6315 121.119 98.9587 121.16 99.2739 121.25Z" fill="white"/>
<path d="M141.424 133.28C140.693 133.546 139.929 133.714 139.154 133.78C135.456 134.32 131.71 134.447 127.984 134.16C127.206 134.147 126.433 134.032 125.684 133.82C126.456 133.751 127.232 133.751 128.004 133.82C129.424 133.82 131.394 133.82 133.564 133.82C135.734 133.82 137.694 133.6 139.114 133.47C139.877 133.337 140.65 133.273 141.424 133.28Z" fill="white"/>
<path d="M149.774 121.39C148.672 122.664 147.351 123.73 145.874 124.54C144.48 125.483 142.924 126.161 141.284 126.54C141.224 126.4 143.284 125.54 145.604 124.06C147.924 122.58 149.674 121.27 149.774 121.39Z" fill="white"/>
<path d="M142.424 109.2C139.269 112.038 135.249 113.729 131.014 114C131.014 113.84 133.764 113.42 136.924 112.07C140.084 110.72 142.324 109.07 142.424 109.2Z" fill="white"/>
<path d="M143.414 153.64C143.12 153.838 142.804 154.002 142.474 154.13C141.844 154.43 140.934 154.8 139.774 155.23C136.76 156.313 133.649 157.103 130.484 157.59C127.319 158.079 124.114 158.256 120.914 158.12C119.684 158.07 118.694 157.98 118.014 157.89C117.658 157.866 117.306 157.803 116.964 157.7C116.964 157.61 118.484 157.7 120.964 157.76C127.322 157.819 133.647 156.847 139.694 154.88C141.974 154.13 143.384 153.56 143.414 153.64Z" fill="white"/>
<path d="M143.784 167.19C143.784 167.19 143.644 167.29 143.354 167.44L142.074 168C140.974 168.52 139.344 169.2 137.304 170C135.264 170.8 132.794 171.57 130.014 172.33C123.97 173.957 117.767 174.92 111.514 175.2C108.634 175.31 106.044 175.3 103.864 175.2C101.684 175.1 99.9339 174.94 98.7239 174.77L97.3339 174.58C97.1702 174.568 97.0087 174.534 96.8539 174.48C97.0162 174.454 97.1816 174.454 97.3439 174.48L98.7439 174.57C99.9539 174.67 101.744 174.77 103.874 174.83C106.004 174.89 108.634 174.83 111.494 174.73C114.354 174.63 117.494 174.27 120.764 173.73C124.034 173.19 127.114 172.54 129.894 171.84C132.674 171.14 135.134 170.35 137.174 169.62C139.214 168.89 140.874 168.28 141.994 167.82L143.294 167.31C143.453 167.253 143.617 167.213 143.784 167.19Z" fill="white"/>
<path d="M56.0739 379.78L50.6639 404.21L40.7939 422.3C40.626 422.609 40.5234 422.949 40.4922 423.299C40.461 423.649 40.5019 424.002 40.6125 424.336C40.7231 424.669 40.901 424.977 41.1352 425.239C41.3693 425.501 41.6548 425.713 41.9739 425.86C42.3443 426.03 42.7501 426.109 43.1573 426.09C43.5644 426.07 43.961 425.954 44.3139 425.75C48.8939 423.11 65.7039 413.28 65.9939 411.47C66.3439 409.38 73.4139 386.08 73.4139 386.08L56.0739 379.78Z" fill="#00694E"/>
<g opacity="0.6">
<path opacity="0.6" d="M41.9739 425.86L66.4039 409.86L66.1439 410.86C65.9301 411.752 65.4054 412.539 64.6639 413.08C62.6639 414.51 57.0939 418.35 44.3939 425.77C44.0293 425.984 43.6175 426.104 43.1952 426.119C42.7729 426.135 42.3533 426.046 41.9739 425.86Z" fill="white"/>
</g>
<g opacity="0.6">
<path opacity="0.6" d="M63.3339 400.77C62.981 400.917 62.695 401.189 62.5307 401.535C62.3665 401.88 62.3355 402.273 62.4439 402.64C62.5774 402.997 62.8425 403.289 63.1847 403.456C63.5269 403.624 63.9203 403.654 64.2839 403.54C64.6616 403.384 64.9674 403.092 65.1413 402.722C65.3152 402.352 65.3447 401.931 65.2239 401.54C65.0468 401.186 64.7409 400.913 64.369 400.777C63.9972 400.642 63.5874 400.653 63.2239 400.81" fill="white"/>
</g>
<path d="M50.1339 416.6C49.7304 415.701 49.1643 414.884 48.4639 414.19C47.6572 413.628 46.7512 413.224 45.7939 413C45.7939 412.93 46.1439 412.82 46.7339 412.88C47.5016 412.979 48.2242 413.299 48.8139 413.8C49.4081 414.282 49.8465 414.929 50.0739 415.66C50.2439 416.23 50.1939 416.6 50.1339 416.6Z" fill="#1F2937"/>
<path d="M47.6039 419.43C47.4639 419.51 46.8739 418.53 45.7039 417.86C44.9575 417.513 44.1892 417.216 43.4039 416.97C43.8356 416.829 44.2948 416.792 44.7434 416.863C45.1921 416.935 45.6173 417.112 45.9839 417.38C47.3139 418.15 47.7439 419.4 47.6039 419.43Z" fill="#1F2937"/>
<path d="M54.3739 413.22C53.5235 412.276 52.6007 411.4 51.6139 410.6C50.5267 409.937 49.39 409.359 48.2139 408.87C49.5664 408.843 50.8847 409.296 51.9339 410.15C53.0907 410.846 53.9572 411.936 54.3739 413.22Z" fill="#1F2937"/>
<path d="M56.6439 405.93C56.5439 406.06 55.3339 405.17 53.6439 404.68C51.9539 404.19 50.4239 404.27 50.4139 404.1C51.5269 403.812 52.6971 403.83 53.8008 404.152C54.9045 404.474 55.9006 405.088 56.6839 405.93H56.6439Z" fill="#1F2937"/>
<path d="M58.4139 398.8C57.4384 398.197 56.3854 397.729 55.2839 397.41C54.1491 397.256 52.9987 397.256 51.8639 397.41C51.8639 397.35 52.1739 397.11 52.8139 396.92C53.6552 396.692 54.5382 396.663 55.3925 396.837C56.2467 397.01 57.0486 397.381 57.7339 397.92C58.2439 398.4 58.4539 398.76 58.4139 398.8Z" fill="#1F2937"/>
<path d="M55.6539 396.06C55.6546 395.743 55.7228 395.429 55.8539 395.14C56.1372 394.314 56.5864 393.556 57.1739 392.91C57.5582 392.399 58.0989 392.026 58.7139 391.85C58.9233 391.816 59.1381 391.845 59.3307 391.934C59.5232 392.023 59.6846 392.168 59.7939 392.35C59.9777 392.723 60.0169 393.15 59.9039 393.55C59.6475 394.352 59.1202 395.04 58.4124 395.496C57.7046 395.952 56.8602 396.148 56.0239 396.05C55.1992 395.933 54.4277 395.574 53.8066 395.018C53.1855 394.463 52.7427 393.736 52.5339 392.93C52.4859 392.725 52.4815 392.512 52.5212 392.306C52.5608 392.099 52.6435 391.903 52.7639 391.73C52.9021 391.569 53.088 391.456 53.2948 391.407C53.5015 391.359 53.7184 391.377 53.9139 391.46C54.4791 391.742 54.9615 392.166 55.3139 392.69C55.8439 393.384 56.2468 394.166 56.5039 395C56.6257 395.298 56.6836 395.618 56.6739 395.94C56.2708 394.862 55.7078 393.851 55.0039 392.94C54.6761 392.513 54.251 392.17 53.7639 391.94C53.6568 391.894 53.5375 391.883 53.4239 391.91C53.3103 391.937 53.2086 392 53.1339 392.09C53.064 392.208 53.0191 392.339 53.0019 392.475C52.9847 392.611 52.9956 392.749 53.0339 392.88C53.2425 393.559 53.6385 394.165 54.1763 394.628C54.7141 395.092 55.3719 395.394 56.0739 395.5C56.7812 395.582 57.4955 395.422 58.1002 395.046C58.705 394.67 59.1645 394.101 59.4039 393.43C59.5008 393.158 59.5008 392.862 59.4039 392.59C59.3472 392.488 59.2598 392.405 59.1539 392.355C59.0481 392.305 58.9292 392.289 58.8139 392.31C58.2927 392.453 57.8283 392.754 57.4839 393.17C56.7168 394.024 56.0982 395.001 55.6539 396.06Z" fill="#1F2937"/>
<g opacity="0.3">
<path opacity="0.3" d="M55.4139 382.43L54.2439 388.03L71.9339 390.97L73.4139 386.08L56.0439 379.78L55.4139 382.43Z" fill="#111827"/>
</g>
<path d="M135.074 388.82L133.614 408.34C133.614 408.34 152.974 416.34 153.054 420.02L115.054 418.55L116.054 388.03L135.074 388.82Z" fill="#00694E"/>
<g opacity="0.6">
<path opacity="0.6" d="M121.964 406.24C121.595 406.339 121.275 406.57 121.065 406.888C120.855 407.207 120.769 407.592 120.824 407.97C120.908 408.342 121.131 408.668 121.446 408.881C121.762 409.095 122.147 409.18 122.524 409.12C122.916 409.016 123.256 408.77 123.477 408.431C123.699 408.091 123.787 407.681 123.724 407.28C123.598 406.9 123.329 406.584 122.975 406.398C122.621 406.211 122.208 406.169 121.824 406.28" fill="white"/>
</g>
<g opacity="0.6">
<path opacity="0.6" d="M115.074 418.55L115.294 415.47L151.644 418C151.644 418 153.314 418.8 153.074 420L115.074 418.55Z" fill="white"/>
</g>
<path d="M134.254 408.17C134.254 408.36 133.314 408.41 132.384 408.97C131.454 409.53 130.934 410.29 130.764 410.21C130.594 410.13 130.914 409.07 132.054 408.41C133.194 407.75 134.304 408 134.254 408.17Z" fill="#1F2937"/>
<path d="M138.174 410C138.174 410.19 137.394 410.47 136.734 411.23C136.074 411.99 135.864 412.81 135.674 412.8C135.484 412.79 135.414 411.73 136.254 410.8C137.094 409.87 138.174 409.8 138.174 410Z" fill="#1F2937"/>
<path d="M140.254 414.83C140.084 414.83 139.864 413.92 140.374 412.93C140.884 411.94 141.774 411.56 141.844 411.72C141.914 411.88 141.364 412.4 140.954 413.22C140.544 414.04 140.434 414.82 140.254 414.83Z" fill="#1F2937"/>
<path d="M134.074 403.69C133.994 403.85 133.154 403.56 132.074 403.59C130.994 403.62 130.194 403.92 130.074 403.76C129.954 403.6 130.794 402.97 132.074 402.95C133.354 402.93 134.194 403.55 134.074 403.69Z" fill="#1F2937"/>
<g opacity="0.3">
<path opacity="0.3" d="M134.804 392.69L134.544 396.17L115.894 395.27L116.024 391.25L134.804 392.69Z" fill="#111827"/>
</g>
<path d="M134.324 399.74C133.696 399.892 133.037 399.864 132.424 399.66C131.731 399.516 131.059 399.284 130.424 398.97C130.054 398.788 129.696 398.581 129.354 398.35C129.145 398.222 128.956 398.063 128.794 397.88C128.684 397.737 128.624 397.561 128.624 397.38C128.624 397.199 128.684 397.023 128.794 396.88C128.891 396.754 129.017 396.652 129.162 396.584C129.306 396.516 129.464 396.484 129.624 396.49C129.865 396.5 130.103 396.54 130.334 396.61C130.734 396.727 131.122 396.881 131.494 397.07C132.125 397.379 132.703 397.787 133.204 398.28C134.054 399.13 134.324 399.84 134.264 399.87C134.204 399.9 133.774 399.33 132.904 398.62C132.393 398.221 131.836 397.885 131.244 397.62C130.891 397.474 130.531 397.347 130.164 397.24C129.764 397.12 129.424 397.11 129.314 397.24C129.204 397.37 129.314 397.34 129.314 397.46C129.434 397.592 129.572 397.707 129.724 397.8C130.045 398.023 130.379 398.227 130.724 398.41C131.301 398.728 131.907 398.989 132.534 399.19C133.143 399.331 133.741 399.514 134.324 399.74Z" fill="#1F2937"/>
<path d="M134.074 400C133.742 399.439 133.591 398.79 133.644 398.14C133.648 397.436 133.763 396.738 133.984 396.07C134.127 395.679 134.305 395.301 134.514 394.94C134.626 394.693 134.8 394.478 135.019 394.317C135.238 394.156 135.494 394.054 135.764 394.02C135.935 394.031 136.099 394.091 136.237 394.191C136.375 394.292 136.481 394.431 136.544 394.59C136.631 394.814 136.685 395.05 136.704 395.29C136.77 395.714 136.77 396.146 136.704 396.57C136.57 397.277 136.265 397.94 135.814 398.5C135.034 399.5 134.254 399.65 134.234 399.59C134.214 399.53 134.834 399.16 135.444 398.23C135.794 397.7 136.023 397.099 136.114 396.47C136.165 396.105 136.165 395.735 136.114 395.37C136.064 394.97 135.924 394.63 135.774 394.67C135.624 394.71 135.254 394.95 135.084 395.27C134.889 395.59 134.718 395.924 134.574 396.27C134.342 396.874 134.194 397.506 134.134 398.15C134.004 399.27 134.174 400 134.074 400Z" fill="#1F2937"/>
<path d="M95.7939 178.3C95.7939 178.3 89.7939 178.57 85.7939 199.09C81.7939 219.61 51.3039 385.88 51.3039 385.88L73.4139 386.08L115.074 228L112.304 391L134.764 392.72C134.764 392.72 151.614 212.43 151.764 201.94C151.964 188.86 144.454 175.63 144.454 175.63L95.7939 178.3Z" fill="#1F2937"/>
<path d="M126.184 176.55C126.324 176.55 124.024 188.3 121.054 202.73C118.084 217.16 115.564 228.84 115.424 228.81C115.284 228.78 117.574 217.06 120.544 202.63C123.514 188.2 126.074 176.52 126.184 176.55Z" fill="#4B5563"/>
<path d="M129.624 179.48C129.624 179.42 130.224 179.24 130.914 179.85C131.11 180.028 131.265 180.246 131.369 180.489C131.472 180.733 131.522 180.996 131.514 181.26C131.489 181.594 131.369 181.915 131.169 182.184C130.969 182.453 130.697 182.66 130.384 182.78C130.079 182.919 129.74 182.969 129.408 182.924C129.076 182.88 128.762 182.744 128.504 182.53C128.311 182.349 128.158 182.128 128.056 181.883C127.954 181.639 127.906 181.375 127.914 181.11C127.914 180.19 128.534 179.87 128.544 179.93C128.375 180.297 128.287 180.696 128.284 181.1C128.297 181.303 128.351 181.501 128.442 181.683C128.533 181.865 128.66 182.027 128.814 182.16C129.011 182.296 129.24 182.38 129.478 182.405C129.716 182.43 129.957 182.394 130.178 182.302C130.399 182.209 130.593 182.062 130.743 181.875C130.892 181.688 130.992 181.466 131.034 181.23C131.049 181.027 131.023 180.824 130.957 180.632C130.892 180.439 130.789 180.262 130.654 180.11C130.164 179.54 129.614 179.56 129.624 179.48Z" fill="#4B5563"/>
<path d="M128.674 187.6C128.674 187.54 129.294 187.6 129.674 188.43C129.771 188.667 129.814 188.922 129.802 189.178C129.79 189.433 129.722 189.683 129.604 189.91C129.432 190.18 129.19 190.397 128.903 190.539C128.617 190.682 128.297 190.743 127.979 190.718C127.66 190.692 127.354 190.58 127.094 190.394C126.835 190.207 126.63 189.954 126.504 189.66C126.424 189.419 126.398 189.163 126.427 188.911C126.457 188.659 126.541 188.416 126.674 188.2C127.144 187.45 127.784 187.47 127.764 187.53C127.744 187.59 127.284 187.73 126.994 188.37C126.847 188.729 126.847 189.131 126.994 189.49C127.098 189.688 127.251 189.857 127.438 189.981C127.626 190.104 127.841 190.178 128.064 190.196C128.288 190.214 128.512 190.176 128.717 190.083C128.921 189.991 129.099 189.849 129.234 189.67C129.422 189.328 129.469 188.926 129.364 188.55C129.074 187.87 128.624 187.67 128.674 187.6Z" fill="#4B5563"/>
<path d="M107.484 179.68C107.443 180.024 107.355 180.36 107.224 180.68C106.912 181.596 106.52 182.482 106.054 183.33C104.528 186.159 102.324 188.565 99.6403 190.333C96.9561 192.101 93.8753 193.175 90.6739 193.46C89.7124 193.544 88.7454 193.544 87.7839 193.46C87.4451 193.449 87.1091 193.396 86.7839 193.3C86.7839 193.2 88.2939 193.37 90.6839 193.07C93.7988 192.692 96.7836 191.597 99.4037 189.87C102.024 188.144 104.208 185.833 105.784 183.12C106.954 181.1 107.394 179.65 107.484 179.68Z" fill="#4B5563"/>
<path d="M150.504 194.27C150.504 194.27 150.244 194.15 149.834 193.87C149.261 193.458 148.726 192.996 148.234 192.49C146.589 190.825 145.306 188.839 144.465 186.655C143.623 184.472 143.242 182.138 143.344 179.8C143.367 179.096 143.457 178.396 143.614 177.71C143.724 177.22 143.794 176.96 143.834 176.97C143.874 176.98 143.714 178.06 143.714 179.81C143.716 184.404 145.422 188.833 148.504 192.24C149.674 193.53 150.554 194.19 150.504 194.27Z" fill="#4B5563"/>
<path d="M228.074 194.85C228.404 194.05 228.314 194.37 223.014 190.85C223.014 190.85 230.614 195.85 229.824 193.47C229.14 192.569 228.304 191.793 227.354 191.18C229.354 192.36 230.514 192.49 230.864 192.01C231.464 191.18 227.114 188.01 225.044 186.58C226.936 187.934 228.921 189.154 230.984 190.23C232.214 190.61 231.624 189.17 230.794 188.12C229.964 187.07 223.524 180.87 221.794 179.02C221.629 178.879 221.497 178.704 221.406 178.508C221.316 178.311 221.269 178.097 221.269 177.88C221.269 177.663 221.316 177.449 221.406 177.252C221.497 177.056 221.629 176.881 221.794 176.74C224.894 174.74 226.254 171.55 226.214 170.5C226.179 170.264 226.071 170.044 225.904 169.873C225.737 169.702 225.52 169.589 225.285 169.549C225.049 169.509 224.807 169.544 224.593 169.651C224.379 169.757 224.204 169.928 224.094 170.14C223.311 171.113 222.399 171.974 221.384 172.7C220.596 173.314 219.71 173.791 218.764 174.11C217.664 174.47 212.254 174.17 211.094 173.58L207.404 186.09C207.404 186.09 220.794 192.35 223.334 193.57C226.454 195.05 227.844 195.46 228.074 194.85Z" fill="#FFBE9D"/>
<path d="M220.604 189C220.494 189.15 222.234 190.42 224.484 191.85C226.734 193.28 228.624 194.31 228.714 194.16C228.804 194.01 227.064 192.73 224.824 191.31C222.584 189.89 220.704 188.81 220.604 189Z" fill="#EB996E"/>
<path d="M221.864 186.55C221.764 186.7 223.544 188.16 225.864 189.82C228.184 191.48 230.104 192.71 230.204 192.57C230.304 192.43 228.534 190.96 226.204 189.3C223.874 187.64 221.974 186.41 221.864 186.55Z" fill="#EB996E"/>
<path d="M223.194 184.07C223.094 184.21 224.754 185.63 226.904 187.23C229.054 188.83 230.904 190.01 230.984 189.87C231.064 189.73 229.434 188.31 227.284 186.71C225.134 185.11 223.304 183.93 223.194 184.07Z" fill="#EB996E"/>
<path d="M87.0039 138.76L96.8239 139.3C97.5195 142.041 98.4496 144.718 99.6039 147.3C107.514 133.58 113.604 115.19 115.164 107.8C114.944 107.073 114.674 106.253 114.354 105.34C114.114 103.959 114.155 102.545 114.474 101.18C114.744 99.54 115.204 97.32 115.334 96.3C115.764 93.18 116.264 92.68 117.334 93.04C118.814 93.52 116.724 101.81 117.934 101.99C118.594 102.08 119.384 99.24 119.624 96.91C119.864 94.58 120.904 87.42 121.674 86.91C122.804 86.21 123.784 87.32 123.504 89.64C123.224 91.96 122.854 98.99 124.084 99.08C125.314 99.17 126.314 87.29 126.314 87.29C126.314 87.29 126.124 84.71 127.544 84.77C130.114 84.88 128.114 97.41 127.894 98.6C127.734 99.42 129.074 99.6 129.194 98.68C129.314 97.76 129.934 86.79 132.544 86.88C134.544 86.95 130.994 97.2 132.124 99.58C133.254 101.96 134.034 91.51 135.954 91.65C136.664 91.71 137.194 91.85 135.884 97.76C134.605 102.46 133.073 107.086 131.294 111.62C128.294 128.02 114.904 180.48 93.9839 170.88C82.2839 165.51 76.8139 138.88 76.8139 138.88L87.0039 138.76Z" fill="#FFBE9D"/>
<path d="M131.314 111.71C131.331 111.586 131.365 111.465 131.414 111.35C131.504 111.09 131.614 110.75 131.764 110.35C132.094 109.4 132.544 108.08 133.134 106.35C133.724 104.62 134.434 102.52 135.134 100.04C135.494 98.81 135.794 97.47 136.064 96.04C136.204 95.32 136.334 94.58 136.424 93.82C136.449 93.4438 136.449 93.0663 136.424 92.69C136.424 92.3 136.334 91.98 136.024 91.97C135.714 91.96 135.494 92.15 135.274 92.48C135.075 92.8331 134.911 93.2049 134.784 93.59C134.504 94.38 134.284 95.22 134.064 96.07C133.844 96.92 133.644 97.81 133.384 98.71C133.271 99.203 133.067 99.6708 132.784 100.09C132.713 100.172 132.619 100.231 132.514 100.26C132.448 100.275 132.379 100.274 132.314 100.258C132.248 100.243 132.186 100.213 132.134 100.17C132.019 100.065 131.924 99.9393 131.854 99.8C131.748 99.5544 131.678 99.2952 131.644 99.03C131.598 97.013 131.8 94.998 132.244 93.03C132.414 92.03 132.594 91.03 132.724 90.03C132.784 89.52 132.844 89.03 132.854 88.49C132.864 87.95 132.784 87.38 132.574 87.29C132.364 87.2 131.854 87.48 131.574 87.9C131.297 88.3436 131.079 88.8209 130.924 89.32C130.583 90.3646 130.325 91.4346 130.154 92.52C129.964 93.62 129.814 94.74 129.684 95.88C129.634 96.45 129.574 97.02 129.524 97.6L129.444 98.47C129.455 98.6558 129.424 98.8417 129.355 99.0145C129.286 99.1873 129.18 99.3428 129.044 99.47C128.873 99.5952 128.666 99.6626 128.454 99.6626C128.242 99.6626 128.035 99.5952 127.864 99.47C127.767 99.4059 127.685 99.322 127.623 99.2237C127.561 99.1254 127.52 99.0151 127.504 98.9C127.489 98.7939 127.489 98.6861 127.504 98.58V98.37L127.774 96.62C127.944 95.44 128.084 94.26 128.194 93.06C128.304 91.86 128.394 90.65 128.414 89.44C128.472 88.242 128.351 87.042 128.054 85.88C127.985 85.5851 127.806 85.3276 127.554 85.16C127.433 85.1213 127.304 85.1217 127.183 85.1612C127.063 85.2007 126.958 85.2773 126.884 85.38C126.56 85.972 126.427 86.6496 126.504 87.32C126.284 89.67 126.034 91.98 125.694 94.25C125.524 95.38 125.334 96.51 125.054 97.62C124.974 97.89 124.894 98.17 124.794 98.45C124.699 98.7894 124.499 99.0902 124.224 99.31C124.102 99.3698 123.964 99.3866 123.831 99.3575C123.698 99.3285 123.58 99.2553 123.494 99.15C123.372 99.0218 123.28 98.8681 123.224 98.7C123.116 98.4226 123.039 98.1342 122.994 97.84C122.76 95.6639 122.739 93.47 122.934 91.29C123.082 90.2737 123.139 89.2464 123.104 88.22C123.072 87.7819 122.871 87.3734 122.544 87.08C122.467 87.0323 122.381 87.0006 122.292 86.9868C122.203 86.9731 122.111 86.9776 122.024 87C121.93 87.0315 121.84 87.0717 121.754 87.12C121.664 87.2 121.674 87.12 121.614 87.29C121.252 88.1893 120.987 89.1246 120.824 90.08C120.624 91.08 120.454 91.99 120.304 92.93C120.154 93.87 120.014 94.79 119.894 95.71C119.774 96.63 119.714 97.53 119.534 98.43C119.378 99.3093 119.144 100.173 118.834 101.01C118.751 101.223 118.655 101.43 118.544 101.63C118.404 101.82 118.324 102.06 117.944 102.18C117.847 102.198 117.746 102.186 117.656 102.147C117.565 102.108 117.488 102.043 117.434 101.96C117.364 101.845 117.31 101.72 117.274 101.59C117.229 101.373 117.202 101.152 117.194 100.93C117.194 99.22 117.424 97.66 117.514 96.15C117.579 95.4281 117.579 94.7019 117.514 93.98C117.514 93.66 117.364 93.28 117.184 93.21C117.058 93.1482 116.919 93.1161 116.779 93.1161C116.638 93.1161 116.5 93.1482 116.374 93.21C115.954 93.6608 115.694 94.237 115.634 94.85C115.484 95.46 115.424 96.08 115.314 96.67C114.894 99.03 114.454 101.07 114.244 102.73C114.145 103.46 114.145 104.2 114.244 104.93C114.384 105.53 114.594 106.07 114.704 106.49C114.814 106.91 114.924 107.21 114.994 107.49C115.031 107.597 115.058 107.708 115.074 107.82C115.014 107.723 114.967 107.619 114.934 107.51L114.594 106.51C114.454 106.08 114.244 105.6 114.074 104.94C113.967 104.19 113.967 103.43 114.074 102.68C114.264 100.99 114.664 98.97 115.074 96.6C115.184 96.01 115.244 95.39 115.374 94.75C115.446 94.412 115.536 94.0781 115.644 93.75C115.744 93.3863 115.962 93.0661 116.264 92.84C116.446 92.7437 116.648 92.6933 116.854 92.6933C117.06 92.6933 117.262 92.7437 117.444 92.84C117.639 92.9633 117.8 93.1346 117.91 93.3378C118.021 93.5409 118.077 93.7689 118.074 94C118.144 94.7517 118.144 95.5083 118.074 96.26C118.004 97.78 117.764 99.37 117.804 100.99C117.811 101.182 117.835 101.372 117.874 101.56C117.874 101.75 118.014 101.83 117.994 101.79C117.974 101.75 118.184 101.63 118.264 101.47C118.362 101.293 118.449 101.109 118.524 100.92C118.82 100.109 119.038 99.2722 119.174 98.42C119.344 97.55 119.404 96.65 119.524 95.72C119.644 94.79 119.764 93.87 119.914 92.92C120.064 91.97 120.234 91.02 120.424 90.05C120.587 89.037 120.868 88.0468 121.264 87.1C121.344 86.9412 121.465 86.8066 121.614 86.71C121.747 86.6371 121.888 86.5801 122.034 86.54C122.202 86.4921 122.378 86.4806 122.55 86.5065C122.723 86.5324 122.888 86.595 123.034 86.69C123.266 86.8743 123.458 87.1043 123.597 87.3658C123.736 87.6273 123.82 87.9146 123.844 88.21C123.919 88.7541 123.919 89.3059 123.844 89.85C123.794 90.36 123.744 90.85 123.714 91.41C123.519 93.5399 123.539 95.6841 123.774 97.81C123.817 98.0625 123.884 98.3103 123.974 98.55C124.004 98.6468 124.055 98.7356 124.124 98.81C124.124 98.81 124.124 98.81 124.174 98.81C124.174 99.04 124.174 98.81 124.174 98.9C124.174 98.99 124.174 98.9 124.174 98.82C124.299 98.6529 124.396 98.4673 124.464 98.27C124.557 98.0233 124.637 97.7633 124.704 97.49C124.974 96.43 125.154 95.31 125.324 94.19C125.664 91.94 125.914 89.63 126.124 87.29V87.34C126.035 86.5157 126.214 85.6847 126.634 84.97C126.794 84.7657 127.014 84.6165 127.263 84.543C127.513 84.4695 127.778 84.4755 128.024 84.56C128.234 84.6764 128.418 84.8337 128.566 85.0227C128.713 85.2117 128.822 85.4284 128.884 85.66C129.204 86.8897 129.336 88.1608 129.274 89.43C129.274 90.67 129.164 91.89 129.054 93.1C128.944 94.31 128.794 95.5 128.624 96.68C128.534 97.28 128.444 97.86 128.354 98.45C128.274 98.82 128.294 98.83 128.354 98.94C128.423 98.9869 128.505 99.0119 128.589 99.0119C128.673 99.0119 128.754 98.9869 128.824 98.94C128.944 98.85 128.964 98.68 128.994 98.35L129.064 97.48L129.244 95.75C129.364 94.61 129.524 93.47 129.714 92.36C129.899 91.2451 130.166 90.1454 130.514 89.07C130.695 88.5264 130.94 88.0062 131.244 87.52C131.409 87.2579 131.627 87.0332 131.884 86.86C132.026 86.7568 132.192 86.6894 132.366 86.6633C132.54 86.6372 132.717 86.6532 132.884 86.71C133.037 86.8045 133.166 86.9331 133.262 87.0857C133.357 87.2383 133.416 87.4109 133.434 87.59C133.475 87.8714 133.492 88.1558 133.484 88.44C133.484 88.99 133.414 89.52 133.354 90.05C133.214 91.05 133.024 92.11 132.844 93.12C132.414 95.0196 132.206 96.9625 132.224 98.91C132.252 99.1191 132.306 99.324 132.384 99.52C132.42 99.591 132.464 99.658 132.514 99.72C132.514 99.72 132.514 99.72 132.514 99.65C132.738 99.2885 132.904 98.8936 133.004 98.48C133.264 97.61 133.474 96.73 133.704 95.87C133.91 95.0143 134.16 94.1699 134.454 93.34C134.592 92.929 134.773 92.5335 134.994 92.16C135.113 91.9564 135.269 91.7767 135.454 91.63C135.554 91.5428 135.674 91.4811 135.804 91.45C135.933 91.4298 136.065 91.4298 136.194 91.45C136.33 91.4636 136.461 91.5135 136.571 91.5943C136.682 91.6752 136.769 91.7842 136.824 91.91C136.907 92.1202 136.951 92.3439 136.954 92.57C136.962 92.9745 136.938 93.3791 136.884 93.78C136.794 94.56 136.644 95.3 136.504 96.03C136.214 97.46 135.894 98.82 135.504 100.03C134.754 102.51 134.004 104.61 133.394 106.32C132.784 108.03 132.264 109.32 131.914 110.24C131.744 110.66 131.604 110.99 131.504 111.24C131.459 111.404 131.395 111.561 131.314 111.71Z" fill="#EB996E"/>
<path d="M76.7239 139.89C78.6239 146.6 82.3439 156.95 86.3339 167.89C86.4596 168.242 86.6872 168.55 86.9877 168.773C87.2883 168.996 87.6482 169.124 88.022 169.143C88.3958 169.161 88.7666 169.068 89.0873 168.875C89.4081 168.682 89.6645 168.399 89.8239 168.06L99.6039 147.37C99.6039 147.37 97.2439 130.37 97.4439 130.98C97.6439 131.59 77.2639 133.18 77.2639 133.18L76.7239 139.89Z" fill="#00694E"/>
<path d="M98.7639 136.56C98.7639 136.64 97.5439 137 95.6139 137.74C93.0916 138.697 90.6616 139.882 88.3539 141.28C86.0493 142.684 83.8741 144.291 81.8539 146.08C80.3039 147.45 79.4139 148.39 79.3539 148.33C79.2939 148.27 79.5239 148.05 79.9039 147.6C80.4396 146.975 81.007 146.377 81.6039 145.81C83.575 143.912 85.748 142.235 88.0839 140.81C90.4205 139.402 92.9014 138.249 95.4839 137.37C96.2645 137.101 97.059 136.874 97.8639 136.69C98.155 136.599 98.4589 136.555 98.7639 136.56Z" fill="white"/>
<path d="M102.644 141.72C102.008 141.079 101.457 140.36 101.004 139.58C99.836 137.759 98.8321 135.838 98.0039 133.84C97.1751 131.836 96.5291 129.761 96.0739 127.64C95.8408 126.773 95.7232 125.878 95.7239 124.98C96.0221 125.818 96.2594 126.677 96.4339 127.55C96.9696 129.621 97.6376 131.655 98.4339 133.64C99.2658 135.615 100.221 137.535 101.294 139.39C101.793 140.137 102.244 140.915 102.644 141.72Z" fill="#1F2937"/>
<path d="M109.164 50.1C107.467 52.8962 106.416 56.0355 106.085 59.2894C105.755 62.5433 106.154 65.8299 107.254 68.91C108.254 71.66 109.854 74.37 109.564 77.29C109.274 80.21 106.994 83.1 107.794 85.98C108.274 87.69 109.734 88.98 110.304 90.64C110.954 92.64 110.304 94.75 109.954 96.8C109.154 102.04 110.834 107.31 111.244 112.59C111.654 117.87 110.244 124.06 105.524 126.36C104.094 127.06 102.224 127.26 101.034 126.19C99.5139 124.84 99.9339 122.4 100.354 120.4C104.494 100.4 91.7039 80.88 94.6239 60.64C95.0939 57.4 96.9039 51.9 99.2339 49.64C101.564 47.38 108.034 47.64 110.234 50.04" fill="#1F2937"/>
<path d="M89.4639 108.12C89.4639 108.12 90.0739 107.4 90.9739 105.98C92.2369 103.975 93.1215 101.755 93.5839 99.43C93.8856 97.8288 93.9897 96.1966 93.8939 94.57C93.719 92.6787 93.6489 90.7791 93.6839 88.88C93.7436 87.84 93.9351 86.8118 94.2539 85.82C94.6194 84.7984 95.0814 83.8139 95.6339 82.88C96.7539 80.99 98.1639 79.23 99.4639 77.35C100.799 75.5732 101.727 73.525 102.184 71.35C102.406 69.3013 102.287 67.2301 101.834 65.22C101.456 63.3518 101.308 61.4442 101.394 59.54C101.513 57.8767 101.849 56.2361 102.394 54.66C103.158 52.373 104.36 50.2569 105.934 48.43C106.352 47.9334 106.806 47.4687 107.294 47.04C107.448 46.8753 107.623 46.7309 107.814 46.61C107.814 46.61 107.144 47.26 106.084 48.61C103.559 51.7438 102.083 55.5917 101.864 59.61C101.797 61.4831 101.962 63.3573 102.354 65.19C102.831 67.2541 102.959 69.3835 102.734 71.49C102.26 73.7257 101.304 75.8312 99.9339 77.66C98.6239 79.57 97.2139 81.32 96.1139 83.16C95.5728 84.0592 95.1239 85.0107 94.7739 86C94.4576 86.9512 94.266 87.9395 94.2039 88.94C94.1597 90.8182 94.2131 92.6974 94.3639 94.57C94.4433 96.2294 94.3157 97.8922 93.9839 99.52C93.4828 101.876 92.5321 104.114 91.1839 106.11C90.8189 106.65 90.418 107.164 89.9839 107.65C89.8283 107.825 89.6539 107.983 89.4639 108.12Z" fill="#4B5563"/>
<path d="M79.9839 109.61C80.0644 109.377 80.1683 109.152 80.2939 108.94C80.5439 108.47 80.8639 107.85 81.2939 107.07C82.1339 105.44 83.3839 103.07 84.6139 100.07C86.1185 96.5662 86.9529 92.8113 87.0739 89C87.0744 87.9019 86.9909 86.8053 86.8239 85.72C86.6539 84.6 86.3939 83.47 86.2239 82.29C86.0159 81.0694 86.0431 79.8204 86.3039 78.61C86.6421 77.3673 87.3374 76.2512 88.3039 75.4C90.1839 73.69 92.4539 72.57 93.6339 70.56C94.6562 68.5669 95.2587 66.3853 95.4039 64.15C95.6155 62.1009 96.079 60.0857 96.7839 58.15C98.369 53.9945 101.193 50.4267 104.874 47.93C105.461 47.535 106.072 47.1776 106.704 46.86C106.917 46.7322 107.146 46.6314 107.384 46.56C107.384 46.56 106.484 47.04 104.994 48.1C102.894 49.5986 101.076 51.4573 99.6239 53.59C98.617 55.0519 97.7973 56.6343 97.1839 58.3C96.51 60.2402 96.0735 62.2549 95.8839 64.3C95.5839 66.43 95.3439 68.81 94.0639 70.92C92.7839 73.03 90.4439 74.23 88.6539 75.92C87.7417 76.7116 87.0841 77.7554 86.7639 78.92C86.5208 80.0651 86.497 81.246 86.6939 82.4C86.8539 83.55 87.1039 84.69 87.2739 85.82C87.4469 86.9314 87.5272 88.0553 87.5139 89.18C87.378 93.0611 86.4988 96.8802 84.9239 100.43C83.9009 102.829 82.739 105.166 81.4439 107.43L80.3839 109C80.2725 109.217 80.1384 109.421 79.9839 109.61Z" fill="#4B5563"/>
<path d="M410.844 392.18C410.89 392.034 410.95 391.894 411.024 391.76C411.164 391.46 411.354 391.06 411.584 390.55C412.28 388.988 412.838 387.369 413.254 385.71C414.354 381.41 414.744 374.84 413.114 367.04C412.229 362.786 411.07 358.594 409.644 354.49C408.184 350.04 406.474 345.32 405.084 340.21C403.514 334.88 402.756 329.345 402.834 323.79C403.044 317.98 404.764 312.19 406.654 306.41C408.544 300.63 410.494 295 411.074 289.3C411.719 283.834 410.62 278.304 407.934 273.5C405.434 268.89 402.284 264.94 399.934 260.86C397.734 257.069 396.113 252.97 395.124 248.7C393.705 242.517 393.599 236.106 394.814 229.88C395.256 227.602 395.926 225.374 396.814 223.23C396.787 223.38 396.747 223.527 396.694 223.67L396.294 224.94C395.954 226.06 395.504 227.74 395.074 229.94C393.956 236.138 394.123 242.499 395.564 248.63C396.567 252.848 398.195 256.893 400.394 260.63C402.744 264.63 405.904 268.63 408.464 273.26C411.215 278.161 412.346 283.807 411.694 289.39C411.104 295.17 409.144 300.86 407.254 306.63C405.364 312.4 403.664 318.13 403.454 323.84C403.364 329.34 404.106 334.822 405.654 340.1C407.024 345.18 408.704 349.9 410.154 354.37C411.566 358.497 412.702 362.712 413.554 366.99C415.144 374.85 414.694 381.49 413.554 385.8C413.108 387.462 412.509 389.079 411.764 390.63L411.144 391.82C411.058 391.951 410.957 392.072 410.844 392.18Z" fill="#1F2937"/>
<path d="M403.134 264.89C403.134 264.89 398.354 249.58 406.934 240.62C407 240.548 407.086 240.496 407.18 240.469C407.275 240.443 407.375 240.443 407.469 240.47C407.563 240.497 407.648 240.549 407.714 240.622C407.781 240.694 407.825 240.784 407.844 240.88C408.304 243.41 408.874 251.11 403.134 264.89Z" fill="#00694E"/>
<path d="M406.004 245.72C405.989 246.668 405.881 247.613 405.684 248.54C405.364 250.49 404.994 252.77 404.594 255.29C404.194 257.81 403.824 260.1 403.514 262.04C403.426 262.986 403.259 263.922 403.014 264.84C402.92 263.894 402.94 262.941 403.074 262C403.234 260.25 403.544 257.85 403.974 255.21C404.404 252.57 404.874 250.21 405.244 248.48C405.39 247.534 405.645 246.608 406.004 245.72Z" fill="#1F2937"/>
<path d="M408.754 301C408.754 301 411.684 285.23 423.464 281.33C423.557 281.298 423.657 281.292 423.753 281.313C423.849 281.334 423.937 281.382 424.008 281.45C424.078 281.519 424.128 281.605 424.152 281.701C424.176 281.796 424.173 281.896 424.144 281.99C423.364 284.42 420.274 291.49 408.754 301Z" fill="#00694E"/>
<path d="M420.254 285.38C419.797 286.213 419.261 287 418.654 287.73L414.524 293.18L410.424 298.65C409.908 299.444 409.322 300.19 408.674 300.88C409.039 300 409.509 299.167 410.074 298.4C411.074 296.93 412.434 294.95 414.074 292.82C415.714 290.69 417.204 288.82 418.334 287.46C418.895 286.698 419.539 286.001 420.254 285.38Z" fill="#1F2937"/>
<path d="M405.574 340.53C405.574 340.53 403.794 324.59 413.934 317.44C414.012 317.379 414.106 317.341 414.205 317.332C414.303 317.323 414.403 317.341 414.491 317.387C414.579 317.432 414.653 317.501 414.703 317.587C414.753 317.673 414.778 317.771 414.774 317.87C414.744 320.44 413.834 328.1 405.574 340.53Z" fill="#00694E"/>
<path d="M412.074 322.26C411.888 323.191 411.603 324.1 411.224 324.97L408.864 331.39C407.984 333.79 407.194 335.96 406.524 337.81C406.267 338.72 405.933 339.607 405.524 340.46C405.616 339.512 405.824 338.578 406.144 337.68C406.634 336 407.394 333.68 408.324 331.18C409.254 328.68 410.164 326.43 410.854 324.82C411.172 323.927 411.581 323.07 412.074 322.26Z" fill="#1F2937"/>
<path d="M414.444 380.31C414.444 380.31 413.244 364.31 423.624 357.53C423.705 357.474 423.8 357.442 423.899 357.437C423.997 357.432 424.095 357.455 424.181 357.503C424.267 357.551 424.339 357.622 424.387 357.708C424.435 357.794 424.458 357.891 424.454 357.99C424.334 360.56 423.154 368.19 414.444 380.31Z" fill="#00694E"/>
<path d="M421.564 362.29C421.34 363.214 421.022 364.112 420.614 364.97C419.874 366.79 418.994 368.97 418.024 371.3C417.054 373.63 416.204 375.8 415.464 377.63C415.168 378.533 414.789 379.406 414.334 380.24C414.467 379.294 414.712 378.368 415.064 377.48C415.614 375.82 416.454 373.54 417.474 371.07C418.494 368.6 419.474 366.38 420.224 364.8C420.58 363.918 421.029 363.077 421.564 362.29Z" fill="#1F2937"/>
<path d="M396.254 251.44C396.254 251.44 382.074 244 381.764 231.61C381.763 231.513 381.788 231.417 381.837 231.333C381.886 231.249 381.957 231.18 382.042 231.133C382.127 231.086 382.223 231.063 382.32 231.066C382.417 231.069 382.512 231.098 382.594 231.15C384.704 232.61 390.564 237.65 396.254 251.44Z" fill="#00694E"/>
<path d="M384.714 235.87C385.379 236.55 385.973 237.297 386.484 238.1C387.644 239.69 388.994 241.57 390.484 243.64L394.484 249.16C395.093 249.886 395.635 250.666 396.104 251.49C395.373 250.881 394.718 250.186 394.154 249.42C393.024 248.08 391.544 246.16 389.984 243.99C388.424 241.82 387.054 239.81 386.114 238.34C385.563 237.568 385.093 236.74 384.714 235.87Z" fill="#1F2937"/>
<path d="M411.524 284.31C411.524 284.31 396.884 277.76 395.854 265.39C395.846 265.293 395.864 265.195 395.908 265.108C395.951 265.021 396.018 264.947 396.101 264.895C396.184 264.844 396.279 264.816 396.377 264.815C396.474 264.814 396.57 264.84 396.654 264.89C398.844 266.22 404.994 270.88 411.524 284.31Z" fill="#00694E"/>
<path d="M399.074 269.47C399.779 270.105 400.416 270.812 400.974 271.58L405.314 276.87L409.664 282.14C410.315 282.83 410.904 283.576 411.424 284.37C410.657 283.804 409.958 283.149 409.344 282.42C408.144 281.14 406.544 279.32 404.854 277.25C403.164 275.18 401.684 273.25 400.644 271.84C400.034 271.11 399.508 270.316 399.074 269.47Z" fill="#1F2937"/>
<path d="M403.074 321C403.074 321 393.074 308.5 397.744 297C397.781 296.91 397.842 296.831 397.921 296.774C397.999 296.716 398.092 296.681 398.189 296.673C398.287 296.664 398.384 296.683 398.471 296.727C398.559 296.77 398.632 296.837 398.684 296.92C400.074 299.09 403.404 306.05 403.074 321Z" fill="#00694E"/>
<path d="M398.754 302.08C399.096 302.968 399.344 303.89 399.494 304.83C399.914 306.75 400.404 309.01 400.944 311.51C401.484 314.01 401.994 316.26 402.414 318.18C402.681 319.091 402.865 320.025 402.964 320.97C402.525 320.12 402.189 319.22 401.964 318.29C401.474 316.6 400.874 314.29 400.314 311.63C399.754 308.97 399.314 306.63 399.034 304.91C398.837 303.98 398.743 303.031 398.754 302.08Z" fill="#1F2937"/>
<path d="M413.074 364.11C413.074 364.11 398.544 357.32 397.724 344.94C397.714 344.841 397.732 344.742 397.776 344.653C397.82 344.564 397.889 344.489 397.973 344.437C398.057 344.385 398.155 344.358 398.254 344.358C398.353 344.359 398.45 344.387 398.534 344.44C400.684 345.81 406.754 350.58 413.074 364.11Z" fill="#00694E"/>
<path d="M400.844 349.06C401.531 349.716 402.154 350.436 402.704 351.21L406.954 356.56L411.214 361.91C411.854 362.61 412.43 363.366 412.934 364.17C412.189 363.586 411.518 362.915 410.934 362.17C409.744 360.87 408.184 359.02 406.524 356.92C404.864 354.82 403.424 352.87 402.404 351.44C401.793 350.71 401.269 349.911 400.844 349.06Z" fill="#1F2937"/>
<path d="M441.984 301.07C441.984 301.07 441.984 301.19 441.984 301.42C441.984 301.65 441.984 302.03 441.984 302.42C441.984 303.42 441.884 304.69 441.814 306.31C441.634 309.73 441.364 314.5 441.054 320.2C440.054 326 437.054 332.43 433.054 338.68C430.144 343.28 427.054 347.46 424.454 351.35C422.081 354.764 419.949 358.339 418.074 362.05C416.832 364.557 415.828 367.175 415.074 369.87C414.824 370.82 414.624 371.57 414.514 372.08C414.467 372.346 414.396 372.607 414.304 372.86C414.307 372.59 414.341 372.322 414.404 372.06C414.474 371.54 414.624 370.78 414.854 369.81C415.527 367.069 416.482 364.404 417.704 361.86C419.562 358.12 421.691 354.52 424.074 351.09C426.694 347.17 429.724 342.98 432.624 338.41C436.574 332.19 439.514 325.86 440.624 320.15C441.024 314.46 441.354 309.7 441.624 306.28C441.754 304.66 441.864 303.37 441.944 302.4C441.944 302 442.014 301.66 442.044 301.4C442.01 301.293 441.99 301.182 441.984 301.07Z" fill="#1F2937"/>
<path d="M433.334 337.53C433.334 337.53 439.484 322.73 431.754 313.02C431.694 312.942 431.613 312.882 431.522 312.848C431.43 312.813 431.33 312.804 431.233 312.823C431.137 312.842 431.047 312.887 430.975 312.953C430.903 313.02 430.85 313.105 430.824 313.2C430.134 315.68 428.864 323.29 433.334 337.53Z" fill="#00694E"/>
<path d="M432.214 318.19C432.479 319.103 432.643 320.041 432.704 320.99C432.924 322.73 433.164 325.14 433.354 327.81C433.544 330.48 433.634 332.9 433.634 334.66C433.694 335.61 433.637 336.564 433.464 337.5C433.291 336.567 433.207 335.619 433.214 334.67C433.084 332.67 432.924 330.4 432.754 327.85C432.584 325.3 432.424 322.99 432.284 321.03C432.167 320.088 432.144 319.137 432.214 318.19Z" fill="#1F2937"/>
<g opacity="0.3">
<path opacity="0.3" d="M433.334 337.53C433.334 337.53 439.484 322.73 431.754 313.02C431.694 312.942 431.613 312.882 431.522 312.848C431.43 312.813 431.33 312.804 431.233 312.823C431.137 312.842 431.047 312.887 430.975 312.953C430.903 313.02 430.85 313.105 430.824 313.2C430.134 315.68 428.864 323.29 433.334 337.53Z" fill="#111827"/>
</g>
<path d="M414.284 373.22C414.284 373.22 419.214 357.96 410.714 348.92C410.648 348.848 410.563 348.796 410.47 348.768C410.376 348.741 410.276 348.741 410.182 348.767C410.088 348.792 410.003 348.844 409.936 348.915C409.869 348.986 409.824 349.074 409.804 349.17C409.324 351.69 408.674 359.39 414.284 373.22Z" fill="#00694E"/>
<path d="M411.594 354C411.94 354.889 412.182 355.815 412.314 356.76C412.674 358.47 413.104 360.86 413.514 363.5C413.924 366.14 414.204 368.55 414.354 370.3C414.484 371.245 414.5 372.201 414.404 373.15C414.166 372.232 414.006 371.295 413.924 370.35C413.634 368.4 413.294 366.12 412.924 363.59C412.554 361.06 412.194 358.78 411.924 356.83C411.721 355.9 411.611 354.952 411.594 354Z" fill="#1F2937"/>
<g opacity="0.3">
<path opacity="0.3" d="M414.284 373.22C414.284 373.22 419.214 357.96 410.714 348.92C410.648 348.848 410.563 348.796 410.47 348.768C410.376 348.741 410.276 348.741 410.182 348.767C410.088 348.792 410.003 348.844 409.936 348.915C409.869 348.986 409.824 349.074 409.804 349.17C409.324 351.69 408.674 359.39 414.284 373.22Z" fill="#111827"/>
</g>
<path d="M441.174 319.44C441.174 319.44 454.304 310.24 452.984 297.9C452.974 297.803 452.937 297.711 452.878 297.633C452.818 297.556 452.739 297.496 452.648 297.461C452.557 297.426 452.458 297.417 452.362 297.434C452.266 297.451 452.177 297.495 452.104 297.56C450.194 299.28 445.074 305 441.174 319.44Z" fill="#00694E"/>
<g opacity="0.3">
<path opacity="0.3" d="M441.174 319.44C441.174 319.44 454.304 310.24 452.984 297.9C452.974 297.803 452.937 297.711 452.878 297.633C452.818 297.556 452.739 297.496 452.648 297.461C452.557 297.426 452.458 297.417 452.362 297.434C452.266 297.451 452.177 297.495 452.104 297.56C450.194 299.28 445.074 305 441.174 319.44Z" fill="#111827"/>
</g>
<path d="M450.604 302.51C450.343 303.426 449.977 304.308 449.514 305.14C448.764 306.72 447.674 308.88 446.404 311.24C445.134 313.6 443.914 315.69 442.974 317.17C442.511 318.001 441.951 318.773 441.304 319.47C441.655 318.59 442.09 317.746 442.604 316.95C443.544 315.22 444.654 313.2 445.874 310.95L449.134 304.95C449.543 304.091 450.036 303.274 450.604 302.51Z" fill="#1F2937"/>
<path d="M419.584 358.09C419.584 358.09 435.424 355.62 439.664 343.96C439.698 343.869 439.707 343.77 439.689 343.675C439.671 343.579 439.627 343.49 439.562 343.418C439.497 343.346 439.413 343.293 439.32 343.265C439.227 343.237 439.128 343.235 439.034 343.26C436.564 344 429.404 346.85 419.584 358.09Z" fill="#00694E"/>
<g opacity="0.3">
<path opacity="0.3" d="M419.584 358.09C419.584 358.09 435.424 355.62 439.664 343.96C439.698 343.869 439.707 343.77 439.689 343.675C439.671 343.579 439.627 343.49 439.562 343.418C439.497 343.346 439.413 343.293 439.32 343.265C439.227 343.237 439.128 343.235 439.034 343.26C436.564 344 429.404 346.85 419.584 358.09Z" fill="#111827"/>
</g>
<path d="M435.504 347.05C434.862 347.751 434.144 348.378 433.364 348.92C431.994 350.02 430.064 351.48 427.894 353.04C425.724 354.6 423.694 355.93 422.194 356.85C421.412 357.395 420.565 357.842 419.674 358.18C420.384 357.547 421.15 356.982 421.964 356.49L427.544 352.55L433.114 348.55C433.855 347.967 434.656 347.464 435.504 347.05Z" fill="#1F2937"/>
<path d="M404.464 387.25L399.844 418.35H428.644L424.914 387.25H404.464Z" fill="#4B5563"/>
<path d="M426.074 396.88C426.074 397.05 420.874 397.18 414.464 397.18C408.054 397.18 402.844 397.05 402.844 396.88C406.71 396.584 410.588 396.483 414.464 396.58C418.336 396.484 422.211 396.584 426.074 396.88Z" fill="#1F2937"/>
<path d="M426.634 399.36C426.634 399.53 421.264 399.66 414.634 399.66C408.004 399.66 402.634 399.53 402.634 399.36C402.634 399.19 408.004 399.06 414.634 399.06C421.264 399.06 426.634 399.19 426.634 399.36Z" fill="#1F2937"/>
<path d="M314.644 85.54C314.644 85.54 314.374 85.54 313.854 85.54C313.095 85.4949 312.333 85.4949 311.574 85.54C308.637 85.712 305.751 86.3885 303.044 87.54C298.752 89.3389 295.018 92.2487 292.224 95.97C290.501 98.2936 289.22 100.914 288.444 103.7C286.694 110.337 287.639 117.397 291.074 123.34C292.01 124.985 293.153 126.504 294.474 127.86C295.807 129.296 297.359 130.511 299.074 131.46C300.833 132.45 302.826 132.951 304.844 132.91C306.925 132.885 308.92 132.078 310.434 130.65C311.166 129.883 311.739 128.98 312.122 127.992C312.504 127.003 312.689 125.95 312.664 124.89C312.649 122.689 311.95 120.547 310.664 118.76C308.074 115.11 303.874 112.66 299.404 111.34C294.769 110.038 289.874 109.969 285.204 111.14C282.82 111.76 280.523 112.674 278.364 113.86C276.185 115.09 274.205 116.644 272.494 118.47C272.084 118.94 271.614 119.37 271.244 119.89L270.114 121.41C269.427 122.481 268.812 123.597 268.274 124.75C267.204 127.091 266.474 129.573 266.104 132.12C265.378 137.209 266.07 142.399 268.104 147.12C270.048 151.733 273.433 155.592 277.754 158.12C279.849 159.317 282.187 160.025 284.594 160.19C286.954 160.322 289.301 159.759 291.344 158.57C293.372 157.449 294.974 155.692 295.904 153.57C296.781 151.478 296.841 149.134 296.074 147C295.284 144.941 293.991 143.112 292.314 141.68C290.687 140.274 288.811 139.185 286.784 138.47C282.83 137.223 278.599 137.15 274.604 138.26C270.866 139.273 267.433 141.185 264.604 143.83C262.027 146.298 260.065 149.336 258.874 152.7C256.791 158.536 256.887 164.929 259.144 170.7C260.904 175.008 263.737 178.795 267.374 181.7C269.665 183.537 272.216 185.024 274.944 186.11C275.884 186.46 276.614 186.72 277.114 186.86L277.854 187.1C277.854 187.1 277.594 187.05 277.094 186.91C276.355 186.712 275.627 186.475 274.914 186.2C272.15 185.161 269.565 183.697 267.254 181.86C263.556 178.957 260.667 175.152 258.864 170.81C256.567 164.984 256.45 158.525 258.534 152.62C259.727 149.205 261.711 146.121 264.324 143.62C267.193 140.922 270.677 138.965 274.474 137.92C278.553 136.782 282.874 136.852 286.914 138.12C289.001 138.848 290.932 139.964 292.604 141.41C294.347 142.889 295.688 144.784 296.504 146.92C297.326 149.15 297.291 151.605 296.404 153.81C295.417 156.016 293.744 157.843 291.634 159.02C289.515 160.255 287.083 160.845 284.634 160.72C282.168 160.548 279.774 159.816 277.634 158.58C273.215 156.017 269.745 152.091 267.744 147.39C265.666 142.583 264.954 137.296 265.684 132.11C266.066 129.511 266.813 126.979 267.904 124.59C268.453 123.412 269.081 122.273 269.784 121.18L270.944 119.63C271.314 119.1 271.794 118.63 272.214 118.17C273.965 116.31 275.988 114.725 278.214 113.47C280.423 112.261 282.774 111.334 285.214 110.71C289.973 109.517 294.961 109.59 299.684 110.92C304.244 112.28 308.514 114.77 311.204 118.55C312.556 120.411 313.29 122.65 313.304 124.95C313.353 127.214 312.5 129.405 310.934 131.04C309.334 132.542 307.228 133.388 305.034 133.41C302.934 133.458 300.861 132.936 299.034 131.9C297.278 130.931 295.691 129.685 294.334 128.21C292.995 126.824 291.836 125.275 290.884 123.6C287.388 117.547 286.438 110.353 288.244 103.6C289.044 100.781 290.356 98.1341 292.114 95.79C294.959 92.0404 298.758 89.1224 303.114 87.34C305.844 86.2107 308.752 85.5742 311.704 85.46C312.47 85.4095 313.238 85.4095 314.004 85.46L314.644 85.54Z" fill="#1F2937"/>
<path d="M348.034 185.6H207.824V293.74H348.034V185.6Z" fill="#756E65"/>
<path d="M207.824 185.6L233.724 209.76H371.554L348.034 185.6H207.824Z" fill="#756E65"/>
<path d="M207.824 185.6L348.074 185.35H348.184L348.264 185.42L371.544 209.33L371.784 209.58L372.214 210.02H371.594L233.764 209.91H233.704L207.824 185.6L233.824 209.6H233.714L371.544 209.5L371.364 209.94L371.114 209.69L347.844 185.78L348.024 185.86L207.824 185.6Z" fill="#1F2937"/>
<path d="M249.944 235.47C249.184 235.498 248.466 235.822 247.943 236.374C247.421 236.926 247.136 237.661 247.149 238.421C247.163 239.181 247.475 239.905 248.017 240.437C248.559 240.97 249.289 241.268 250.049 241.268C250.809 241.268 251.539 240.97 252.081 240.437C252.623 239.905 252.935 239.181 252.948 238.421C252.962 237.661 252.677 236.926 252.154 236.374C251.632 235.822 250.913 235.498 250.154 235.47" fill="#1F2937"/>
<path d="M283.074 235.47C282.317 235.499 281.603 235.823 281.083 236.374C280.563 236.924 280.28 237.656 280.294 238.413C280.309 239.17 280.62 239.891 281.16 240.421C281.7 240.951 282.427 241.248 283.184 241.248C283.941 241.248 284.668 240.951 285.208 240.421C285.748 239.891 286.059 239.17 286.073 238.413C286.088 237.656 285.805 236.924 285.285 236.374C284.765 235.823 284.05 235.499 283.294 235.47" fill="#1F2937"/>
<path d="M283.264 261.35C282.686 259.141 281.746 257.043 280.484 255.14C279.08 253.105 277.276 251.377 275.184 250.06C272.659 248.385 269.715 247.452 266.686 247.369C263.658 247.286 260.666 248.056 258.054 249.59C255.896 250.795 254.002 252.42 252.484 254.37C251.117 256.202 250.065 258.251 249.374 260.43C249.382 260.267 249.408 260.106 249.454 259.95C249.55 259.5 249.673 259.055 249.824 258.62C250.372 257.014 251.172 255.505 252.194 254.15C253.701 252.109 255.619 250.406 257.824 249.15C260.504 247.55 263.584 246.746 266.704 246.831C269.824 246.916 272.855 247.887 275.444 249.63C277.573 250.998 279.392 252.797 280.784 254.91C281.734 256.32 282.453 257.873 282.914 259.51C283.037 259.954 283.134 260.405 283.204 260.86C283.238 261.021 283.258 261.185 283.264 261.35Z" fill="#1F2937"/>
<path opacity="0.5" d="M208.144 186.79L232.944 218.23H348.034V209.76H233.724L208.144 186.79Z" fill="#111827"/>
<path d="M320.384 293.5C320.244 293.5 320.124 274.69 320.124 251.5C320.124 228.31 320.244 209.5 320.384 209.5C320.524 209.5 320.654 228.3 320.654 251.5C320.654 274.7 320.534 293.5 320.384 293.5Z" fill="#1F2937"/>
<path d="M342.404 268.98H330.044V282.95H342.404V268.98Z" fill="#F9FAFB"/>
<path d="M207.824 185.6L179.044 209.76H207.824V185.6Z" fill="#756E65"/>
<g opacity="0.4">
<path opacity="0.4" d="M207.824 185.6L179.044 209.76H207.824V185.6Z" fill="#111827"/>
</g>
<path d="M352.174 293.74H190.964V418.08H352.174V293.74Z" fill="#756E65"/>
<path opacity="0.3" d="M352.174 293.74H190.964V418.08H352.174V293.74Z" fill="#111827"/>
<path d="M311.784 417.2C311.644 417.2 311.524 389.49 311.524 355.31C311.524 321.13 311.644 293.41 311.784 293.41C311.924 293.41 312.044 321.12 312.044 355.31C312.044 389.5 311.924 417.2 311.784 417.2Z" fill="#1F2937"/>
<path d="M338.504 389.78H326.144V403.75H338.504V389.78Z" fill="#F9FAFB"/>
<path d="M258.454 294.07H240.144V320.6H258.454V294.07Z" fill="#1F2937"/>
<path d="M258.454 391.18H240.144V417.71H258.454V391.18Z" fill="#1F2937"/>
<path d="M350.774 293.74H350.354H349.144L344.494 293.79L327.364 293.87L270.874 294L214.364 293.93L197.244 293.85L192.594 293.8H191.374H190.964H191.374H192.594L197.244 293.75L214.364 293.67L270.874 293.59L327.364 293.67L344.494 293.75L349.144 293.8H350.354L350.774 293.74Z" fill="#1F2937"/>
<path d="M74.4939 78.47L56.9339 74.15H57.0639C52.5298 77.0341 47.2867 78.6087 41.9139 78.7C38.733 78.7145 35.568 78.2527 32.5239 77.33C27.172 75.6116 22.424 72.397 18.8409 68.0661C15.2578 63.7352 12.9894 58.469 12.3039 52.89C11.7655 48.6706 12.1618 44.3845 13.4649 40.3354C14.7679 36.2863 16.9457 32.5734 19.8439 29.46C21.3674 27.7866 23.0748 26.2905 24.9339 25C25.8739 24.41 26.8139 23.8 27.7939 23.29L29.2839 22.57L30.0239 22.21L30.8039 21.93C34.8193 20.3735 39.1268 19.7148 43.4239 20C49.1828 20.3739 54.7022 22.4443 59.2864 25.95C63.8706 29.4558 67.3144 34.2401 69.1839 39.7C70.2225 42.7543 70.7693 45.9542 70.8039 49.18C70.8289 54.5411 69.372 59.8048 66.5939 64.39V64.23C71.4739 73.04 73.9339 77.49 74.4839 78.47C73.9139 77.47 71.3639 73.1 66.3139 64.38V64.3V64.22C68.9922 59.6792 70.3756 54.4915 70.3139 49.22C70.2675 46.0458 69.7138 42.8994 68.6739 39.9C66.8248 34.5518 63.439 29.8679 58.9404 26.4348C54.4419 23.0018 49.0305 20.9721 43.3839 20.6C39.1714 20.3255 34.9498 20.9739 31.0139 22.5L30.2539 22.77L29.5239 23.13L28.0639 23.83C27.0639 24.34 26.1839 24.93 25.2539 25.51C23.4307 26.7659 21.7536 28.2216 20.2539 29.85C17.4087 32.9064 15.2701 36.5509 13.9896 40.5255C12.7091 44.5001 12.318 48.7075 12.8439 52.85C13.771 60.4393 17.6646 67.3529 23.6739 72.08C26.3605 74.2088 29.4094 75.8348 32.6739 76.88C35.6633 77.8041 38.7749 78.2727 41.9039 78.27C47.2123 78.2131 52.4024 76.6942 56.9039 73.88H56.9639H57.0739L74.4939 78.47Z" fill="#1F2937"/>
<path d="M39.0739 36.3L39.9639 51C39.9994 51.5798 40.2458 52.1266 40.6565 52.5374C41.0673 52.9481 41.6141 53.1945 42.1939 53.23C42.804 53.2645 43.4041 53.064 43.8709 52.6697C44.3378 52.2754 44.6358 51.7173 44.7039 51.11L46.3339 36.38C46.3623 36.1165 46.3343 35.8499 46.2518 35.598C46.1694 35.3461 46.0343 35.1146 45.8556 34.9189C45.6769 34.7231 45.4586 34.5676 45.2152 34.4626C44.9718 34.3577 44.7089 34.3056 44.4439 34.31H40.8739C40.6234 34.3175 40.377 34.3755 40.1494 34.4806C39.9219 34.5856 39.718 34.7356 39.5499 34.9215C39.3817 35.1073 39.2529 35.3252 39.1711 35.5621C39.0893 35.799 39.0563 36.05 39.0739 36.3Z" fill="#EF4444"/>
<path d="M46.0739 61.44C45.8501 62.1115 45.4323 62.7016 44.8733 63.1358C44.3142 63.5699 43.639 63.8286 42.933 63.8791C42.227 63.9296 41.5219 63.7697 40.9067 63.4196C40.2915 63.0695 39.794 62.5449 39.4769 61.9121C39.1598 61.2792 39.0374 60.5666 39.1251 59.8643C39.2129 59.1619 39.5069 58.5014 39.97 57.9661C40.433 57.4307 41.0444 57.0447 41.7268 56.8567C42.4092 56.6688 43.132 56.6873 43.8039 56.91C44.2506 57.0581 44.6637 57.2928 45.0197 57.6007C45.3756 57.9086 45.6673 58.2836 45.8781 58.7044C46.089 59.1251 46.2148 59.5833 46.2484 60.0527C46.282 60.5221 46.2227 60.9935 46.0739 61.44Z" fill="#EF4444"/>
</svg>
