<svg width="20" height="20" viewBox="0 0 20 20" fill="none" xmlns="http://www.w3.org/2000/svg">
<path fill-rule="evenodd" clip-rule="evenodd" d="M10 0C4.47715 0 0 4.47715 0 10C0 15.5228 4.47715 20 10 20C15.5228 20 20 15.5228 20 10C20 4.47715 15.5228 0 10 0ZM7.80139 4.69892C8.37029 4.67303 8.55207 4.6667 10.0005 4.6667H9.99886C11.4478 4.6667 11.6289 4.67303 12.1978 4.69892C12.7656 4.72492 13.1533 4.81481 13.4933 4.9467C13.8445 5.08281 14.1411 5.26503 14.4378 5.5617C14.7345 5.85815 14.9167 6.15571 15.0534 6.50649C15.1845 6.84561 15.2745 7.23317 15.3011 7.80095C15.3267 8.36984 15.3334 8.55162 15.3334 10.0001C15.3334 11.4485 15.3267 11.6299 15.3011 12.1988C15.2745 12.7663 15.1845 13.154 15.0534 13.4932C14.9167 13.8439 14.7345 14.1415 14.4378 14.4379C14.1415 14.7346 13.8443 14.9172 13.4937 15.0535C13.1543 15.1854 12.7663 15.2752 12.1986 15.3012C11.6297 15.3271 11.4484 15.3335 9.99986 15.3335C8.55151 15.3335 8.36985 15.3271 7.80095 15.3012C7.23328 15.2752 6.84561 15.1854 6.50627 15.0535C6.15571 14.9172 5.85815 14.7346 5.56182 14.4379C5.26526 14.1415 5.08303 13.8439 4.9467 13.4931C4.81492 13.154 4.72503 12.7664 4.69892 12.1987C4.67314 11.6298 4.6667 11.4485 4.6667 10.0001C4.6667 8.55162 4.67336 8.36973 4.69881 7.80084C4.72436 7.23328 4.81436 6.84561 4.94659 6.50638C5.08326 6.15571 5.26548 5.85815 5.56215 5.5617C5.8586 5.26515 6.15616 5.08292 6.50694 4.9467C6.84605 4.81481 7.23361 4.72492 7.80139 4.69892Z" fill="#4B5563"/>
<path fill-rule="evenodd" clip-rule="evenodd" d="M9.52202 5.62777C9.61492 5.62762 9.71486 5.62767 9.82271 5.62772L10.0005 5.62777C11.4245 5.62777 11.5933 5.63288 12.1556 5.65843C12.6756 5.68221 12.9578 5.7691 13.1458 5.8421C13.3947 5.93877 13.5722 6.05433 13.7587 6.241C13.9454 6.42766 14.061 6.60544 14.1578 6.85434C14.2308 7.04212 14.3179 7.32434 14.3415 7.84435C14.3671 8.40657 14.3726 8.57546 14.3726 9.99881C14.3726 11.4222 14.3671 11.5911 14.3415 12.1533C14.3177 12.6733 14.2308 12.9555 14.1578 13.1433C14.0612 13.3922 13.9454 13.5694 13.7587 13.756C13.5721 13.9426 13.3948 14.0582 13.1458 14.1549C12.9581 14.2282 12.6756 14.3149 12.1556 14.3386C11.5934 14.3642 11.4245 14.3697 10.0005 14.3697C8.57635 14.3697 8.40757 14.3642 7.84534 14.3386C7.32533 14.3146 7.04311 14.2277 6.85499 14.1547C6.6061 14.0581 6.42832 13.9425 6.24166 13.7559C6.05499 13.5692 5.93943 13.3918 5.84254 13.1428C5.76954 12.9551 5.68254 12.6728 5.65887 12.1528C5.63332 11.5906 5.6282 11.4217 5.6282 9.99748C5.6282 8.57324 5.63332 8.40524 5.65887 7.84301C5.68265 7.32301 5.76954 7.04078 5.84254 6.85278C5.93921 6.60389 6.05499 6.42611 6.24166 6.23944C6.42832 6.05277 6.6061 5.93722 6.85499 5.84033C7.043 5.76699 7.32533 5.68032 7.84534 5.65643C8.33734 5.63421 8.52801 5.62755 9.52202 5.62643V5.62777ZM12.8474 6.51332C12.4941 6.51332 12.2074 6.79965 12.2074 7.1531C12.2074 7.50644 12.4941 7.79311 12.8474 7.79311C13.2007 7.79311 13.4874 7.50644 13.4874 7.1531C13.4874 6.79976 13.2007 6.51309 12.8474 6.51309V6.51332ZM7.26162 10C7.26162 8.48751 8.48791 7.26119 10.0004 7.26113C11.513 7.26113 12.739 8.48748 12.739 10C12.739 11.5126 11.5131 12.7384 10.0005 12.7384C8.48797 12.7384 7.26162 11.5126 7.26162 10Z" fill="#4B5563"/>
<path d="M10.0006 8.22226C10.9824 8.22226 11.7784 9.01816 11.7784 10.0001C11.7784 10.9818 10.9824 11.7779 10.0006 11.7779C9.01868 11.7779 8.22278 10.9818 8.22278 10.0001C8.22278 9.01816 9.01868 8.22226 10.0006 8.22226Z" fill="#4B5563"/>
</svg>
