<?xml version="1.0" encoding="utf-8"?>
<!-- Generator: Adobe Illustrator 16.0.0, SVG Export Plug-In . SVG Version: 6.00 Build 0)  -->
<!DOCTYPE svg PUBLIC "-//W3C//DTD SVG 1.1//EN" "http://www.w3.org/Graphics/SVG/1.1/DTD/svg11.dtd">
<svg version="1.1" id="Capa_1" xmlns="http://www.w3.org/2000/svg" xmlns:xlink="http://www.w3.org/1999/xlink" x="0px" y="0px"
	 width="180px" height="145.333px" viewBox="-15.5 55.167 180 145.333" enable-background="new -15.5 55.167 180 145.333"
	 xml:space="preserve">
<g>
	<path fill="#000000" d="M72,124.662c13.609,0,24.643-13.401,24.643-29.931C96.643,78.2,93.02,64.799,72,64.799
		c-21.021,0-24.643,13.401-24.643,29.932C47.357,111.261,58.391,124.662,72,124.662z"/>
	<path fill="#000000" d="M102.651,131.661c-4.396-1.934-10.002-3.412-17.156-4.703c0,0-4.052,5.162-13.495,5.162
		c-9.442,0-13.494-5.162-13.494-5.162c-28.465,5.138-32.456,13.222-32.98,41.261c-0.042,2.289-0.062,2.41-0.07,2.145
		c0.001,0.498,0.003,1.418,0.003,3.025c0,0,6.852,13.813,46.541,13.813c3.526,0,6.782-0.113,9.809-0.313
		c-1.728-4.807-2.675-9.986-2.675-15.389C79.135,154.346,88.632,139.414,102.651,131.661z"/>
	<path fill="#000000" d="M106.198,119.317c11.054,0,20.015-10.884,20.015-24.31c0-13.426-2.942-24.31-20.015-24.31
		c-2.872,0-5.343,0.309-7.468,0.886c3.943,7.27,4.482,16.099,4.482,23.146c0,7.98-2.162,15.599-6.146,21.907
		C99.805,118.347,102.908,119.317,106.198,119.317z"/>
	<path fill="#000000" d="M135.129,127.229c-3.965-2.745-9.688-4.552-17.971-6.047c0,0-3.291,4.193-10.96,4.193
		c-0.317,0-0.625-0.009-0.928-0.023c1.836,0.828,3.609,1.779,5.281,2.881c4.436-1.442,9.166-2.232,14.083-2.232
		C128.248,126,131.758,126.434,135.129,127.229z"/>
	<path fill="#000000" d="M37.801,119.317c3.291,0,6.393-0.971,9.132-2.68c-3.983-6.308-6.146-13.927-6.146-21.907
		c0-7.048,0.54-15.877,4.483-23.146c-2.125-0.577-4.596-0.886-7.469-0.886c-17.072,0-20.014,10.884-20.014,24.31
		C17.787,108.434,26.748,119.317,37.801,119.317z"/>
	<path fill="#000000" d="M38.728,125.352c-0.302,0.014-0.609,0.023-0.927,0.023c-7.669,0-10.959-4.193-10.959-4.193
		c-23.374,4.219-26.429,10.882-26.799,34.271C0.019,156.96,0.006,157.209,0,157.07c0.001,0.396,0.001,0.977,0.001,1.822
		c0,0,3.223,6.488,18.948,9.596c0.269-15.271,1.566-25.666,7.21-33.405C29.423,130.607,33.855,127.549,38.728,125.352z"/>
</g>
<g>
	<path fill="#000000" d="M148.122,176.926l-12.425-12.424l12.425-12.424c2.343-2.344,2.343-6.143,0-8.485s-6.142-2.343-8.485,0
		l-12.425,12.425l-12.424-12.426c-2.344-2.343-6.143-2.343-8.485,0c-2.343,2.344-2.343,6.143,0,8.485l12.425,12.424l-12.425,12.424
		c-2.343,2.344-2.343,6.143,0,8.485c1.173,1.172,2.707,1.757,4.243,1.757c1.535,0,3.07-0.586,4.243-1.757l12.423-12.423
		l12.425,12.424c1.174,1.171,2.707,1.757,4.243,1.757s3.071-0.586,4.243-1.757C150.465,183.067,150.465,179.271,148.122,176.926z"/>
</g>
</svg>
