<svg width="20" height="20" viewBox="0 0 20 20" fill="none" xmlns="http://www.w3.org/2000/svg">
<path fill-rule="evenodd" clip-rule="evenodd" d="M10 0C4.47715 0 0 4.47715 0 10C0 15.5228 4.47715 20 10 20C15.5228 20 20 15.5228 20 10C20 4.47715 15.5228 0 10 0ZM4.80061 8.28246H7.06683V15.0915H4.80061V8.28246ZM7.21618 6.17612C7.20147 5.5085 6.72405 5 5.94879 5C5.17353 5 4.6667 5.5085 4.6667 6.17612C4.6667 6.82992 5.15855 7.35306 5.91937 7.35306H5.93386C6.72405 7.35306 7.21618 6.82992 7.21618 6.17612ZM12.6304 8.12253C14.1217 8.12253 15.2397 9.09592 15.2397 11.1874L15.2396 15.0915H12.9735V11.4486C12.9735 10.5336 12.6455 9.90925 11.8252 9.90925C11.1991 9.90925 10.8261 10.3302 10.6624 10.7367C10.6024 10.8824 10.5877 11.0854 10.5877 11.2889V15.0916H8.32124C8.32124 15.0916 8.35111 8.92153 8.32124 8.2826H10.5877V9.24705C10.8885 8.78342 11.4272 8.12253 12.6304 8.12253Z" fill="#4B5563"/>
</svg>
