<svg width="20" height="20" viewBox="0 0 20 20" fill="none" xmlns="http://www.w3.org/2000/svg">
<path fill-rule="evenodd" clip-rule="evenodd" d="M12.5861 4.58598C12.7706 4.39496 12.9913 4.2426 13.2353 4.13778C13.4793 4.03296 13.7417 3.97779 14.0073 3.97548C14.2728 3.97317 14.5362 4.02378 14.782 4.12434C15.0278 4.2249 15.2511 4.37341 15.4389 4.56119C15.6267 4.74898 15.7752 4.97228 15.8757 5.21807C15.9763 5.46387 16.0269 5.72722 16.0246 5.99278C16.0223 6.25834 15.9671 6.52078 15.8623 6.76479C15.7575 7.0088 15.6051 7.22949 15.4141 7.41398L12.4141 10.414C12.039 10.7889 11.5304 10.9996 11.0001 10.9996C10.4698 10.9996 9.96114 10.7889 9.58608 10.414C9.39748 10.2318 9.14488 10.131 8.88268 10.1333C8.62048 10.1356 8.36967 10.2408 8.18426 10.4262C7.99885 10.6116 7.89368 10.8624 7.89141 11.1246C7.88913 11.3868 7.98992 11.6394 8.17208 11.828C8.92219 12.5779 9.93942 12.9991 11.0001 12.9991C12.0607 12.9991 13.078 12.5779 13.8281 11.828L16.8281 8.82798C17.5567 8.07357 17.9599 7.06316 17.9508 6.01438C17.9417 4.96559 17.521 3.96234 16.7794 3.22071C16.0377 2.47907 15.0345 2.0584 13.9857 2.04928C12.9369 2.04017 11.9265 2.44335 11.1721 3.17198L9.67208 4.67198C9.57657 4.76423 9.50039 4.87457 9.44798 4.99658C9.39557 5.11858 9.36798 5.2498 9.36683 5.38258C9.36568 5.51536 9.39098 5.64704 9.44126 5.76993C9.49154 5.89283 9.56579 6.00448 9.65969 6.09838C9.75358 6.19227 9.86523 6.26652 9.98813 6.3168C10.111 6.36708 10.2427 6.39239 10.3755 6.39123C10.5083 6.39008 10.6395 6.36249 10.7615 6.31008C10.8835 6.25767 10.9938 6.18149 11.0861 6.08598L12.5861 4.58598ZM7.58608 9.58598C7.96114 9.21104 8.46975 9.00041 9.00008 9.00041C9.53041 9.00041 10.039 9.21104 10.4141 9.58598C10.5063 9.68149 10.6167 9.75767 10.7387 9.81008C10.8607 9.86249 10.9919 9.89008 11.1247 9.89123C11.2575 9.89239 11.3891 9.86708 11.512 9.8168C11.6349 9.76652 11.7466 9.69227 11.8405 9.59838C11.9344 9.50448 12.0086 9.39283 12.0589 9.26993C12.1092 9.14704 12.1345 9.01536 12.1333 8.88258C12.1322 8.7498 12.1046 8.61858 12.0522 8.49658C11.9998 8.37457 11.9236 8.26423 11.8281 8.17198C11.078 7.4221 10.0607 7.00083 9.00008 7.00083C7.93942 7.00083 6.92219 7.4221 6.17208 8.17198L3.17208 11.172C2.79004 11.541 2.48531 11.9823 2.27568 12.4704C2.06604 12.9584 1.95569 13.4833 1.95108 14.0144C1.94646 14.5455 2.04767 15.0722 2.24879 15.5638C2.44992 16.0554 2.74693 16.502 3.1225 16.8776C3.49807 17.2531 3.94468 17.5501 4.43626 17.7513C4.92785 17.9524 5.45457 18.0536 5.98569 18.049C6.5168 18.0444 7.04168 17.934 7.5297 17.7244C8.01771 17.5148 8.45909 17.21 8.82808 16.828L10.3281 15.328C10.4236 15.2357 10.4998 15.1254 10.5522 15.0034C10.6046 14.8814 10.6322 14.7502 10.6333 14.6174C10.6345 14.4846 10.6092 14.3529 10.5589 14.23C10.5086 14.1071 10.4344 13.9955 10.3405 13.9016C10.2466 13.8077 10.1349 13.7334 10.012 13.6832C9.88914 13.6329 9.75746 13.6076 9.62468 13.6087C9.4919 13.6099 9.36068 13.6375 9.23868 13.6899C9.11667 13.7423 9.00633 13.8185 8.91408 13.914L7.41408 15.414C7.22959 15.605 7.0089 15.7574 6.76489 15.8622C6.52088 15.967 6.25844 16.0222 5.99288 16.0245C5.72732 16.0268 5.46397 15.9762 5.21817 15.8756C4.97238 15.7751 4.74908 15.6266 4.56129 15.4388C4.37351 15.251 4.225 15.0277 4.12444 14.7819C4.02388 14.5361 3.97327 14.2727 3.97558 14.0072C3.97789 13.7416 4.03306 13.4792 4.13788 13.2352C4.2427 12.9912 4.39506 12.7705 4.58608 12.586L7.58608 9.58598Z" fill="#000000"/>
</svg>
