<svg width="16" height="16" viewBox="0 0 16 16" fill="none" xmlns="http://www.w3.org/2000/svg">
<path fill-rule="evenodd" clip-rule="evenodd" d="M3.99999 7.19998V5.59998C3.99999 4.53911 4.42142 3.52169 5.17157 2.77155C5.92171 2.0214 6.93913 1.59998 7.99999 1.59998C9.06086 1.59998 10.0783 2.0214 10.8284 2.77155C11.5786 3.52169 12 4.53911 12 5.59998V7.19998C12.4243 7.19998 12.8313 7.36855 13.1314 7.6686C13.4314 7.96866 13.6 8.37563 13.6 8.79998V12.8C13.6 13.2243 13.4314 13.6313 13.1314 13.9313C12.8313 14.2314 12.4243 14.4 12 14.4H3.99999C3.57565 14.4 3.16868 14.2314 2.86862 13.9313C2.56856 13.6313 2.39999 13.2243 2.39999 12.8V8.79998C2.39999 8.37563 2.56856 7.96866 2.86862 7.6686C3.16868 7.36855 3.57565 7.19998 3.99999 7.19998V7.19998ZM10.4 5.59998V7.19998H5.59999V5.59998C5.59999 4.96346 5.85285 4.35301 6.30294 3.90292C6.75303 3.45283 7.36347 3.19998 7.99999 3.19998C8.63651 3.19998 9.24696 3.45283 9.69705 3.90292C10.1471 4.35301 10.4 4.96346 10.4 5.59998V5.59998Z" fill="white"/>
</svg>
