<svg width="200" height="54" viewBox="0 0 200 54" fill="none" xmlns="http://www.w3.org/2000/svg">
<g clip-path="url(#clip0)">
<path fill-rule="evenodd" clip-rule="evenodd" d="M45.5224 8.05955C57.9798 9.02845 68.4564 13.5538 73.6294 19.7588H74.8894C69.5461 12.8339 58.0854 7.81167 44.486 6.98313C44.8879 7.31024 45.233 7.67811 45.5224 8.05955ZM36.2605 6.99784C22.7792 7.87393 11.4365 12.878 6.12845 19.7577H7.3885C12.5274 13.5923 22.9029 9.08505 35.2525 8.07653C35.5406 7.67524 35.8794 7.31269 36.2605 6.99784ZM42.8071 25.4941H44.0978V27.3538H42.8071V25.4941ZM39.2347 25.4941H40.5231V27.3538H39.2347V25.4941ZM35.7815 25.4941H37.0699V27.3538H35.7815V25.4941ZM32.3998 25.4941H33.6882V27.3538H32.3998V25.4941ZM46.3613 25.4941H47.6532V27.3538H46.3613V25.4941ZM49.9326 25.4941H51.2221V27.3538H49.9326V25.4941ZM53.4039 25.4941H54.6958V27.3538H53.4039V25.4941ZM39.8534 18.1323C39.8534 18.7062 40.3256 19.1702 40.9091 19.1702C41.4903 19.1702 41.9637 18.7062 41.9637 18.1323C41.9613 17.8554 41.8489 17.5907 41.6513 17.3962C41.4537 17.2017 41.1868 17.0931 40.9091 17.0943C40.6311 17.0925 40.3637 17.2008 40.1658 17.3955C39.9678 17.5901 39.8555 17.8551 39.8534 18.1323ZM42.8071 28.6657H44.0978V30.5231H42.8071V28.6657ZM39.2347 28.6657H40.5231V30.5231H39.2347V28.6657ZM35.7815 28.6657H37.0699V30.5231H35.7815V28.6657ZM32.3998 28.6657H33.6882V30.5231H32.3998V28.6657ZM46.3613 28.6657H47.6532V30.5231H46.3613V28.6657ZM49.9326 28.6657H51.2221V30.5231H49.9326V28.6657ZM53.4039 28.6657H54.6958V30.5231H53.4039V28.6657ZM39.2347 31.8723H40.5231V33.732H39.2347V31.8723ZM35.7815 31.8723H37.0699V33.732H35.7815V31.8723ZM32.3998 31.8723H33.6882V33.732H32.3998V31.8723ZM46.3613 31.8723H47.6532V33.732H46.3613V31.8723ZM49.9326 31.8723H51.2221V33.732H49.9326V31.8723ZM53.4039 31.8723H54.6958V33.732H53.4039V31.8723ZM41.1827 7.32722L40.5004 0.0593262L39.9306 7.25025C39.3037 7.34442 38.7271 7.64676 38.2941 8.10835C37.861 8.56993 37.5969 9.16372 37.5444 9.79361L39.4254 9.24691H41.7468L43.2067 9.76645C43.1531 9.20453 42.9315 8.6716 42.5706 8.2367C42.2097 7.80179 41.7262 7.48496 41.1827 7.32722ZM11.9746 29.6187H12.9781V31.1932H11.9746V29.6187ZM14.5946 29.6187H15.5992V31.1932H14.5946V29.6187ZM17.1555 29.6187H18.159V31.1932H17.1555V29.6187ZM11.9746 26.7652H12.9781V28.3374H11.9746V26.7652ZM14.5946 26.7652H15.5992V28.3374H14.5946V26.7652ZM17.1555 26.7652H18.159V28.3374H17.1555V26.7652ZM11.9746 32.5005H12.9781V34.0727H11.9746V32.5005ZM17.1555 32.5005H18.159V34.0727H17.1555V32.5005ZM14.5026 25.0934H14.4958C14.4958 25.0934 14.4992 25.1195 14.5026 25.0934ZM15.6299 25.0017C15.6299 24.6871 15.3926 24.4313 15.0952 24.4313C14.8012 24.4313 14.5605 24.6871 14.5605 25.0017V25.6492H15.6321L15.6299 25.0017ZM71.4862 29.6187H72.4885V31.1932H71.4862V29.6187ZM74.105 29.6187H75.1085V31.1932H74.105V29.6187ZM76.6671 29.6187H77.6706V31.1932H76.6671V29.6187ZM71.4862 26.7652H72.4885V28.3374H71.4862V26.7652ZM74.105 26.7652H75.1085V28.3374H74.105V26.7652ZM76.6671 26.7652H77.6706V28.3374H76.6671V26.7652ZM71.4862 32.5005H72.4885V34.0727H71.4862V32.5005ZM76.6671 32.5005H77.6706V34.0727H76.6671V32.5005ZM74.0108 25.0934H74.0062C74.0062 25.0934 74.0108 25.1195 74.0108 25.0934ZM75.1437 25.0017C75.1437 24.6871 74.903 24.4313 74.6067 24.4313C74.3116 24.4313 74.0687 24.6871 74.0687 25.0017L74.0721 25.6492H75.1426V25.0017H75.1437Z" fill="#166E55"/>
<path fill-rule="evenodd" clip-rule="evenodd" d="M56.1682 44.3187H57.3375V43.4403H58.0049V42.6073H57.3375V39.7017H55.9537L54.0716 42.4612V43.4415H56.1694V44.3187H56.1682ZM45.6713 44.399C47.2231 44.399 47.491 43.2072 47.491 42.0096C47.491 40.8121 47.2231 39.6213 45.6713 39.6213C44.1172 39.6213 43.8493 40.8132 43.8493 42.0096C43.8493 43.2083 44.1172 44.399 45.6713 44.399ZM24.6876 44.3187H25.9363V39.7006H24.834L23.2425 40.7193L23.7987 41.5535L24.6876 40.9309V44.3187ZM33.5521 40.9524C33.5521 41.4086 33.9222 41.7923 34.3593 41.9383C33.8552 42.09 33.4307 42.408 33.4307 43.0826C33.4307 44.0289 34.2514 44.4002 35.2606 44.4002C36.2414 44.4002 37.1007 44.0097 37.1007 43.017C37.1007 42.322 36.6637 42.0379 36.154 41.8783C36.5626 41.7131 36.927 41.3758 36.927 40.8064C36.927 39.9914 36.2414 39.6213 35.3128 39.6213C34.3854 39.6213 33.5521 39.9654 33.5521 40.9524ZM79.9229 25.3368L78.0953 25.3379V23.8121H76.3607V22.7278H72.8723V23.811H71.1469L71.1401 25.2791H69.5236L69.527 36.1204H73.8225V33.2997H75.3504V36.1204H79.7015V37.0383H74.2572C68.3827 43.8037 54.865 49.5005 39.8648 49.5005C24.8703 49.5005 12.6286 43.8105 6.81763 37.0383H0.0258808L0.0474492 25.2961L1.70594 25.2859L1.72297 23.476H3.63233L3.63687 21.9491H18.0411L18.0468 23.1907L19.7825 23.2009L19.787 24.7245L20.4193 24.7256L20.4102 25.3368L18.5849 25.3379V23.8121H16.8492V22.7278H13.3642V23.811H11.6365L11.6308 25.2791H10.0132L10.0177 36.1204H14.3087V33.2997H15.8411V36.1204H22.3548V23.9502L21.9404 23.5552L25.8023 19.7588L36.5513 19.7758L36.9293 19.7588V16.2602L36.5831 16.2635V15.9036L37.0791 15.4305H37.6388V11.3647L37.1177 11.247L37.0042 10.8678L38.7842 10.3732V15.4305L39.7865 15.4169V10.2736H41.4359V15.4305H42.4394V10.3732L43.6529 10.8678L43.5383 11.1915L43.0445 11.3092V15.4305H43.4543L43.8539 15.8776L43.8663 16.2613L38.4413 16.2534V20.9032H43.4951L43.4906 19.7769L44.1138 19.7758L45.4908 19.7588H53.4313L57.2921 23.5552L56.8596 23.9502H30.0024V36.1204H42.2987L42.3032 33.2748C42.3032 32.8096 42.7709 32.4293 43.3419 32.4293C43.9163 32.4293 44.3806 32.8096 44.3806 33.2748V36.1204H59.534L59.5091 25.2961L61.2493 25.2859L61.2334 23.476H63.1462L63.1473 21.9491H77.5527L77.5617 23.2009H79.2952L79.2963 24.7154H79.9184L79.9229 25.3368ZM40.6254 11.1202C40.5607 11.1198 40.4966 11.132 40.4366 11.1563C40.3767 11.1806 40.3221 11.2164 40.276 11.2617C40.23 11.307 40.1933 11.3609 40.1681 11.4203C40.143 11.4798 40.1298 11.5436 40.1293 11.6081C40.1293 11.8809 40.3518 12.0982 40.6254 12.0982C40.9001 12.0982 41.1249 11.8809 41.1249 11.6081C41.1234 11.4774 41.07 11.3526 40.9763 11.2612C40.8827 11.1697 40.7565 11.119 40.6254 11.1202ZM56.25 42.6061H54.9593L56.2352 40.6525L56.25 42.6061ZM45.6713 43.566C45.1059 43.566 45.0583 42.7442 45.0583 42.0096C45.0583 41.275 45.1059 40.4555 45.6713 40.4555C46.2343 40.4555 46.282 41.275 46.282 42.0096C46.282 42.7442 46.2332 43.566 45.6713 43.566ZM35.8917 42.9706C35.8917 43.3475 35.6023 43.566 35.2458 43.566C35.1679 43.5684 35.0903 43.5553 35.0175 43.5275C34.9447 43.4996 34.8782 43.4576 34.8219 43.4039C34.7655 43.3501 34.7205 43.2857 34.6894 43.2145C34.6583 43.1432 34.6418 43.0664 34.6408 42.9887C34.6408 42.6322 34.8826 42.4409 35.1845 42.3016C35.5012 42.3945 35.8917 42.5597 35.8917 42.9706ZM34.6805 40.9581C34.6805 40.64 34.9291 40.4159 35.2322 40.4159C35.508 40.4159 35.7975 40.5755 35.7975 40.9072C35.7975 41.2162 35.5943 41.3825 35.2663 41.5682C34.9779 41.4403 34.6805 41.3078 34.6805 40.9581Z" fill="#166E55"/>
<path fill-rule="evenodd" clip-rule="evenodd" d="M154.398 44.3967V47.6962C155.489 47.6158 156.58 47.154 156.58 45.9078C156.58 44.7193 155.454 44.3967 154.398 44.3967ZM156.966 50.7749C156.607 50.2809 156.278 49.7653 155.982 49.231C155.43 48.192 155.514 48.2621 154.398 48.1003V49.2537C154.398 50.8236 154.329 51.3545 156.217 51.4937V51.8163H151.306V51.4937C152.699 51.2628 152.851 51.3443 152.851 49.2537V46.184C152.851 44.6265 152.769 44.4069 151.306 44.2926V43.9689H154.949C156.392 43.9689 158.339 43.9689 158.339 45.8037C158.339 46.7148 157.634 47.3838 156.813 47.6962L158.066 49.9577C158.589 50.8242 159.342 51.5302 160.241 51.9981C161.14 52.4659 162.151 52.6776 163.163 52.6097C162.396 52.8717 161.581 52.964 160.775 52.8803C160.03 52.8032 159.309 52.5771 158.655 52.2153C158 51.8535 157.426 51.3636 156.966 50.7749ZM101.475 44.253C102.578 44.4726 103.141 44.4024 103.176 45.6384L103.258 48.4319C103.304 49.8615 103.011 51.2469 101.076 51.2469C100.256 51.2469 99.3072 50.9696 98.8384 50.2656C98.4638 49.6895 98.499 48.7772 98.499 48.1071V46.493C98.499 44.923 98.4286 44.3922 100.046 44.253V43.9304H95.4045V44.253C96.7996 44.4839 96.9517 44.4024 96.9517 46.493V48.3153C96.9517 49.2854 96.8337 50.4037 97.6555 51.1292C98.3457 51.7427 99.4491 51.9725 100.362 51.9725C101.336 51.9725 102.402 51.7314 103.092 51.0149C103.773 50.3233 103.797 49.2854 103.832 48.3719L103.914 46.6413C104.007 44.7136 104.007 44.5427 105.133 44.253L105.621 44.2496L105.663 43.9304H101.475V44.253ZM109.34 49.78C109.34 51.3375 108.754 51.2911 107.898 51.4541V51.7767H111.743V51.4541C110.359 51.1643 110.103 51.0726 110.054 49.6544C110.007 48.3957 109.949 47.1834 109.984 45.892C111.919 47.9452 116.387 53.0342 116.387 53.0342V46.7126C116.387 44.8302 116.443 44.3446 117.476 44.253V43.9304H113.912V44.253C115.294 44.4375 115.648 44.6107 115.671 45.9848L115.741 49.6544L115.717 49.677C114.03 47.7381 111.99 45.8229 110.514 43.9304H107.818V44.253C109.306 44.5076 109.341 45.3373 109.341 46.5281V49.78H109.34ZM124.33 46.4919C124.33 44.4012 124.481 44.4839 125.875 44.2518V43.9292H121.234V44.2518C122.629 44.4827 122.781 44.4012 122.781 46.4919V49.2141C122.781 51.3035 122.628 51.2209 121.234 51.4541V51.7767H125.875V51.4541C124.48 51.222 124.33 51.3035 124.33 49.2141V46.4919ZM133.244 53.0433L135.747 46.9876C136.557 45.1291 136.838 44.3899 137.929 44.2518V43.9292H134.26V44.2518C135.761 44.4827 136.125 44.4363 134.859 47.5649L133.839 50.08L132.209 46.2734C131.471 44.5642 131.542 44.5642 132.89 44.253V43.9304H128.729V44.253C129.642 44.554 129.678 44.4839 130.252 45.7652L133.244 53.0433ZM144.456 48.0493C145.476 48.0493 146.029 48.0267 146.261 49.1575H146.589C146.532 48.1772 146.578 47.2072 146.638 46.227H146.332C146.039 47.2763 145.511 47.3578 144.503 47.3578H143.507V44.4148H144.361C145.64 44.4148 146.683 44.4375 146.764 45.9485H147.128L147.351 43.9292H140.412V44.2518C141.807 44.4827 141.959 44.4012 141.959 46.4919V49.2141C141.959 51.3035 141.806 51.2209 140.412 51.4541V51.7767H147.516C147.797 50.9119 147.962 50.0222 147.937 49.1224H147.586C147.256 50.4478 146.602 51.2911 145.076 51.2911C143.518 51.2911 143.506 50.7489 143.506 49.5717V48.0482H144.456V48.0493ZM174.909 46.4919C174.909 44.4012 175.062 44.4839 176.456 44.2518V43.9292H171.813V44.2518C173.208 44.4827 173.36 44.4012 173.36 46.4919V49.2141C173.36 51.3035 173.207 51.2209 171.813 51.4541V51.7767H176.456V51.4541C175.061 51.222 174.909 51.3035 174.909 49.2141V46.4919ZM179.884 46.2157C180.365 44.5756 181.21 44.4148 182.827 44.4148V49.2141C182.827 51.3035 182.676 51.2209 181.068 51.4541V51.7767H186.132V51.4541C184.527 51.222 184.374 51.3035 184.374 49.2141V44.4148C185.99 44.4148 186.859 44.5756 187.327 46.2157L187.656 46.1557L187.388 43.9191H179.827L179.557 46.1557L179.884 46.2157ZM194.485 48.4421L194.698 48.0029L196.033 45.5682C196.517 44.7023 196.996 44.4601 197.994 44.253V43.9304H194.581V44.253C195.623 44.5178 195.836 44.622 194.839 46.6198L194.207 47.8886L193.187 45.7765C192.508 44.3696 192.894 44.4612 193.715 44.253V43.9304H189.647V44.253C190.948 44.5178 191.101 45.0147 191.629 46.0651L192.941 48.6843V49.2152C192.941 51.3047 192.788 51.222 191.243 51.4552V51.7778H196.186V51.4552C194.417 51.3171 194.486 50.7851 194.486 49.2152V48.4421H194.485ZM165.424 51.9725C166.923 51.9725 168.522 51.2809 168.522 49.6193C168.522 47.2072 164.667 47.3328 164.667 45.4641C164.667 44.7838 165.146 44.2632 165.86 44.2632C167.068 44.2632 167.35 45.3147 167.572 46.2609H167.925L168.032 44.253C167.425 43.9086 166.737 43.7298 166.038 43.7346C164.608 43.7346 163.121 44.5891 163.121 46.1229C163.121 48.4081 166.976 48.2463 166.976 50.1965C166.976 50.9459 166.402 51.4428 165.627 51.4428C164.244 51.4428 163.388 50.1615 163.001 49.0318L162.64 49.0997L163.043 51.2752C163.71 51.7212 164.559 51.9544 165.424 51.9725ZM186.462 14.5294C180.778 14.5294 178.498 19.9965 178.498 24.3882C178.498 29.4319 181.21 35.8724 187.156 35.8724C192.611 35.8724 195.025 30.4054 195.025 25.7544C194.925 19.9965 191.52 14.5294 186.462 14.5294ZM186.727 13.1123C195.657 13.1123 199.531 19.0898 199.531 25.2021C199.531 32.5865 194.087 37.2918 186.762 37.2918C179.402 37.2918 173.996 32.5877 173.996 25.1692C173.996 17.8527 179.437 13.1123 186.727 13.1123ZM106.326 14.5294C100.641 14.5294 98.3593 19.9965 98.3593 24.3882C98.3593 29.4319 101.069 35.8724 107.02 35.8724C112.474 35.8724 114.884 30.4054 114.884 25.7544C114.788 19.9965 111.384 14.5294 106.326 14.5294ZM106.59 13.1123C115.521 13.1123 119.392 19.0898 119.392 25.2021C119.392 32.5865 113.951 37.2918 106.623 37.2918C99.2629 37.2918 93.855 32.5877 93.855 25.1692C93.8561 17.8527 99.2981 13.1146 106.59 13.1123ZM165.271 19.143C165.375 15.5968 165.411 14.5623 169.605 14.0122V13.4949H157.856V14.0122C162.053 14.5623 162.089 15.5957 162.19 19.143V31.2611C162.088 34.8084 162.053 35.8407 157.856 36.392V36.907H169.605V36.392C165.411 35.8407 165.374 34.8084 165.271 31.2611V19.143ZM131.253 19.143V22.9507H145.161V19.143C145.057 15.5968 145.022 14.5623 140.827 14.0122V13.4949H152.576V14.0122C148.382 14.5623 148.346 15.5957 148.242 19.143V31.2611C148.347 34.8084 148.382 35.8407 152.576 36.392V36.907H140.827V36.392C145.022 35.8407 145.058 34.8084 145.161 31.2611V25.1058H131.253V31.2611C131.36 34.8084 131.395 35.8407 135.59 36.392V36.907H123.838V36.392C128.035 35.8407 128.071 34.8084 128.175 31.2611V19.143C128.07 15.5968 128.035 14.5623 123.838 14.0122V13.4949H135.59V14.0122C131.395 14.5634 131.36 15.5968 131.253 19.143Z" fill="#847C6D"/>
</g>
<defs>
<clipPath id="clip0">
<rect width="199.556" height="53.0612" fill="white"/>
</clipPath>
</defs>
</svg>
