<svg width="167" height="52" viewBox="0 0 167 52" fill="none" xmlns="http://www.w3.org/2000/svg">
<path d="M49.4478 22.3889V8.97286H51.5278V11.1569H51.6318C51.7878 10.8102 51.9612 10.4895 52.1518 10.1949C52.3598 9.88286 52.6025 9.6142 52.8798 9.38886C53.1745 9.16353 53.5125 8.9902 53.8938 8.86886C54.2752 8.7302 54.7258 8.66087 55.2458 8.66087C56.1298 8.66087 56.9445 8.87753 57.6898 9.31086C58.4352 9.72686 58.9898 10.4202 59.3538 11.3909H59.4058C59.6485 10.6629 60.0992 10.0302 60.7578 9.49286C61.4338 8.9382 62.3438 8.66087 63.4878 8.66087C64.8572 8.66087 65.9232 9.11153 66.6858 10.0129C67.4658 10.8969 67.8558 12.1535 67.8558 13.7829V22.3889H65.7758V14.1469C65.7758 12.9509 65.5418 12.0495 65.0738 11.4429C64.6058 10.8362 63.8605 10.5329 62.8378 10.5329C62.4218 10.5329 62.0232 10.5849 61.6418 10.6889C61.2778 10.7929 60.9485 10.9489 60.6538 11.1569C60.3592 11.3649 60.1252 11.6335 59.9518 11.9629C59.7785 12.2749 59.6918 12.6475 59.6918 13.0809V22.3889H57.6118V14.1469C57.6118 12.9509 57.3778 12.0495 56.9098 11.4429C56.4418 10.8362 55.7138 10.5329 54.7258 10.5329C54.3098 10.5329 53.9112 10.5849 53.5298 10.6889C53.1485 10.7929 52.8105 10.9489 52.5158 11.1569C52.2212 11.3649 51.9785 11.6335 51.7878 11.9629C51.6145 12.2749 51.5278 12.6475 51.5278 13.0809V22.3889H49.4478Z" fill="#000016"/>
<path d="M80.2119 8.97286H82.2659L76.2599 25.5089C76.1039 25.9075 75.9479 26.2369 75.7919 26.4969C75.6359 26.7742 75.4453 26.9909 75.2199 27.1469C74.9946 27.3029 74.7086 27.4155 74.3619 27.4849C74.0326 27.5542 73.6253 27.5889 73.1399 27.5889H72.0739V25.7689H74.1799L75.1939 22.9089L70.1759 8.97286H72.2559L75.4799 18.0989L76.1039 20.2829H76.2339L76.9619 18.0989L80.2119 8.97286Z" fill="#000016"/>
<path d="M89.7836 22.7009C88.8476 22.7009 88.0069 22.5362 87.2616 22.2069C86.5163 21.8775 85.8836 21.4095 85.3636 20.8029C84.8609 20.1962 84.4709 19.4595 84.1936 18.5929C83.9336 17.7262 83.8036 16.7555 83.8036 15.6809C83.8036 14.6062 83.9336 13.6355 84.1936 12.7689C84.4709 11.9022 84.8609 11.1655 85.3636 10.5589C85.8836 9.9522 86.5163 9.4842 87.2616 9.15486C88.0069 8.82553 88.8476 8.66087 89.7836 8.66087C91.1183 8.66087 92.1843 8.95553 92.9816 9.54486C93.7963 10.1169 94.4029 10.8709 94.8016 11.8069L93.0596 12.6909C92.8169 11.9975 92.4183 11.4602 91.8636 11.0789C91.3089 10.6975 90.6156 10.5069 89.7836 10.5069C89.1596 10.5069 88.6136 10.6109 88.1456 10.8189C87.6776 11.0095 87.2876 11.2869 86.9756 11.6509C86.6636 11.9975 86.4296 12.4222 86.2736 12.9249C86.1176 13.4102 86.0396 13.9475 86.0396 14.5369V16.8249C86.0396 18.0035 86.3516 18.9742 86.9756 19.7369C87.6169 20.4822 88.5529 20.8549 89.7836 20.8549C91.4649 20.8549 92.6783 20.0749 93.4236 18.5149L94.9316 19.5289C94.4983 20.4995 93.8483 21.2709 92.9816 21.8429C92.1323 22.4149 91.0663 22.7009 89.7836 22.7009Z" fill="#000016"/>
<path d="M102.785 22.7009C101.884 22.7009 101.061 22.5362 100.315 22.2069C99.5701 21.8775 98.9288 21.4095 98.3914 20.8029C97.8714 20.1789 97.4641 19.4422 97.1694 18.5929C96.8748 17.7262 96.7274 16.7555 96.7274 15.6809C96.7274 14.6235 96.8748 13.6615 97.1694 12.7949C97.4641 11.9282 97.8714 11.1915 98.3914 10.5849C98.9288 9.96086 99.5701 9.4842 100.315 9.15486C101.061 8.82553 101.884 8.66087 102.785 8.66087C103.687 8.66087 104.501 8.82553 105.229 9.15486C105.975 9.4842 106.616 9.96086 107.153 10.5849C107.691 11.1915 108.107 11.9282 108.401 12.7949C108.696 13.6615 108.843 14.6235 108.843 15.6809C108.843 16.7555 108.696 17.7262 108.401 18.5929C108.107 19.4422 107.691 20.1789 107.153 20.8029C106.616 21.4095 105.975 21.8775 105.229 22.2069C104.501 22.5362 103.687 22.7009 102.785 22.7009ZM102.785 20.8549C103.912 20.8549 104.831 20.5082 105.541 19.8149C106.252 19.1215 106.607 18.0642 106.607 16.6429V14.7189C106.607 13.2975 106.252 12.2402 105.541 11.5469C104.831 10.8535 103.912 10.5069 102.785 10.5069C101.659 10.5069 100.74 10.8535 100.029 11.5469C99.3188 12.2402 98.9634 13.2975 98.9634 14.7189V16.6429C98.9634 18.0642 99.3188 19.1215 100.029 19.8149C100.74 20.5082 101.659 20.8549 102.785 20.8549Z" fill="#000016"/>
<path d="M114.474 22.3889C113.746 22.3889 113.192 22.1895 112.81 21.7909C112.446 21.3749 112.264 20.8549 112.264 20.2309V3.14886H114.344V20.5689H116.32V22.3889H114.474Z" fill="#000016"/>
<path d="M121.431 22.3889C120.703 22.3889 120.149 22.1895 119.767 21.7909C119.403 21.3749 119.221 20.8549 119.221 20.2309V3.14886H121.301V20.5689H123.277V22.3889H121.431Z" fill="#000016"/>
<path d="M131.349 22.7009C130.431 22.7009 129.599 22.5362 128.853 22.2069C128.125 21.8775 127.493 21.4095 126.955 20.8029C126.435 20.1789 126.028 19.4422 125.733 18.5929C125.456 17.7262 125.317 16.7555 125.317 15.6809C125.317 14.6235 125.456 13.6615 125.733 12.7949C126.028 11.9282 126.435 11.1915 126.955 10.5849C127.493 9.96086 128.125 9.4842 128.853 9.15486C129.599 8.82553 130.431 8.66087 131.349 8.66087C132.251 8.66087 133.057 8.82553 133.767 9.15486C134.478 9.4842 135.085 9.94353 135.587 10.5329C136.09 11.1049 136.471 11.7895 136.731 12.5869C137.009 13.3842 137.147 14.2595 137.147 15.2129V16.2009H127.501V16.8249C127.501 17.3969 127.588 17.9342 127.761 18.4369C127.952 18.9222 128.212 19.3469 128.541 19.7109C128.888 20.0749 129.304 20.3609 129.789 20.5689C130.292 20.7769 130.855 20.8809 131.479 20.8809C132.329 20.8809 133.065 20.6815 133.689 20.2829C134.331 19.8842 134.825 19.3122 135.171 18.5669L136.653 19.6329C136.22 20.5515 135.544 21.2969 134.625 21.8689C133.707 22.4235 132.615 22.7009 131.349 22.7009ZM131.349 10.4029C130.777 10.4029 130.257 10.5069 129.789 10.7149C129.321 10.9055 128.914 11.1829 128.567 11.5469C128.238 11.9109 127.978 12.3442 127.787 12.8469C127.597 13.3322 127.501 13.8695 127.501 14.4589V14.6409H134.911V14.3549C134.911 13.1589 134.582 12.2055 133.923 11.4949C133.282 10.7669 132.424 10.4029 131.349 10.4029Z" fill="#000016"/>
<path d="M151.885 23.8709C151.885 25.2575 151.339 26.2715 150.247 26.9129C149.172 27.5715 147.551 27.9009 145.385 27.9009C143.287 27.9009 141.779 27.6149 140.861 27.0429C139.942 26.4709 139.483 25.6562 139.483 24.5989C139.483 23.8709 139.673 23.2989 140.055 22.8829C140.436 22.4842 140.956 22.1895 141.615 21.9989V21.7129C140.817 21.3315 140.419 20.7075 140.419 19.8409C140.419 19.1649 140.635 18.6535 141.069 18.3069C141.502 17.9429 142.057 17.6742 142.733 17.5009V17.3969C141.935 17.0155 141.311 16.4695 140.861 15.7589C140.427 15.0482 140.211 14.2249 140.211 13.2889C140.211 12.6129 140.332 11.9889 140.575 11.4169C140.817 10.8449 141.155 10.3595 141.589 9.96086C142.039 9.54486 142.568 9.2242 143.175 8.99886C143.799 8.77353 144.492 8.66087 145.255 8.66087C146.208 8.66087 147.057 8.8342 147.803 9.18086V8.94686C147.803 8.42686 147.924 8.0022 148.167 7.67286C148.409 7.3262 148.808 7.15286 149.363 7.15286H151.365V8.97286H148.817V9.83086C149.302 10.2469 149.675 10.7495 149.935 11.3389C150.212 11.9109 150.351 12.5609 150.351 13.2889C150.351 13.9649 150.229 14.5889 149.987 15.1609C149.744 15.7329 149.397 16.2269 148.947 16.6429C148.513 17.0415 147.985 17.3535 147.361 17.5789C146.737 17.8042 146.043 17.9169 145.281 17.9169C144.847 17.9169 144.414 17.8735 143.981 17.7869C143.53 17.9082 143.123 18.0902 142.759 18.3329C142.395 18.5582 142.213 18.8789 142.213 19.2949C142.213 19.6935 142.403 19.9622 142.785 20.1009C143.166 20.2395 143.66 20.3089 144.267 20.3089H147.127C148.791 20.3089 149.995 20.6295 150.741 21.2709C151.503 21.8949 151.885 22.7615 151.885 23.8709ZM149.935 24.0269C149.935 23.4895 149.727 23.0562 149.311 22.7269C148.912 22.4149 148.193 22.2589 147.153 22.2589H142.681C141.849 22.6402 141.433 23.2469 141.433 24.0789C141.433 24.6682 141.649 25.1709 142.083 25.5869C142.533 26.0029 143.287 26.2109 144.345 26.2109H146.269C147.43 26.2109 148.331 26.0289 148.973 25.6649C149.614 25.3009 149.935 24.7549 149.935 24.0269ZM145.281 16.2529C146.165 16.2529 146.867 16.0449 147.387 15.6289C147.907 15.1955 148.167 14.5369 148.167 13.6529V12.9249C148.167 12.0409 147.907 11.3909 147.387 10.9749C146.867 10.5415 146.165 10.3249 145.281 10.3249C144.397 10.3249 143.695 10.5415 143.175 10.9749C142.655 11.3909 142.395 12.0409 142.395 12.9249V13.6529C142.395 14.5369 142.655 15.1955 143.175 15.6289C143.695 16.0449 144.397 16.2529 145.281 16.2529Z" fill="#000016"/>
<path d="M159.203 22.7009C158.284 22.7009 157.452 22.5362 156.707 22.2069C155.979 21.8775 155.346 21.4095 154.809 20.8029C154.289 20.1789 153.881 19.4422 153.587 18.5929C153.309 17.7262 153.171 16.7555 153.171 15.6809C153.171 14.6235 153.309 13.6615 153.587 12.7949C153.881 11.9282 154.289 11.1915 154.809 10.5849C155.346 9.96086 155.979 9.4842 156.707 9.15486C157.452 8.82553 158.284 8.66087 159.203 8.66087C160.104 8.66087 160.91 8.82553 161.621 9.15486C162.331 9.4842 162.938 9.94353 163.441 10.5329C163.943 11.1049 164.325 11.7895 164.585 12.5869C164.862 13.3842 165.001 14.2595 165.001 15.2129V16.2009H155.355V16.8249C155.355 17.3969 155.441 17.9342 155.615 18.4369C155.805 18.9222 156.065 19.3469 156.395 19.7109C156.741 20.0749 157.157 20.3609 157.643 20.5689C158.145 20.7769 158.709 20.8809 159.333 20.8809C160.182 20.8809 160.919 20.6815 161.543 20.2829C162.184 19.8842 162.678 19.3122 163.025 18.5669L164.507 19.6329C164.073 20.5515 163.397 21.2969 162.479 21.8689C161.56 22.4235 160.468 22.7009 159.203 22.7009ZM159.203 10.4029C158.631 10.4029 158.111 10.5069 157.643 10.7149C157.175 10.9055 156.767 11.1829 156.421 11.5469C156.091 11.9109 155.831 12.3442 155.641 12.8469C155.45 13.3322 155.355 13.8695 155.355 14.4589V14.6409H162.765V14.3549C162.765 13.1589 162.435 12.2055 161.777 11.4949C161.135 10.7669 160.277 10.4029 159.203 10.4029Z" fill="#000016"/>
<path d="M49.0318 48.3889V34.7389H52.8798V37.7029H53.0098C53.0792 37.3215 53.2005 36.9575 53.3738 36.6109C53.5472 36.2469 53.7725 35.9262 54.0498 35.6489C54.3445 35.3715 54.6912 35.1549 55.0898 34.9989C55.4885 34.8255 55.9565 34.7389 56.4938 34.7389H57.1698V38.3269H56.2078C55.0812 38.3269 54.2405 38.4742 53.6858 38.7689C53.1485 39.0635 52.8798 39.6095 52.8798 40.4069V48.3889H49.0318Z" fill="#000016"/>
<path d="M64.9546 48.7009C63.9493 48.7009 63.0479 48.5362 62.2506 48.2069C61.4706 47.8775 60.8033 47.4009 60.2486 46.7769C59.7113 46.1529 59.2953 45.3989 59.0006 44.5149C58.7059 43.6309 58.5586 42.6429 58.5586 41.5509C58.5586 40.4589 58.7059 39.4709 59.0006 38.5869C59.2953 37.7029 59.7113 36.9575 60.2486 36.3509C60.8033 35.7269 61.4706 35.2502 62.2506 34.9209C63.0479 34.5915 63.9493 34.4269 64.9546 34.4269C65.9599 34.4269 66.8526 34.5915 67.6326 34.9209C68.4299 35.2502 69.0973 35.7269 69.6346 36.3509C70.1893 36.9575 70.6139 37.7029 70.9086 38.5869C71.2033 39.4709 71.3506 40.4589 71.3506 41.5509C71.3506 42.6429 71.2033 43.6309 70.9086 44.5149C70.6139 45.3989 70.1893 46.1529 69.6346 46.7769C69.0973 47.4009 68.4299 47.8775 67.6326 48.2069C66.8526 48.5362 65.9599 48.7009 64.9546 48.7009ZM64.9546 45.6589C65.7173 45.6589 66.3066 45.4249 66.7226 44.9569C67.1386 44.4889 67.3466 43.8215 67.3466 42.9549V40.1729C67.3466 39.3062 67.1386 38.6389 66.7226 38.1709C66.3066 37.7029 65.7173 37.4689 64.9546 37.4689C64.1919 37.4689 63.6026 37.7029 63.1866 38.1709C62.7706 38.6389 62.5626 39.3062 62.5626 40.1729V42.9549C62.5626 43.8215 62.7706 44.4889 63.1866 44.9569C63.6026 45.4249 64.1919 45.6589 64.9546 45.6589Z" fill="#000016"/>
<path d="M79.6304 48.7009C78.6251 48.7009 77.7237 48.5362 76.9264 48.2069C76.1464 47.8775 75.4791 47.4009 74.9244 46.7769C74.3871 46.1529 73.9711 45.3989 73.6764 44.5149C73.3817 43.6309 73.2344 42.6429 73.2344 41.5509C73.2344 40.4589 73.3817 39.4709 73.6764 38.5869C73.9711 37.7029 74.3871 36.9575 74.9244 36.3509C75.4791 35.7269 76.1464 35.2502 76.9264 34.9209C77.7237 34.5915 78.6251 34.4269 79.6304 34.4269C80.6357 34.4269 81.5284 34.5915 82.3084 34.9209C83.1057 35.2502 83.7731 35.7269 84.3104 36.3509C84.8651 36.9575 85.2897 37.7029 85.5844 38.5869C85.8791 39.4709 86.0264 40.4589 86.0264 41.5509C86.0264 42.6429 85.8791 43.6309 85.5844 44.5149C85.2897 45.3989 84.8651 46.1529 84.3104 46.7769C83.7731 47.4009 83.1057 47.8775 82.3084 48.2069C81.5284 48.5362 80.6357 48.7009 79.6304 48.7009ZM79.6304 45.6589C80.3931 45.6589 80.9824 45.4249 81.3984 44.9569C81.8144 44.4889 82.0224 43.8215 82.0224 42.9549V40.1729C82.0224 39.3062 81.8144 38.6389 81.3984 38.1709C80.9824 37.7029 80.3931 37.4689 79.6304 37.4689C78.8677 37.4689 78.2784 37.7029 77.8624 38.1709C77.4464 38.6389 77.2384 39.3062 77.2384 40.1729V42.9549C77.2384 43.8215 77.4464 44.4889 77.8624 44.9569C78.2784 45.4249 78.8677 45.6589 79.6304 45.6589Z" fill="#000016"/>
<path d="M88.7682 48.3889V34.7389H92.6162V37.0529H92.7722C93.0148 36.3249 93.4308 35.7095 94.0202 35.2069C94.6095 34.6869 95.4155 34.4269 96.4382 34.4269C97.3742 34.4269 98.1715 34.6609 98.8302 35.1289C99.4888 35.5969 99.9655 36.2815 100.26 37.1829H100.338C100.46 36.8015 100.642 36.4462 100.884 36.1169C101.144 35.7702 101.456 35.4755 101.82 35.2329C102.184 34.9902 102.592 34.7995 103.042 34.6609C103.493 34.5049 103.978 34.4269 104.498 34.4269C105.816 34.4269 106.821 34.8949 107.514 35.8309C108.225 36.7669 108.58 38.1015 108.58 39.8349V48.3889H104.732V40.1469C104.732 38.4135 104.108 37.5469 102.86 37.5469C102.288 37.5469 101.768 37.7115 101.3 38.0409C100.832 38.3702 100.598 38.8729 100.598 39.5489V48.3889H96.7502V40.1469C96.7502 38.4135 96.1262 37.5469 94.8782 37.5469C94.6008 37.5469 94.3235 37.5902 94.0462 37.6769C93.7862 37.7462 93.5435 37.8675 93.3182 38.0409C93.1102 38.2142 92.9368 38.4309 92.7982 38.6909C92.6768 38.9335 92.6162 39.2195 92.6162 39.5489V48.3889H88.7682Z" fill="#000016"/>
<path d="M113.925 33.2829C113.145 33.2829 112.573 33.1095 112.209 32.7629C111.862 32.3989 111.689 31.9395 111.689 31.3849V30.8129C111.689 30.2582 111.862 29.8075 112.209 29.4609C112.573 29.0969 113.145 28.9149 113.925 28.9149C114.705 28.9149 115.268 29.0969 115.615 29.4609C115.979 29.8075 116.161 30.2582 116.161 30.8129V31.3849C116.161 31.9395 115.979 32.3989 115.615 32.7629C115.268 33.1095 114.705 33.2829 113.925 33.2829ZM112.001 34.7389H115.849V48.3889H112.001V34.7389Z" fill="#000016"/>
<path d="M125.134 48.7009C124.094 48.7009 123.167 48.5362 122.352 48.2069C121.537 47.8602 120.844 47.3835 120.272 46.7769C119.717 46.1529 119.293 45.3989 118.998 44.5149C118.721 43.6309 118.582 42.6429 118.582 41.5509C118.582 40.4762 118.721 39.5055 118.998 38.6389C119.275 37.7549 119.683 37.0009 120.22 36.3769C120.775 35.7529 121.451 35.2762 122.248 34.9469C123.045 34.6002 123.955 34.4269 124.978 34.4269C126.105 34.4269 127.067 34.6175 127.864 34.9989C128.679 35.3802 129.337 35.8915 129.84 36.5329C130.36 37.1742 130.733 37.9195 130.958 38.7689C131.201 39.6009 131.322 40.4762 131.322 41.3949V42.5389H122.56V42.7469C122.56 43.6482 122.803 44.3675 123.288 44.9049C123.773 45.4249 124.536 45.6849 125.576 45.6849C126.373 45.6849 127.023 45.5289 127.526 45.2169C128.029 44.8875 128.497 44.4975 128.93 44.0469L130.854 46.4389C130.247 47.1495 129.45 47.7042 128.462 48.1029C127.491 48.5015 126.382 48.7009 125.134 48.7009ZM125.056 37.2609C124.276 37.2609 123.661 37.5209 123.21 38.0409C122.777 38.5435 122.56 39.2195 122.56 40.0689V40.2769H127.344V40.0429C127.344 39.2109 127.153 38.5435 126.772 38.0409C126.408 37.5209 125.836 37.2609 125.056 37.2609Z" fill="#000016"/>
<path d="M17.0495 31.3157C16.845 27.6994 14.387 24.4635 10.7395 23.4746C6.18893 22.2416 1.5116 24.9735 0.292654 29.576C-0.926294 34.1792 1.77376 38.9106 6.32437 40.1436C8.46859 40.7249 10.641 40.4258 12.4667 39.4647C11.1459 42.9536 10.4848 46.6479 10.4841 50.5545H14.8691C14.8711 43.2438 17.4277 36.9831 22.5582 31.7722C23.0631 31.2615 23.5781 30.7758 24.103 30.3153C23.2515 28.9324 22.7969 27.3033 22.8472 25.6192C20.6581 27.2592 18.7257 29.1583 17.0495 31.3157Z" fill="url(#paint0_linear)"/>
<path d="M28.551 11.5865C29.7699 6.98267 27.0699 2.25197 22.5193 1.01826C17.9687 -0.214767 13.2913 2.51649 12.0724 7.11967C10.8528 11.7229 13.5535 16.4542 18.1041 17.6873C18.2757 17.7341 18.4481 17.7741 18.6197 17.8093C16.6806 19.1529 14.8891 20.6525 13.2477 22.3128C13.1512 22.4105 13.0553 22.5082 12.9601 22.6072C14.3319 23.2813 15.5053 24.2465 16.4232 25.4062C22.9061 18.8375 32 15.0808 41.1669 15.0808V10.6458C36.6827 10.6458 32.3024 11.3898 28.079 12.9199C28.2687 12.4967 28.4276 12.0518 28.551 11.5865Z" fill="url(#paint1_linear)"/>
<path d="M37.5746 28.6577C37.7053 28.3498 37.8153 28.0304 37.9031 27.698C38.9015 23.9291 36.6902 20.0557 32.965 19.0458C29.2391 18.0366 25.4099 20.2727 24.4115 24.0417C23.4896 27.523 25.306 31.0946 28.5263 32.4145C27.5367 33.1402 26.5853 33.9629 25.6741 34.8846C21.3957 39.2131 19.2548 44.443 19.2528 50.5559H23.6371C23.6398 45.6624 25.3435 41.4832 28.7704 38.0167C32.1939 34.5536 36.3255 32.8248 41.1664 32.8248L41.1563 28.3891C39.9253 28.3885 38.7318 28.478 37.5746 28.6577Z" fill="url(#paint2_linear)"/>
<defs>
<linearGradient id="paint0_linear" x1="10.1108" y1="23.1114" x2="14.2478" y2="50.0311" gradientUnits="userSpaceOnUse">
<stop stop-color="#228400"/>
<stop offset="1" stop-color="#52C234"/>
</linearGradient>
<linearGradient id="paint1_linear" x1="41.1663" y1="10.4726" x2="10.2273" y2="18.0522" gradientUnits="userSpaceOnUse">
<stop stop-color="#FF512F"/>
<stop offset="1" stop-color="#FDC830"/>
</linearGradient>
<linearGradient id="paint2_linear" x1="41.1663" y1="28.5281" x2="29.4562" y2="54.966" gradientUnits="userSpaceOnUse">
<stop stop-color="#225794"/>
<stop offset="1" stop-color="#1488CC"/>
</linearGradient>
</defs>
</svg>
