<svg width="20" height="20" viewBox="0 0 20 20" fill="none" xmlns="http://www.w3.org/2000/svg">
<path fill-rule="evenodd" clip-rule="evenodd" d="M19.6 10C19.6 12.5461 18.5886 14.9879 16.7882 16.7882C14.9879 18.5886 12.5461 19.6 10 19.6C7.45395 19.6 5.01215 18.5886 3.2118 16.7882C1.41145 14.9879 0.400024 12.5461 0.400024 10C0.400024 7.45395 1.41145 5.01215 3.2118 3.2118C5.01215 1.41145 7.45395 0.400024 10 0.400024C12.5461 0.400024 14.9879 1.41145 16.7882 3.2118C18.5886 5.01215 19.6 7.45395 19.6 10V10ZM12.4 6.40002C12.4 7.03654 12.1472 7.64699 11.6971 8.09708C11.247 8.54717 10.6365 8.80002 10 8.80002C9.3635 8.80002 8.75306 8.54717 8.30297 8.09708C7.85288 7.64699 7.60002 7.03654 7.60002 6.40002C7.60002 5.7635 7.85288 5.15306 8.30297 4.70297C8.75306 4.25288 9.3635 4.00002 10 4.00002C10.6365 4.00002 11.247 4.25288 11.6971 4.70297C12.1472 5.15306 12.4 5.7635 12.4 6.40002V6.40002ZM10 11.2C8.85115 11.1998 7.72636 11.5294 6.75932 12.1497C5.79229 12.77 5.02368 13.6549 4.54482 14.6992C5.22004 15.4847 6.05715 16.1149 6.99876 16.5466C7.94036 16.9783 8.96419 17.2012 10 17.2C11.0359 17.2012 12.0597 16.9783 13.0013 16.5466C13.9429 16.1149 14.78 15.4847 15.4552 14.6992C14.9764 13.6549 14.2078 12.77 13.2407 12.1497C12.2737 11.5294 11.1489 11.1998 10 11.2V11.2Z" fill="#000000"/>
</svg>
