<svg width="24" height="24" viewBox="0 0 24 24" fill="none" xmlns="http://www.w3.org/2000/svg">
<path fill-rule="evenodd" clip-rule="evenodd" d="M2.40002 5.99998C2.40002 5.36346 2.65288 4.75301 3.10297 4.30292C3.55306 3.85283 4.1635 3.59998 4.80002 3.59998H14.4C15.0365 3.59998 15.647 3.85283 16.0971 4.30292C16.5472 4.75301 16.8 5.36346 16.8 5.99998V18C16.8 18.6365 17.0529 19.2469 17.503 19.697C17.9531 20.1471 18.5635 20.4 19.2 20.4H4.80002C4.1635 20.4 3.55306 20.1471 3.10297 19.697C2.65288 19.2469 2.40002 18.6365 2.40002 18V5.99998ZM6.00002 7.19998H13.2V12H6.00002V7.19998ZM13.2 14.4H6.00002V16.8H13.2V14.4Z" fill="#000000"/>
<path d="M18 8.40002H19.2C19.8365 8.40002 20.447 8.65288 20.8971 9.10297C21.3471 9.55306 21.6 10.1635 21.6 10.8V17.4C21.6 17.8774 21.4104 18.3353 21.0728 18.6728C20.7352 19.0104 20.2774 19.2 19.8 19.2C19.3226 19.2 18.8648 19.0104 18.5272 18.6728C18.1896 18.3353 18 17.8774 18 17.4V8.40002Z" fill="#000000"/>
</svg>
