<svg width="430" height="320" viewBox="0 0 430 320" fill="none" xmlns="http://www.w3.org/2000/svg">
<path d="M429.461 281.211H0V281.426H429.461V281.211Z" fill="#D1D5DB"/>
<path d="M386.429 295.031H357.981V295.246H386.429V295.031Z" fill="#D1D5DB"/>
<path d="M284.492 297.367H277.028V297.582H284.492V297.367Z" fill="#D1D5DB"/>
<path d="M357.122 287.06H340.64V287.275H357.122V287.06Z" fill="#D1D5DB"/>
<path d="M82.1559 288.503H45.0591V288.718H82.1559V288.503Z" fill="#D1D5DB"/>
<path d="M95.2456 288.503H89.8086V288.718H95.2456V288.503Z" fill="#D1D5DB"/>
<path d="M193.386 292.128H112.922V292.343H193.386V292.128Z" fill="#D1D5DB"/>
<path d="M203.564 242.903H37.7152C36.4159 242.901 35.1707 242.383 34.2528 241.464C33.3349 240.544 32.8193 239.298 32.8193 237.999V4.8615C32.8306 3.5697 33.3512 2.33453 34.2679 1.42428C35.1845 0.514029 36.4233 0.00221292 37.7152 0H203.564C204.865 0 206.113 0.516717 207.032 1.43648C207.952 2.35624 208.469 3.6037 208.469 4.90444V237.999C208.469 239.299 207.952 240.547 207.032 241.467C206.113 242.386 204.865 242.903 203.564 242.903ZM37.7152 0.171785C36.4729 0.17406 35.2823 0.669156 34.4046 1.5484C33.527 2.42765 33.0341 3.6192 33.0341 4.8615V237.999C33.0341 239.241 33.527 240.433 34.4046 241.312C35.2823 242.191 36.4729 242.686 37.7152 242.688H203.564C204.808 242.686 205.999 242.191 206.878 241.312C207.757 240.433 208.252 239.242 208.254 237.999V4.8615C208.252 3.61841 207.757 2.42688 206.878 1.54788C205.999 0.668877 204.808 0.174056 203.564 0.171785H37.7152Z" fill="#D1D5DB"/>
<path d="M389.358 242.903H223.5C222.2 242.901 220.954 242.383 220.035 241.464C219.115 240.545 218.598 239.299 218.596 237.999V4.8615C218.609 3.56892 219.132 2.33376 220.05 1.42374C220.968 0.513729 222.207 0.00218878 223.5 0H389.358C390.648 0.00447026 391.885 0.517285 392.8 1.42729C393.715 2.3373 394.234 3.57118 394.245 4.8615V237.999C394.245 239.296 393.731 240.541 392.815 241.461C391.899 242.38 390.656 242.899 389.358 242.903ZM223.5 0.171785C222.257 0.174056 221.066 0.668877 220.187 1.54788C219.308 2.42688 218.813 3.61841 218.81 4.8615V237.999C218.813 239.242 219.308 240.433 220.187 241.312C221.066 242.191 222.257 242.686 223.5 242.688H389.358C390.601 242.686 391.793 242.191 392.672 241.312C393.551 240.433 394.045 239.242 394.048 237.999V4.8615C394.045 3.61841 393.551 2.42688 392.672 1.54788C391.793 0.668877 390.601 0.174056 389.358 0.171785H223.5Z" fill="#D1D5DB"/>
<path d="M308.92 98.2864H350.174L349.538 92.712H308.284L308.92 98.2864Z" fill="#E5E7EB"/>
<path d="M311.875 124.363H353.129L352.493 118.789H311.239L311.875 124.363Z" fill="#E5E7EB"/>
<path d="M314.829 150.44H356.083L355.447 144.857H314.193L314.829 150.44Z" fill="#E5E7EB"/>
<path d="M317.775 176.508H359.038L358.402 170.934H317.148L317.775 176.508Z" fill="#E5E7EB"/>
<path d="M320.73 202.585H361.984L361.357 197.002H320.103L320.73 202.585Z" fill="#E5E7EB"/>
<path d="M323.685 228.654H364.939L364.312 223.079H323.058L323.685 228.654Z" fill="#E5E7EB"/>
<path d="M326.639 254.731H367.893L367.266 249.148H326.012L326.639 254.731Z" fill="#E5E7EB"/>
<path d="M368.065 281.254H374.525L351.901 81.6148H345.441L368.065 281.254Z" fill="#D1D5DB"/>
<path d="M326.022 281.254H332.489L309.865 81.6148H303.406L326.022 281.254Z" fill="#D1D5DB"/>
<path d="M247.807 54.3698L354.193 54.3698V48.237L247.807 48.237V54.3698Z" fill="#F9FAFB"/>
<path d="M267.348 31.5224L266.721 30.6635C266.613 30.5084 266.469 30.3815 266.302 30.2933C266.134 30.2052 265.948 30.1583 265.759 30.1568H261.396C261.213 30.1545 261.033 30.2001 260.873 30.289C260.714 30.3779 260.58 30.507 260.486 30.6635L259.97 31.5224C259.875 31.6784 259.741 31.8071 259.582 31.8959C259.422 31.9847 259.242 32.0306 259.06 32.0292H256.483C256.337 32.0276 256.192 32.0564 256.057 32.1137C255.923 32.1711 255.802 32.2557 255.702 32.3623C255.601 32.4689 255.524 32.595 255.476 32.7329C255.427 32.8707 255.407 33.0172 255.418 33.163L256.277 47.7647C256.296 48.0679 256.429 48.3527 256.648 48.5628C256.868 48.7728 257.158 48.8926 257.462 48.8984H278.076C278.222 48.9001 278.367 48.8713 278.501 48.8139C278.635 48.7565 278.756 48.6717 278.855 48.565C278.954 48.4583 279.031 48.332 279.078 48.1941C279.126 48.0563 279.145 47.91 279.133 47.7647L278.274 33.163C278.254 32.8598 278.122 32.5749 277.902 32.3649C277.683 32.1549 277.392 32.0351 277.088 32.0292H268.31C268.121 32.0276 267.935 31.9808 267.768 31.8926C267.6 31.8045 267.457 31.6775 267.348 31.5224Z" fill="#D1D5DB"/>
<path d="M279.15 33.4207H260.253C259.866 33.4268 259.494 33.5742 259.208 33.8352C258.922 34.0962 258.74 34.4528 258.699 34.8379L257.556 47.4641C257.537 47.6455 257.556 47.829 257.613 48.0024C257.67 48.1757 257.764 48.3348 257.887 48.469C258.011 48.6033 258.162 48.7095 258.33 48.7806C258.498 48.8517 258.679 48.886 258.862 48.8813H277.758C278.145 48.8752 278.517 48.7278 278.804 48.4668C279.09 48.2058 279.271 47.8492 279.313 47.4641L280.447 34.8379C280.468 34.6569 280.449 34.4736 280.393 34.3002C280.337 34.1269 280.245 33.9676 280.122 33.8332C279.999 33.6988 279.848 33.5924 279.68 33.5213C279.513 33.4501 279.332 33.4158 279.15 33.4207Z" fill="#D1D5DB"/>
<path d="M301.706 31.5224L301.079 30.6635C300.97 30.5084 300.827 30.3815 300.659 30.2933C300.492 30.2052 300.306 30.1583 300.117 30.1568H295.753C295.571 30.1545 295.39 30.2001 295.231 30.289C295.071 30.3779 294.937 30.507 294.843 30.6635L294.328 31.5224C294.233 31.6784 294.099 31.8071 293.939 31.8959C293.78 31.9847 293.6 32.0306 293.417 32.0292H290.84C290.694 32.0276 290.549 32.0564 290.415 32.1137C290.28 32.1711 290.159 32.2557 290.059 32.3623C289.959 32.4689 289.882 32.595 289.833 32.7329C289.784 32.8707 289.765 33.0172 289.775 33.163L290.634 47.7647C290.654 48.0679 290.786 48.3527 291.006 48.5628C291.225 48.7728 291.516 48.8926 291.82 48.8984H312.434C312.58 48.9001 312.724 48.8713 312.858 48.8139C312.992 48.7565 313.113 48.6717 313.212 48.565C313.312 48.4583 313.388 48.332 313.436 48.1941C313.484 48.0563 313.502 47.91 313.49 47.7647L312.631 33.163C312.612 32.8598 312.479 32.5749 312.26 32.3649C312.04 32.1549 311.75 32.0351 311.446 32.0292H302.668C302.479 32.0276 302.293 31.9808 302.125 31.8926C301.958 31.8045 301.814 31.6775 301.706 31.5224Z" fill="#D1D5DB"/>
<path d="M313.507 33.4207H294.611C294.223 33.4268 293.852 33.5742 293.565 33.8352C293.279 34.0962 293.098 34.4528 293.056 34.8379L291.914 47.4641C291.894 47.6455 291.913 47.829 291.971 48.0024C292.028 48.1757 292.121 48.3348 292.245 48.469C292.368 48.6033 292.519 48.7095 292.687 48.7806C292.856 48.8517 293.037 48.886 293.219 48.8813H312.116C312.503 48.8752 312.875 48.7278 313.161 48.4668C313.447 48.2058 313.628 47.8492 313.67 47.4641L314.804 34.8379C314.825 34.6569 314.807 34.4736 314.751 34.3002C314.695 34.1269 314.602 33.9676 314.479 33.8332C314.356 33.6988 314.206 33.5924 314.038 33.5213C313.87 33.4501 313.689 33.4158 313.507 33.4207Z" fill="#D1D5DB"/>
<path d="M336.062 31.5224L335.435 30.6635C335.327 30.5084 335.183 30.3815 335.016 30.2933C334.848 30.2052 334.662 30.1583 334.473 30.1568H330.11C329.927 30.1545 329.747 30.2001 329.587 30.289C329.427 30.3779 329.294 30.507 329.199 30.6635L328.684 31.5224C328.589 31.6784 328.455 31.8071 328.296 31.8959C328.136 31.9847 327.956 32.0306 327.774 32.0292H325.197C325.051 32.0276 324.906 32.0564 324.771 32.1137C324.637 32.1711 324.515 32.2557 324.415 32.3623C324.315 32.4689 324.238 32.595 324.19 32.7329C324.141 32.8707 324.121 33.0172 324.132 33.163L324.991 47.7647C325.01 48.0679 325.143 48.3527 325.362 48.5628C325.582 48.7728 325.872 48.8926 326.176 48.8984H346.79C346.936 48.9001 347.081 48.8713 347.215 48.8139C347.349 48.7565 347.469 48.6717 347.569 48.565C347.668 48.4583 347.744 48.332 347.792 48.1941C347.84 48.0563 347.859 47.91 347.847 47.7647L346.988 33.163C346.968 32.8598 346.836 32.5749 346.616 32.3649C346.397 32.1549 346.106 32.0351 345.802 32.0292H337.024C336.835 32.0276 336.649 31.9808 336.482 31.8926C336.314 31.8045 336.17 31.6775 336.062 31.5224Z" fill="#D1D5DB"/>
<path d="M347.863 33.4207H328.967C328.58 33.4268 328.208 33.5742 327.922 33.8352C327.635 34.0962 327.454 34.4528 327.413 34.8379L326.27 47.4641C326.25 47.6455 326.27 47.829 326.327 48.0024C326.384 48.1757 326.478 48.3348 326.601 48.469C326.725 48.6033 326.876 48.7095 327.044 48.7806C327.212 48.8517 327.393 48.886 327.576 48.8813H346.472C346.859 48.8752 347.231 48.7278 347.517 48.4668C347.804 48.2058 347.985 47.8492 348.027 47.4641L349.16 34.8379C349.181 34.6569 349.163 34.4736 349.107 34.3002C349.051 34.1269 348.958 33.9676 348.835 33.8332C348.712 33.6988 348.562 33.5924 348.394 33.5213C348.227 33.4501 348.046 33.4158 347.863 33.4207Z" fill="#D1D5DB"/>
<path d="M184.273 40.7301H59.1025V120.352H184.273V40.7301Z" fill="#E5E7EB"/>
<path d="M184.273 40.7301H59.1025V46.1241H184.273V40.7301Z" fill="#D1D5DB"/>
<path d="M182.418 43.4271C182.418 43.7499 182.323 44.0654 182.143 44.3337C181.964 44.6021 181.709 44.8113 181.411 44.9348C181.113 45.0583 180.784 45.0906 180.468 45.0277C180.151 44.9647 179.861 44.8093 179.632 44.581C179.404 44.3528 179.249 44.062 179.186 43.7455C179.123 43.4289 179.155 43.1008 179.279 42.8026C179.402 42.5044 179.611 42.2495 179.88 42.0702C180.148 41.8908 180.463 41.7951 180.786 41.7951C181.219 41.7951 181.634 41.9671 181.94 42.2731C182.246 42.5792 182.418 42.9943 182.418 43.4271Z" fill="#F9FAFB"/>
<path d="M177.015 43.4271C177.015 43.7499 176.919 44.0654 176.74 44.3337C176.561 44.6021 176.306 44.8113 176.007 44.9348C175.709 45.0583 175.381 45.0906 175.065 45.0277C174.748 44.9647 174.457 44.8093 174.229 44.581C174.001 44.3528 173.845 44.062 173.782 43.7455C173.719 43.4289 173.752 43.1008 173.875 42.8026C173.999 42.5044 174.208 42.2495 174.476 42.0702C174.745 41.8908 175.06 41.7951 175.383 41.7951C175.816 41.7951 176.231 41.9671 176.537 42.2731C176.843 42.5792 177.015 42.9943 177.015 43.4271Z" fill="#F9FAFB"/>
<path d="M171.613 43.4271C171.613 43.7502 171.517 44.0661 171.337 44.3346C171.157 44.6032 170.902 44.8123 170.603 44.9356C170.304 45.0589 169.976 45.0907 169.659 45.027C169.342 44.9633 169.051 44.8071 168.824 44.578C168.596 44.3489 168.441 44.0573 168.379 43.7402C168.317 43.423 168.351 43.0946 168.475 42.7966C168.6 42.4985 168.811 42.2443 169.08 42.066C169.35 41.8877 169.666 41.7934 169.989 41.7951C170.203 41.7951 170.415 41.8374 170.612 41.9195C170.81 42.0016 170.989 42.122 171.14 42.2736C171.291 42.4253 171.41 42.6053 171.491 42.8032C171.573 43.0012 171.614 43.2132 171.613 43.4271Z" fill="#F9FAFB"/>
<path d="M81.7436 55.4778L80.9705 54.4041C80.8342 54.2117 80.6541 54.0544 80.445 53.9454C80.2359 53.8364 80.0039 53.7787 79.768 53.7771H74.3397C74.1137 53.7745 73.8911 53.8311 73.6937 53.941C73.4964 54.051 73.3312 54.2106 73.2145 54.4041L72.5703 55.4778C72.4509 55.6707 72.284 55.8298 72.0854 55.9396C71.8869 56.0494 71.6634 56.1063 71.4365 56.1048H68.1984C68.014 56.1025 67.8312 56.1394 67.6621 56.2129C67.493 56.2864 67.3414 56.3948 67.2173 56.5312C67.0931 56.6675 66.9992 56.8286 66.9418 57.0038C66.8844 57.179 66.8648 57.3644 66.8842 57.5478L67.9321 75.6796C67.9558 76.0572 68.1211 76.412 68.395 76.6731C68.6688 76.9343 69.0311 77.0825 69.4094 77.0882H95.0912C95.2724 77.09 95.452 77.054 95.6185 76.9826C95.7851 76.9112 95.9349 76.8058 96.0585 76.6733C96.1821 76.5408 96.2768 76.3841 96.3365 76.213C96.3962 76.0419 96.4197 75.8602 96.4054 75.6796L95.3403 57.5478C95.3166 57.1701 95.1513 56.8153 94.8774 56.5542C94.6036 56.2931 94.2413 56.1449 93.863 56.1391H82.9375C82.7004 56.1309 82.4686 56.0667 82.2611 55.9518C82.0536 55.8368 81.8763 55.6744 81.7436 55.4778Z" fill="#D1D5DB"/>
<path d="M96.4485 57.8312H72.9226C72.4469 57.8372 71.9891 58.014 71.6327 58.3293C71.2764 58.6447 71.0453 59.0776 70.9815 59.5491L69.5728 75.2931C69.5483 75.5179 69.5721 75.7454 69.6426 75.9603C69.713 76.1752 69.8285 76.3726 69.9814 76.5393C70.1342 76.7059 70.3209 76.8381 70.5289 76.9268C70.7369 77.0156 70.9615 77.0589 71.1876 77.0539H94.7135C95.1954 77.0481 95.6584 76.8656 96.0147 76.5411C96.3709 76.2165 96.5956 75.7724 96.6461 75.2931L98.0633 59.592C98.0878 59.3672 98.064 59.1397 97.9936 58.9248C97.9231 58.7099 97.8076 58.5125 97.6547 58.3459C97.5019 58.1792 97.3152 58.047 97.1072 57.9583C96.8992 57.8696 96.6746 57.8262 96.4485 57.8312Z" fill="#D1D5DB"/>
<path d="M120.919 55.4778L120.146 54.4041C120.01 54.2117 119.829 54.0544 119.62 53.9454C119.411 53.8364 119.179 53.7787 118.943 53.7771H113.515C113.289 53.7745 113.066 53.8311 112.869 53.941C112.672 54.051 112.506 54.2106 112.39 54.4041L111.746 55.4778C111.626 55.6707 111.459 55.8298 111.261 55.9396C111.062 56.0494 110.839 56.1063 110.612 56.1048H107.365C107.184 56.103 107.004 56.139 106.838 56.2104C106.671 56.2819 106.521 56.3872 106.398 56.5197C106.274 56.6522 106.18 56.8089 106.12 56.98C106.06 57.1511 106.037 57.3328 106.051 57.5134L107.099 75.6453C107.123 76.0229 107.288 76.3777 107.562 76.6388C107.836 76.8999 108.198 77.0481 108.576 77.0539H134.258C134.439 77.0556 134.619 77.0197 134.785 76.9482C134.952 76.8768 135.102 76.7715 135.225 76.639C135.349 76.5065 135.444 76.3497 135.503 76.1786C135.563 76.0075 135.586 75.8259 135.572 75.6453L134.533 57.5478C134.509 57.1701 134.344 56.8153 134.07 56.5542C133.796 56.2931 133.434 56.1449 133.055 56.1391H122.113C121.876 56.1309 121.644 56.0667 121.436 55.9518C121.229 55.8368 121.052 55.6744 120.919 55.4778Z" fill="#D1D5DB"/>
<path d="M135.623 57.8312H112.097C111.621 57.8355 111.162 58.0116 110.806 58.3273C110.449 58.6429 110.218 59.0768 110.156 59.5491L108.748 75.2502C108.722 75.4753 108.745 75.7033 108.814 75.9189C108.884 76.1344 109 76.3324 109.153 76.4994C109.306 76.6664 109.493 76.7985 109.702 76.8867C109.911 76.975 110.136 77.0174 110.362 77.011H133.888C134.37 77.0052 134.833 76.8227 135.19 76.4981C135.546 76.1735 135.77 75.7295 135.821 75.2502L137.238 59.5491C137.256 59.3276 137.228 59.1049 137.154 58.8952C137.081 58.6855 136.964 58.4935 136.812 58.3316C136.66 58.1697 136.476 58.0416 136.271 57.9554C136.066 57.8692 135.845 57.8269 135.623 57.8312Z" fill="#D1D5DB"/>
<path d="M160.094 55.4778L159.321 54.4041C159.185 54.2117 159.004 54.0544 158.795 53.9454C158.586 53.8364 158.354 53.7787 158.118 53.7771H152.69C152.464 53.7745 152.241 53.8311 152.044 53.941C151.847 54.051 151.682 54.2106 151.565 54.4041L150.912 55.4778C150.795 55.6706 150.629 55.8298 150.432 55.9397C150.235 56.0496 150.013 56.1065 149.787 56.1048H146.549C146.367 56.103 146.188 56.139 146.021 56.2104C145.855 56.2819 145.705 56.3872 145.581 56.5197C145.458 56.6522 145.363 56.8089 145.303 56.98C145.244 57.1511 145.22 57.3328 145.235 57.5134L146.282 75.6453C146.306 76.0229 146.471 76.3777 146.745 76.6388C147.019 76.8999 147.381 77.0481 147.76 77.0539H173.442C173.623 77.0556 173.802 77.0197 173.969 76.9482C174.135 76.8768 174.285 76.7715 174.409 76.639C174.532 76.5065 174.627 76.3497 174.687 76.1786C174.747 76.0075 174.77 75.8259 174.756 75.6453L173.708 57.5478C173.684 57.1701 173.519 56.8153 173.245 56.5542C172.971 56.2931 172.609 56.1449 172.23 56.1391H161.288C161.05 56.1323 160.818 56.0687 160.61 55.9536C160.403 55.8386 160.226 55.6754 160.094 55.4778Z" fill="#D1D5DB"/>
<path d="M174.791 57.8312H151.265C150.79 57.8375 150.333 58.0146 149.978 58.3301C149.623 58.6455 149.394 59.0783 149.332 59.5491L147.923 75.2502C147.898 75.4753 147.92 75.7033 147.99 75.9189C148.06 76.1344 148.176 76.3324 148.329 76.4994C148.482 76.6664 148.669 76.7985 148.878 76.8868C149.087 76.975 149.312 77.0174 149.538 77.011H173.064C173.546 77.0052 174.009 76.8227 174.365 76.4981C174.722 76.1736 174.946 75.7295 174.997 75.2502L176.414 59.5491C176.432 59.3269 176.403 59.1034 176.329 58.8931C176.256 58.6828 176.138 58.4904 175.985 58.3284C175.832 58.1664 175.647 58.0384 175.441 57.9527C175.235 57.8671 175.013 57.8257 174.791 57.8312Z" fill="#D1D5DB"/>
<path d="M81.7433 88.6493L80.9702 87.5843C80.8344 87.3908 80.6545 87.2322 80.4455 87.1218C80.2365 87.0113 80.0042 86.9519 79.7678 86.9487H74.3394C74.1126 86.947 73.8894 87.0048 73.692 87.1164C73.4945 87.2279 73.3298 87.3892 73.2142 87.5843L72.57 88.6493C72.4519 88.8435 72.2852 89.0034 72.0864 89.1134C71.8875 89.2234 71.6634 89.2795 71.4362 89.2764H68.1981C68.0165 89.2758 67.8367 89.3129 67.6702 89.3853C67.5036 89.4577 67.3539 89.5638 67.2304 89.697C67.1069 89.8301 67.0124 89.9874 66.9528 90.159C66.8931 90.3305 66.8697 90.5125 66.8839 90.6936L67.9318 108.825C67.9556 109.203 68.1209 109.558 68.3947 109.819C68.6686 110.08 69.0308 110.228 69.4092 110.234H95.0909C95.2718 110.235 95.4507 110.198 95.6167 110.126C95.7826 110.054 95.9319 109.949 96.0552 109.816C96.1786 109.684 96.2733 109.528 96.3335 109.357C96.3937 109.187 96.4181 109.006 96.4051 108.825L95.34 90.6936C95.3184 90.3144 95.154 89.9575 94.8799 89.6946C94.6058 89.4317 94.2424 89.2823 93.8627 89.2764H82.9372C82.7027 89.2741 82.4721 89.2161 82.2645 89.107C82.0569 88.998 81.8782 88.8411 81.7433 88.6493Z" fill="#D1D5DB"/>
<path d="M96.4485 91.0457H72.9226C72.4469 91.0517 71.9891 91.2285 71.6327 91.5438C71.2764 91.8592 71.0453 92.292 70.9815 92.7636L69.5728 108.473C69.5483 108.698 69.5721 108.926 69.6426 109.14C69.713 109.355 69.8285 109.553 69.9814 109.719C70.1342 109.886 70.3209 110.018 70.5289 110.107C70.7369 110.196 70.9615 110.239 71.1876 110.234H94.7135C95.1948 110.226 95.6568 110.043 96.0127 109.719C96.3686 109.395 96.5938 108.952 96.6461 108.473L98.0633 92.7636C98.0813 92.5421 98.0527 92.3194 97.9794 92.1097C97.906 91.8999 97.7895 91.708 97.6373 91.5461C97.4852 91.3842 97.3007 91.256 97.096 91.1699C96.8912 91.0837 96.6706 91.0414 96.4485 91.0457Z" fill="#D1D5DB"/>
<path d="M120.92 88.6493L120.147 87.5843C120.011 87.3908 119.831 87.2322 119.622 87.1218C119.413 87.0113 119.181 86.9519 118.944 86.9487H113.516C113.289 86.947 113.066 87.0048 112.868 87.1164C112.671 87.2279 112.506 87.3892 112.391 87.5843L111.746 88.6493C111.628 88.8435 111.462 89.0034 111.263 89.1134C111.064 89.2234 110.84 89.2795 110.613 89.2764H107.366C107.184 89.2745 107.003 89.3107 106.836 89.3826C106.669 89.4546 106.519 89.5607 106.395 89.6941C106.271 89.8276 106.177 89.9854 106.118 90.1576C106.059 90.3297 106.036 90.5122 106.052 90.6936L107.1 108.825C107.123 109.203 107.289 109.558 107.562 109.819C107.836 110.08 108.199 110.228 108.577 110.234H134.259C134.439 110.235 134.618 110.198 134.784 110.126C134.95 110.054 135.1 109.949 135.223 109.816C135.346 109.684 135.441 109.528 135.501 109.357C135.561 109.187 135.586 109.006 135.573 108.825L134.525 90.6936C134.503 90.3144 134.339 89.9575 134.065 89.6946C133.791 89.4317 133.427 89.2823 133.048 89.2764H122.114C121.879 89.2741 121.648 89.2161 121.441 89.107C121.233 88.998 121.055 88.8411 120.92 88.6493Z" fill="#D1D5DB"/>
<path d="M135.624 91.0457H112.098C111.622 91.0499 111.163 91.2261 110.807 91.5418C110.45 91.8574 110.219 92.2913 110.157 92.7636L108.749 108.465C108.724 108.689 108.748 108.917 108.818 109.132C108.889 109.347 109.004 109.544 109.157 109.711C109.31 109.877 109.497 110.01 109.705 110.098C109.913 110.187 110.137 110.23 110.363 110.225H133.889C134.371 110.218 134.833 110.035 135.188 109.71C135.544 109.386 135.77 108.943 135.822 108.465L137.239 92.7636C137.257 92.5421 137.229 92.3194 137.155 92.1097C137.082 91.8999 136.965 91.708 136.813 91.5461C136.661 91.3842 136.477 91.256 136.272 91.1699C136.067 91.0837 135.846 91.0414 135.624 91.0457Z" fill="#D1D5DB"/>
<path d="M160.094 88.6493L159.321 87.5843C159.185 87.3908 159.005 87.2322 158.796 87.1218C158.587 87.0113 158.355 86.9519 158.118 86.9487H152.69C152.463 86.947 152.24 87.0048 152.042 87.1164C151.845 87.2279 151.68 87.3892 151.565 87.5843L150.912 88.6493C150.796 88.844 150.631 89.0046 150.434 89.1147C150.236 89.2249 150.013 89.2806 149.787 89.2764H146.548C146.366 89.2745 146.186 89.3107 146.019 89.3826C145.852 89.4546 145.701 89.5607 145.578 89.6941C145.454 89.8276 145.36 89.9854 145.3 90.1576C145.241 90.3297 145.219 90.5122 145.234 90.6936L146.282 108.825C146.306 109.203 146.471 109.558 146.745 109.819C147.019 110.08 147.381 110.228 147.76 110.234H173.441C173.622 110.235 173.801 110.198 173.967 110.126C174.133 110.054 174.282 109.949 174.406 109.816C174.529 109.684 174.624 109.528 174.684 109.357C174.744 109.187 174.768 109.006 174.755 108.825L173.708 90.6936C173.686 90.3144 173.522 89.9575 173.247 89.6946C172.973 89.4317 172.61 89.2823 172.23 89.2764H161.288C161.053 89.2748 160.822 89.2171 160.614 89.108C160.407 88.9989 160.228 88.8416 160.094 88.6493Z" fill="#D1D5DB"/>
<path d="M174.79 91.0457H151.265C150.79 91.052 150.333 91.2291 149.978 91.5446C149.623 91.86 149.394 92.2928 149.332 92.7636L147.923 108.465C147.899 108.689 147.923 108.917 147.993 109.132C148.064 109.347 148.179 109.544 148.332 109.711C148.485 109.878 148.671 110.01 148.88 110.098C149.088 110.187 149.312 110.23 149.538 110.225H173.064C173.545 110.218 174.007 110.035 174.363 109.71C174.719 109.386 174.944 108.943 174.997 108.465L176.414 92.7636C176.432 92.5414 176.403 92.3179 176.329 92.1076C176.255 91.8973 176.138 91.7049 175.985 91.5428C175.832 91.3808 175.646 91.2528 175.441 91.1672C175.235 91.0816 175.013 91.0402 174.79 91.0457Z" fill="#D1D5DB"/>
<path d="M79.1933 252.283C79.1933 251.982 80.2155 222.126 85.0684 217.402C89.7924 212.815 95.2122 217.23 95.4442 217.402L95.9252 216.818C95.865 216.766 89.7495 211.767 84.5358 216.818C79.4682 221.748 78.4719 250.968 78.4375 252.214L79.1933 252.283Z" fill="#D1D5DB"/>
<path d="M78.7712 258.149C78.8141 257.788 82.0952 222.306 69.1341 207.473L68.5586 207.971C81.305 222.572 78.0497 257.788 78.0067 258.106L78.7712 258.149Z" fill="#D1D5DB"/>
<path d="M79.2525 254.395L80.0169 254.344C80.0169 253.94 77.4401 213.975 86.9828 205.265L86.4674 204.707C76.6929 213.691 79.1494 252.738 79.2525 254.395Z" fill="#D1D5DB"/>
<path d="M78.0163 254.37H78.7807C78.7807 253.262 78.4629 227.391 71.1105 223.182C70.4149 222.728 69.6196 222.448 68.7925 222.367C67.9655 222.287 67.1312 222.407 66.3607 222.718C61.9115 224.557 59.7126 232.459 59.6182 232.802L60.3568 233C60.3568 232.922 62.5471 225.115 66.6527 223.414C67.3172 223.155 68.034 223.058 68.7436 223.131C69.4532 223.204 70.1351 223.445 70.7326 223.835C77.7071 227.838 78.0163 254.103 78.0163 254.37Z" fill="#D1D5DB"/>
<path d="M80.8766 254.387L81.6411 254.344C81.6411 254.146 80.5331 233.902 85.9958 226.764C87.3186 225.046 88.753 224.187 90.2904 224.325C93.8721 224.574 96.8698 229.813 96.9041 229.865L97.5655 229.487C97.4281 229.255 94.3274 223.844 90.342 223.56C88.5554 223.44 86.9063 224.359 85.4032 226.309C79.7514 233.627 80.8337 253.545 80.8766 254.387Z" fill="#D1D5DB"/>
<path d="M79.6826 257.144C79.8286 255.177 83.2557 208.959 77.2346 200.816L76.6162 201.263C82.4741 209.182 78.9611 256.612 78.9267 257.093L79.6826 257.144Z" fill="#D1D5DB"/>
<path d="M64.7197 227.4C64.7197 227.4 68.3358 228.731 67.2965 231.875C66.2572 235.018 54.7992 240.198 54.7992 240.198C54.7992 240.198 50.015 235.808 54.4041 228.679C58.7932 221.55 64.6252 225.149 64.7197 227.4Z" fill="#D1D5DB"/>
<path d="M80.4291 221.413C80.4291 221.413 76.5811 221.25 76.3578 224.565C76.1345 227.881 84.6979 237.062 84.6979 237.062C84.6979 237.062 90.7963 234.855 89.4907 226.584C88.1852 218.312 81.3825 219.377 80.4291 221.413Z" fill="#D1D5DB"/>
<path d="M83.6843 205.54C83.6843 205.54 81.1076 205.265 81.3223 203.702C81.537 202.139 91.2944 198.119 97.0577 204.621C97.0577 204.621 93.3644 210.96 88.0305 211.046C82.6966 211.132 83.6843 205.54 83.6843 205.54Z" fill="#D1D5DB"/>
<path d="M78.9006 201.752C78.9006 201.752 81.2283 202.869 81.881 201.434C82.5338 200 76.3668 191.428 68.0438 193.893C68.0438 193.893 67.8205 201.228 72.3384 204.114C76.8563 207 78.9006 201.752 78.9006 201.752Z" fill="#D1D5DB"/>
<path d="M91.046 226.137C91.046 226.137 89.2767 224.703 91.1835 224.007C93.0903 223.311 102.47 223.509 102.573 232.794C102.573 232.794 91.6559 234.606 90.2988 231.076C88.9417 227.546 91.046 226.137 91.046 226.137Z" fill="#D1D5DB"/>
<path d="M68.7828 205.282C68.7828 205.282 70.5522 203.857 68.6454 203.161C66.7386 202.465 57.3591 202.706 57.2646 211.965C57.2646 211.965 68.1815 213.786 69.5301 210.247C70.8786 206.708 68.7828 205.282 68.7828 205.282Z" fill="#D1D5DB"/>
<path d="M74.5549 212.789C74.5549 212.789 74.7095 211.072 73.3094 211.733C71.9094 212.394 67.0221 217.685 72.0898 222.684C72.0898 222.684 78.901 217.642 77.6728 215.005C76.4445 212.368 74.5549 212.789 74.5549 212.789Z" fill="#D1D5DB"/>
<path d="M92.626 215.263C92.626 215.263 91.5696 213.88 93.1242 213.708C94.6789 213.537 101.619 215.426 99.9956 222.298C99.9956 222.298 91.5352 221.662 91.1745 218.776C90.8137 215.89 92.626 215.263 92.626 215.263Z" fill="#D1D5DB"/>
<path d="M64.0415 280.112H93.0731L96.2081 248.323H60.915L64.0415 280.112Z" fill="#F9FAFB"/>
<path d="M59.3689 251.827H97.7627V244.81H59.3689V251.827Z" fill="#D1D5DB"/>
<path d="M214.73 320C306.706 320 381.267 315.647 381.267 310.277C381.267 304.907 306.706 300.554 214.73 300.554C122.755 300.554 48.1938 304.907 48.1938 310.277C48.1938 315.647 122.755 320 214.73 320Z" fill="#E5E7EB"/>
<path d="M155.92 159.004C155.843 162.164 155.267 166.184 152.785 168.452C149.59 171.329 144.196 169.311 142.16 165.995" stroke="#1F2937" stroke-width="0.706754" stroke-linecap="round" stroke-linejoin="round"/>
<path d="M155.747 183.251L163.478 189.135C163.478 189.135 165.462 189.401 166.011 190.122C166.561 190.844 168.434 195.997 168.021 196.624C167.609 197.251 163.443 198.127 162.687 197.251C161.932 196.375 160.97 191.686 161.03 191.239L151.058 184.737L155.747 183.251Z" fill="#FFBE9D"/>
<path d="M161.09 186.231L158.385 190.861C158.385 190.861 144.204 181.988 141.885 180.554C141.37 180.245 140.322 178.776 139.085 176.629C134.644 168.898 127.738 152.527 134.241 149.281C137.796 147.503 139.849 153.154 139.849 153.154C139.849 153.154 140.262 154.95 140.889 157.449C141.138 158.471 141.421 159.622 141.748 160.825C143.182 166.442 145.037 173.193 145.922 173.992C147.442 175.495 161.09 186.231 161.09 186.231Z" fill="#756E65"/>
<path opacity="0.2" d="M139.085 176.655C134.644 168.924 127.738 152.553 134.241 149.306C137.796 147.528 139.849 153.18 139.849 153.18C139.849 153.18 140.262 154.975 140.889 157.475C141.254 158.578 141.541 159.706 141.748 160.85C142.452 164.913 142.864 171.544 139.085 176.655Z" fill="#1F2937"/>
<path d="M118.96 166.09C118.96 166.09 114.339 167.67 106.583 164.131C103.199 162.594 95.0049 154.228 95.0049 154.228C95.0049 154.228 102.048 143.809 121.503 140.047C121.503 140.047 134.283 141.705 143.929 162.525C143.929 162.525 134.481 167.67 118.96 166.09Z" fill="#756E65"/>
<path d="M134.335 178.132L140.467 185.69C140.467 185.69 142.331 186.42 142.701 187.254C143.07 188.087 143.654 193.532 143.104 194.048C142.555 194.563 138.303 194.426 137.77 193.386C137.238 192.347 137.41 187.571 137.599 187.125L129.456 178.441L134.335 178.132Z" fill="#FFBE9D"/>
<path d="M133.545 294.997L128.331 295.916L126.201 288.812L124.251 282.293L130.255 280.198L131.998 288.031L133.545 294.997Z" fill="#EB996E"/>
<path opacity="0.2" d="M132.033 288.186L126.227 288.959L124.26 282.362L130.264 280.232L132.033 288.186Z" fill="#1F2937"/>
<path d="M98.767 297.393H93.4761L92.6086 289.946L91.8184 283.144L98.1057 282.104L98.4578 290.195L98.767 297.393Z" fill="#EB996E"/>
<path opacity="0.2" d="M98.4578 290.264L92.6086 290.006L91.8184 283.178L98.1057 282.113L98.4578 290.264Z" fill="#1F2937"/>
<path d="M105.939 307.872C105.097 307.193 104.14 306.673 103.113 306.335C103.113 306.335 100.038 303.294 98.5606 294.112L94.5408 293.064C93.8574 292.9 93.1402 292.95 92.486 293.207C91.8317 293.463 91.2718 293.914 90.8818 294.499C90.7689 294.659 90.682 294.836 90.6241 295.023C90.4127 296.02 90.2664 297.03 90.1861 298.046C89.9626 301.4 89.9425 304.765 90.126 308.121H90.8561L91.1481 301.799C91.2512 299.652 92.8659 302.169 93.3641 304.479C93.8623 306.79 94.8329 309.255 99.5398 309.367C105.045 309.435 107.365 309.212 105.939 307.872Z" fill="#1F2937"/>
<path d="M141.034 307.254C140.194 306.573 139.236 306.052 138.208 305.716C138.208 305.716 135.142 302.667 133.665 293.494L129.636 292.446C128.954 292.281 128.237 292.329 127.583 292.584C126.929 292.839 126.369 293.289 125.977 293.872C125.865 294.034 125.781 294.214 125.728 294.404C125.516 295.386 125.373 296.382 125.299 297.385C124.887 300.494 125.239 307.46 125.239 307.46H125.96L126.252 301.138C126.364 298.991 127.97 301.507 128.477 303.818C128.984 306.128 129.946 308.593 134.653 308.705C140.141 308.817 142.426 308.602 141.034 307.254Z" fill="#1F2937"/>
<path d="M132.523 284.054L123.933 285.566C115.284 264.033 109.143 246.055 104.797 231.153C102.46 223.105 100.502 215.942 99.1105 209.594L99.3768 233.034V285.832H90.9594C70.7146 189.401 68.2409 172.772 92.8748 156.135L95.4945 153.747C95.4945 153.747 96.3534 158.145 103.8 162.671C110.036 166.459 117.878 166.708 117.878 166.708L112.226 172.085L113.369 180.477L123.255 231.574L132.523 284.054Z" fill="#1F2937"/>
<g opacity="0.2">
<path opacity="0.2" d="M132.523 284.054L123.933 285.566C115.284 264.033 109.143 246.055 104.797 231.153C102.46 223.105 100.502 215.942 99.1105 209.594L99.3768 233.034V285.832H90.9594C70.7146 189.401 68.2409 172.772 92.8748 156.135L95.4945 153.747C95.4945 153.747 96.3534 158.145 103.8 162.671C110.036 166.459 117.878 166.708 117.878 166.708L112.226 172.085L113.369 180.477L123.255 231.574L132.523 284.054Z" fill="white"/>
</g>
<path opacity="0.2" d="M104.788 231.153C102.451 223.105 100.631 215.942 99.2305 209.594C99.3474 202.077 99.8922 194.572 100.862 187.116C100.862 187.116 104.607 216.113 104.788 231.153Z" fill="#1F2937"/>
<path d="M95.4937 153.747C95.4937 153.747 102.64 163.195 118.959 166.09L115.902 168.624C106.945 167.478 98.7356 163.038 92.874 156.169L95.4937 153.747Z" fill="#1F2937"/>
<path d="M113.824 165.489C113.755 165.324 113.653 165.175 113.525 165.051C113.396 164.927 113.244 164.83 113.077 164.767L110.5 163.719C110.192 163.581 109.847 163.548 109.519 163.628C109.191 163.707 108.898 163.893 108.688 164.157L107.777 165.446C107.68 165.579 107.619 165.735 107.598 165.898C107.577 166.062 107.597 166.228 107.657 166.382C107.774 166.679 108.002 166.919 108.292 167.052L108.404 167.103L110.981 168.151C111.29 168.284 111.635 168.313 111.962 168.232C112.289 168.152 112.581 167.966 112.793 167.705L113.695 166.425C113.791 166.291 113.853 166.136 113.875 165.973C113.898 165.809 113.88 165.643 113.824 165.489ZM111.247 167.61L108.67 166.562C108.589 166.531 108.516 166.484 108.454 166.423C108.392 166.363 108.343 166.29 108.31 166.21C108.281 166.135 108.271 166.054 108.282 165.975C108.292 165.895 108.323 165.82 108.37 165.755L109.28 164.475C109.379 164.349 109.517 164.259 109.673 164.22C109.828 164.182 109.992 164.196 110.139 164.26L112.716 165.308H112.767C112.909 165.373 113.02 165.49 113.077 165.635C113.105 165.709 113.115 165.79 113.104 165.87C113.094 165.949 113.064 166.025 113.017 166.09L112.879 166.279C112.854 166.257 112.825 166.239 112.793 166.227L112.072 165.927C111.963 165.875 111.839 165.864 111.722 165.895C111.606 165.927 111.504 165.999 111.436 166.098C111.41 166.148 111.394 166.202 111.391 166.258C111.388 166.314 111.398 166.37 111.419 166.422C111.441 166.474 111.473 166.52 111.515 166.558C111.556 166.595 111.606 166.623 111.659 166.639L112.372 166.94L112.08 167.361C111.987 167.475 111.863 167.559 111.722 167.603C111.582 167.648 111.432 167.65 111.29 167.61H111.247Z" fill="white"/>
<path d="M157.577 137.934C158.623 139.251 159.381 140.771 159.803 142.399C160.225 144.026 160.3 145.724 160.025 147.382C159.415 152.39 157.835 159.665 158.711 164.209C159.587 168.752 157.225 173.21 155.078 173.296C155.078 173.296 157.715 171.406 157.603 168.632C157.491 165.858 156.744 161.211 156.744 161.211C156.744 161.211 156.375 165.901 153.309 167.679C150.242 169.457 142.598 166.562 140.15 159.39C137.702 152.218 133.777 150.26 131.827 147.151C129.877 144.041 129.98 141.138 134.713 138.347C139.446 135.555 153.506 132.884 157.577 137.934Z" fill="#1F2937"/>
<path d="M138.337 159.004L136.095 157.818C134.378 160.438 127.652 157.818 127.652 157.818C124.68 152.562 129.241 145.304 129.241 145.304C130.53 147.683 134.97 147.683 135.915 147.64H136.095L138.337 159.004Z" fill="#FFBE9D"/>
<path opacity="0.2" d="M138.338 159.004L136.096 157.818C134.75 157.261 133.317 156.944 131.862 156.882C131.862 156.882 131.501 151.454 135.238 148.078C135.438 147.896 135.667 147.748 135.916 147.64H136.096L138.338 159.004Z" fill="#1F2937"/>
<path d="M153.017 136.191C153.017 136.191 161.159 140.142 158.608 147.099C157.885 149.084 156.613 150.823 154.94 152.113C153.268 153.404 151.264 154.194 149.16 154.391L153.017 136.191Z" fill="#1F2937"/>
<path d="M150.234 138.982C156.006 142.306 156.092 146.472 153.086 152.665C149.332 160.395 144.642 164.75 138.329 159.004C129.757 151.17 140.631 133.459 150.234 138.982Z" fill="#FFBE9D"/>
<path d="M149.538 150.191C149.503 151.321 149.604 152.452 149.839 153.558C149.532 153.698 149.193 153.752 148.858 153.713C148.523 153.673 148.206 153.542 147.94 153.335L149.538 150.191Z" fill="#EB996E"/>
<path d="M146.274 147.735C146.008 148.216 145.536 148.456 145.218 148.284C144.9 148.113 144.848 147.58 145.115 147.099C145.381 146.618 145.845 146.369 146.163 146.541C146.48 146.712 146.532 147.202 146.274 147.735Z" fill="#1F2937"/>
<path d="M146.016 146.455L147.287 146.609C147.287 146.609 146.29 147.211 146.016 146.455Z" fill="#1F2937"/>
<path d="M152.303 150.844C152.046 151.325 151.573 151.574 151.255 151.402C150.938 151.23 150.886 150.689 151.144 150.208C151.401 149.727 151.882 149.478 152.2 149.659C152.518 149.839 152.57 150.363 152.303 150.844Z" fill="#1F2937"/>
<path d="M152.028 149.607L153.3 149.77C153.3 149.77 152.32 150.363 152.028 149.607Z" fill="#1F2937"/>
<path d="M148.507 143.663C148.084 143.343 147.592 143.125 147.071 143.027C146.549 142.928 146.012 142.952 145.501 143.096" stroke="#1F2937" stroke-width="0.706754" stroke-linecap="round" stroke-linejoin="round"/>
<path d="M152.888 145.836C153.34 145.963 153.758 146.191 154.11 146.504C154.461 146.817 154.736 147.205 154.915 147.64" stroke="#1F2937" stroke-width="0.706754" stroke-linecap="round" stroke-linejoin="round"/>
<path d="M138.286 145.089C138.286 145.089 143.723 141.894 145.415 137.994C145.415 137.994 159.562 139.901 153.438 151.849C153.438 151.849 160.498 142.169 150.698 136.225C140.897 130.281 132.557 142.066 135.237 149.349C135.228 149.349 134.936 147.09 138.286 145.089Z" fill="#1F2937"/>
<path d="M154.245 136.38C154.245 136.38 157.577 138.192 158.093 140.245C158.608 142.298 145.75 144.892 140.347 142.607C140.347 142.607 135.563 145.991 135.194 149.349C135.194 149.349 130.624 144.806 135.769 136.328C140.914 127.851 151.719 130.427 154.245 136.38Z" fill="#1F2937"/>
<path d="M138.551 146.876C138.881 146.175 138.92 145.372 138.659 144.643C138.398 143.914 137.859 143.318 137.16 142.985C135.253 142.126 132.281 145.338 136.232 148.782C136.799 149.255 137.521 148.834 138.551 146.876Z" fill="#FFBE9D"/>
<path d="M158.041 140.812C158.041 140.812 151.874 146.661 143.86 144.771" stroke="#1F2937" stroke-width="0.706754" stroke-linecap="round" stroke-linejoin="round"/>
<path d="M143.861 152.124C143.861 152.124 143.38 154.056 145.69 155.989" stroke="#1F2937" stroke-width="0.706754" stroke-linecap="round" stroke-linejoin="round"/>
<path opacity="0.2" d="M130.968 166.047C126.973 166.496 122.941 166.51 118.943 166.09C118.175 166.307 117.38 166.42 116.581 166.425C116.212 164.854 115.988 163.252 115.911 161.641C115.68 156.35 116.848 146.953 118.127 145.321C119.407 143.689 125.317 146.094 126.012 150.552C126.012 150.552 126.82 162.577 127.893 163.616C128.512 164.166 129.877 165.222 130.968 166.047Z" fill="#1F2937"/>
<path d="M121.503 140.812C112.295 142.152 119.579 170.316 121.503 172.24C123.427 174.164 135.091 186.154 135.091 186.154L138.818 182.298C138.818 182.298 128.116 168.624 126.957 166.906C125.797 165.188 126.029 145.158 126.029 145.158C126.029 145.158 126.261 140.125 121.503 140.812Z" fill="#756E65"/>
<path d="M359.76 57.9944H194.246V309.993H359.76V57.9944Z" fill="#756E65"/>
<path opacity="0.6" d="M359.76 57.9944H194.246V309.993H359.76V57.9944Z" fill="white"/>
<path opacity="0.2" d="M359.76 57.9944H295.479V309.993H359.76V57.9944Z" fill="#1F2937"/>
<path opacity="0.2" d="M290.058 192.837H199.09V283.805H290.058V192.837Z" fill="#1F2937"/>
<path opacity="0.2" d="M290.058 192.837H267.082V283.805H290.058V192.837Z" fill="#1F2937"/>
<path opacity="0.2" d="M199.09 192.837L225.673 219.412H267.074H290.058V192.837H199.09Z" fill="#1F2937"/>
<path opacity="0.2" d="M290.058 94.1636H199.09V185.132H290.058V94.1636Z" fill="#1F2937"/>
<path d="M287.464 94.1636H199.09V185.132H287.464V94.1636Z" fill="#756E65"/>
<path opacity="0.7" d="M287.464 94.1636H199.09V185.132H287.464V94.1636Z" fill="white"/>
<path d="M255.41 105.046H223.811V113.197H255.41V105.046Z" fill="white"/>
<path opacity="0.1" d="M269.178 145.51L260.812 134.481H259.145V141.971H256.938L259.781 145.51C259.806 145.544 259.821 145.584 259.825 145.627C259.829 145.669 259.821 145.711 259.803 145.749C259.784 145.787 259.755 145.82 259.72 145.842C259.684 145.865 259.643 145.878 259.601 145.879H235.774C235.564 145.877 235.358 145.827 235.171 145.733C234.983 145.64 234.819 145.505 234.692 145.338L232.115 141.971H222.581L229.452 150.56C229.581 150.719 229.744 150.846 229.928 150.934C230.112 151.022 230.313 151.067 230.517 151.067H268.07C268.429 151.067 268.775 150.924 269.029 150.67C269.284 150.415 269.427 150.07 269.427 149.71V146.317C269.432 146.029 269.344 145.746 269.178 145.51Z" fill="#1F2937"/>
<path d="M259.687 133.923H214.946C214.21 133.923 213.614 134.519 213.614 135.254V141.765C213.614 142.5 214.21 143.096 214.946 143.096H259.687C260.422 143.096 261.018 142.5 261.018 141.765V135.254C261.018 134.519 260.422 133.923 259.687 133.923Z" fill="#756E65"/>
<path opacity="0.2" d="M248.985 133.923H214.946C214.21 133.923 213.614 134.519 213.614 135.254V141.765C213.614 142.5 214.21 143.096 214.946 143.096H248.985C249.72 143.096 250.316 142.5 250.316 141.765V135.254C250.316 134.519 249.72 133.923 248.985 133.923Z" fill="white"/>
<path d="M226.369 109.994C228.102 109.423 229.565 108.237 230.483 106.661C229.854 107.098 229.337 107.679 228.977 108.356C228.617 109.033 228.424 109.785 228.413 110.552C229.942 110.792 230.629 108.456 232.124 108.044L231.609 110.311C231.997 110.352 232.389 110.307 232.758 110.181C233.127 110.055 233.465 109.85 233.747 109.581C234.33 109.595 234.909 109.493 235.452 109.281C235.995 109.068 236.49 108.75 236.908 108.344C236.766 108.104 236.542 107.922 236.277 107.832C236.013 107.742 235.724 107.75 235.465 107.855L240.318 108.31C240.186 108.277 240.047 108.276 239.915 108.307C239.782 108.337 239.658 108.4 239.554 108.488C239.45 108.576 239.368 108.688 239.316 108.813C239.264 108.939 239.242 109.076 239.253 109.212C239.288 109.352 239.359 109.48 239.457 109.586C239.555 109.692 239.679 109.771 239.815 109.816C239.952 109.861 240.099 109.871 240.24 109.845C240.382 109.819 240.515 109.758 240.627 109.667C240.77 109.553 240.872 109.397 240.919 109.221C240.942 109.068 240.988 108.92 241.057 108.782C241.228 108.542 241.581 108.568 241.864 108.611C244.785 109.067 247.753 109.142 250.694 108.834" stroke="#1F2937" stroke-width="0.5" stroke-linecap="round" stroke-linejoin="round"/>
<path opacity="0.1" d="M290.059 236.221L295.479 242.963V309.994H214.276L194.246 287.919L290.059 236.221Z" fill="#1F2937"/>
<path d="M241.908 68.6965H199.657V85.1792H241.908V68.6965Z" fill="#756E65"/>
<path d="M213.761 68.6965H199.657V85.1792H213.761V68.6965Z" fill="white"/>
<path d="M211.063 74.4513C210.608 76.9594 210.342 78.0932 211.158 79.9656C211.974 81.8381 211.536 82.259 210.634 82.5424C209.732 82.8258 202.904 84.5523 202.371 82.07C201.839 79.5877 202.818 79.5448 202.371 77.5177C201.924 75.4906 201.65 73.0943 202.44 71.9347C203.23 70.7752 211.063 74.4513 211.063 74.4513Z" fill="#1F2937"/>
<path d="M200.447 83.1178C202.169 82.0266 204.183 81.4899 206.219 81.5804C208.601 81.6711 210.946 82.192 213.142 83.1178V84.3289H200.447V83.1178Z" fill="#756E65"/>
<path d="M208.839 82.1129C208.715 82.477 208.511 82.8087 208.242 83.0837C207.973 83.3586 207.646 83.5699 207.284 83.7019C206.099 83.4442 204.398 81.7436 204.398 81.7436C205.403 81.1681 205.206 79.4932 204.974 78.4797C204.918 78.2243 204.849 77.9721 204.768 77.7238L206.03 77.5349L207.894 79.184C207.894 79.184 207.894 79.3128 207.826 79.5104C207.661 80.1617 207.629 80.8392 207.731 81.5031C207.755 81.5791 207.79 81.6514 207.834 81.7178C207.963 81.852 208.12 81.9567 208.294 82.0249C208.467 82.0931 208.653 82.1231 208.839 82.1129Z" fill="#FFBE9D"/>
<path opacity="0.2" d="M207.86 81.6491C207.65 81.6457 207.441 81.6109 207.241 81.546C206.047 81.1767 205.343 79.5104 205.017 78.4797C204.933 78.2321 204.864 77.9797 204.811 77.7238L207.868 79.5104C207.704 80.1617 207.672 80.8392 207.774 81.5031C207.798 81.5545 207.826 81.6034 207.86 81.6491Z" fill="#1F2937"/>
<path d="M207.533 70.5089C207.533 70.5089 210.771 70.4058 211.115 73.0341C211.219 73.7825 211.108 74.5451 210.795 75.2326C210.482 75.9202 209.979 76.5043 209.346 76.9164L207.533 70.5089Z" fill="#1F2937"/>
<path d="M207.112 71.8574C209.5 71.9519 210.213 73.2574 210.29 75.7225C210.393 78.7975 209.629 80.9534 206.674 80.1803C202.654 79.1325 203.153 71.7028 207.112 71.8574Z" fill="#FFBE9D"/>
<path d="M208.762 75.525C208.936 75.889 209.155 76.2295 209.414 76.5385C209.34 76.6354 209.241 76.7099 209.127 76.7538C209.014 76.7978 208.89 76.8095 208.77 76.7876L208.762 75.525Z" fill="#EB996E"/>
<path d="M207.31 75.2759C207.31 75.4735 207.198 75.6281 207.061 75.6281C206.924 75.6281 206.829 75.4649 206.829 75.2673C206.829 75.0698 206.941 74.9152 207.078 74.9152C207.216 74.9152 207.31 75.0784 207.31 75.2759Z" fill="#1F2937"/>
<path d="M207.001 74.9237L207.43 74.7605C207.43 74.7605 207.233 75.1213 207.001 74.9237Z" fill="#1F2937"/>
<path d="M209.74 75.2673C209.74 75.4649 209.628 75.6281 209.499 75.6195C209.371 75.6109 209.268 75.4563 209.268 75.2673C209.268 75.0784 209.379 74.9152 209.508 74.9152C209.637 74.9152 209.749 75.0784 209.74 75.2673Z" fill="#1F2937"/>
<path d="M209.458 74.9237L209.887 74.7605C209.887 74.7605 209.673 75.1127 209.458 74.9237Z" fill="#1F2937"/>
<path d="M206.296 74.0562C206.274 74.0649 206.249 74.0649 206.227 74.0562C206.207 74.0354 206.196 74.0077 206.196 73.9789C206.196 73.9501 206.207 73.9224 206.227 73.9016C206.376 73.7568 206.558 73.6493 206.756 73.5881C206.955 73.5269 207.165 73.5137 207.37 73.5495C207.384 73.5505 207.398 73.5545 207.411 73.5612C207.424 73.5679 207.435 73.5773 207.444 73.5886C207.453 73.5999 207.459 73.613 207.463 73.627C207.466 73.6409 207.467 73.6555 207.464 73.6697C207.458 73.6985 207.442 73.724 207.418 73.7414C207.394 73.7589 207.365 73.767 207.335 73.7642C207.167 73.7332 206.993 73.7427 206.829 73.792C206.665 73.8413 206.514 73.9289 206.391 74.0476C206.376 74.0559 206.361 74.061 206.344 74.0625C206.328 74.064 206.311 74.0618 206.296 74.0562Z" fill="#1F2937"/>
<path d="M210.024 73.936H209.964C209.846 73.8376 209.708 73.7666 209.56 73.728C209.411 73.6894 209.256 73.6842 209.105 73.7126C209.078 73.721 209.048 73.7185 209.023 73.7057C208.997 73.6929 208.977 73.6708 208.968 73.6439C208.959 73.6166 208.962 73.5871 208.975 73.5615C208.987 73.536 209.01 73.5163 209.036 73.5065C209.218 73.4644 209.408 73.4649 209.59 73.5081C209.771 73.5514 209.941 73.636 210.084 73.7556C210.102 73.7772 210.112 73.8046 210.112 73.8329C210.112 73.8612 210.102 73.8885 210.084 73.9102C210.068 73.9251 210.047 73.9341 210.024 73.936Z" fill="#1F2937"/>
<path d="M204.347 75.7741C204.996 74.7402 205.368 73.5573 205.429 72.3384C205.429 72.3384 210.231 70.6205 210.282 75.3962C210.282 75.3962 210.909 71.1531 206.846 70.904C202.784 70.6549 202.071 75.7655 204.115 77.6379C204.081 77.6379 203.617 76.9766 204.347 75.7741Z" fill="#1F2937"/>
<path d="M207.954 70.3629C207.954 70.3629 209.311 70.3629 209.809 70.9469C210.308 71.531 206.674 74.4771 204.578 74.6489C204.578 74.6489 203.625 76.5213 204.08 77.6379C204.08 77.6379 201.881 76.9594 202.105 73.412C202.119 72.738 202.314 72.0801 202.67 71.5074C203.026 70.9346 203.529 70.468 204.127 70.1563C204.725 69.8446 205.396 69.6994 206.069 69.7357C206.742 69.772 207.393 69.9887 207.954 70.3629Z" fill="#1F2937"/>
<path d="M204.724 76.2894C204.709 76.0137 204.586 75.7551 204.382 75.5689C204.178 75.3826 203.91 75.2836 203.634 75.2931C202.886 75.3446 202.483 76.8477 204.304 77.2858C204.561 77.3459 204.724 77.0968 204.724 76.2894Z" fill="#FFBE9D"/>
<path d="M206.056 74.8636C206.032 74.8624 206.009 74.8534 205.99 74.8379C205.972 74.8224 205.959 74.8013 205.953 74.7777C205.948 74.7642 205.945 74.7496 205.947 74.7352C205.948 74.7207 205.952 74.7066 205.96 74.6942C205.967 74.6817 205.977 74.6711 205.99 74.6633C206.002 74.6554 206.016 74.6505 206.03 74.6489C206.885 74.3808 207.668 73.9223 208.319 73.3078C208.971 72.6934 209.475 71.939 209.792 71.1015C209.806 71.0802 209.826 71.0639 209.849 71.0553C209.873 71.0468 209.899 71.0465 209.923 71.0544C209.946 71.0624 209.967 71.0781 209.981 71.0991C209.994 71.1202 210.001 71.1452 209.999 71.1703C209.668 72.0416 209.144 72.8264 208.466 73.4648C207.787 74.1033 206.972 74.5787 206.082 74.855L206.056 74.8636Z" fill="#1F2937"/>
<path d="M208.504 78.1103C208.214 78.082 207.938 77.9727 207.707 77.795C207.476 77.6174 207.3 77.3784 207.198 77.1054C207.193 77.0782 207.198 77.0499 207.212 77.026C207.227 77.0022 207.249 76.9846 207.276 76.9766C207.304 76.9686 207.335 76.9723 207.36 76.9868C207.386 77.0013 207.405 77.0254 207.413 77.0539C207.413 77.0539 207.585 77.6895 208.556 77.9128C208.582 77.9208 208.605 77.9384 208.619 77.9623C208.633 77.9861 208.638 78.0144 208.633 78.0416C208.629 78.0546 208.622 78.0667 208.614 78.0772C208.605 78.0877 208.595 78.0963 208.583 78.1027C208.571 78.1091 208.558 78.1131 208.544 78.1144C208.531 78.1157 208.517 78.1143 208.504 78.1103Z" fill="#1F2937"/>
<path d="M211.587 80.2147C211.564 80.214 211.542 80.2063 211.523 80.1924C211.505 80.1786 211.491 80.1594 211.484 80.1374C211.433 79.9947 211.37 79.8567 211.295 79.7251C210.926 78.964 210.838 78.097 211.046 77.2772V77.114C211.287 75.1986 211.553 73.0255 210.041 71.6856C210.031 71.676 210.024 71.6647 210.019 71.6521C210.013 71.6396 210.011 71.6262 210.011 71.6126C210.011 71.599 210.013 71.5856 210.019 71.5731C210.024 71.5605 210.031 71.5492 210.041 71.5396C210.062 71.5196 210.09 71.5085 210.118 71.5085C210.147 71.5085 210.175 71.5196 210.196 71.5396C211.802 72.9482 211.518 75.1814 211.278 77.1484V77.3115C211.089 78.8232 211.278 79.2184 211.51 79.6306C211.583 79.7752 211.646 79.9244 211.699 80.0773C211.704 80.0902 211.707 80.1041 211.707 80.1182C211.707 80.1322 211.704 80.1461 211.698 80.159C211.693 80.1718 211.685 80.1834 211.674 80.193C211.664 80.2026 211.652 80.21 211.639 80.2147H211.587Z" fill="#1F2937"/>
<path d="M228.534 72.9482H216.87C216.596 72.9482 216.334 72.8396 216.141 72.6463C215.947 72.453 215.839 72.1909 215.839 71.9175C215.839 71.7826 215.866 71.6489 215.917 71.5244C215.969 71.3998 216.045 71.2867 216.141 71.1917C216.237 71.0967 216.351 71.0216 216.476 70.9707C216.601 70.9199 216.735 70.8943 216.87 70.8954H228.534C228.805 70.8954 229.065 71.0031 229.256 71.1948C229.448 71.3865 229.556 71.6464 229.556 71.9175C229.557 72.0525 229.531 72.1863 229.481 72.3113C229.43 72.4363 229.355 72.55 229.26 72.6458C229.165 72.7416 229.051 72.8177 228.927 72.8696C228.802 72.9215 228.669 72.9482 228.534 72.9482Z" fill="white"/>
<path d="M236.607 77.9128H216.646C216.432 77.9128 216.226 77.8277 216.075 77.6763C215.924 77.5249 215.839 77.3195 215.839 77.1054C215.832 76.9951 215.847 76.8846 215.885 76.7806C215.922 76.6766 215.98 76.5814 216.056 76.5009C216.132 76.4204 216.223 76.3562 216.325 76.3125C216.426 76.2687 216.535 76.2463 216.646 76.2465H236.607C236.718 76.2463 236.827 76.2687 236.929 76.3125C237.03 76.3562 237.122 76.4204 237.197 76.5009C237.273 76.5814 237.331 76.6766 237.369 76.7806C237.406 76.8846 237.422 76.9951 237.415 77.1054C237.415 77.3195 237.33 77.5249 237.178 77.6763C237.027 77.8277 236.821 77.9128 236.607 77.9128Z" fill="white"/>
<path d="M233.172 81.0221H216.646C216.432 81.0221 216.227 80.937 216.075 80.7856C215.924 80.6342 215.839 80.4288 215.839 80.2147C215.838 80.108 215.858 80.0021 215.898 79.9031C215.938 79.8042 215.997 79.7141 216.072 79.6382C216.147 79.5624 216.237 79.5021 216.335 79.461C216.434 79.4199 216.54 79.3987 216.646 79.3987H233.172C233.279 79.3987 233.384 79.4199 233.483 79.461C233.581 79.5021 233.671 79.5624 233.746 79.6382C233.821 79.7141 233.88 79.8042 233.92 79.9031C233.96 80.0021 233.98 80.108 233.979 80.2147C233.979 80.4288 233.894 80.6342 233.743 80.7856C233.591 80.937 233.386 81.0221 233.172 81.0221Z" fill="white"/>
<path d="M283.109 202.8H234.426L233.928 199.656C233.875 199.311 233.699 198.997 233.432 198.773C233.165 198.548 232.825 198.429 232.476 198.437H219.025C218.65 198.447 218.287 198.568 217.981 198.785C217.675 199.002 217.44 199.306 217.307 199.656L216.131 202.8H205.205C204.169 202.82 203.176 203.213 202.407 203.907C201.638 204.602 201.146 205.551 201.022 206.579L194.366 267.563C194.298 268.039 194.335 268.525 194.474 268.986C194.613 269.447 194.85 269.872 195.17 270.232C195.489 270.593 195.883 270.879 196.324 271.072C196.765 271.265 197.243 271.36 197.724 271.351H275.628C276.664 271.329 277.657 270.933 278.424 270.237C279.191 269.541 279.681 268.591 279.803 267.563L286.459 206.579C286.527 206.104 286.49 205.619 286.351 205.159C286.213 204.699 285.976 204.275 285.658 203.916C285.339 203.556 284.946 203.27 284.506 203.078C284.066 202.885 283.59 202.79 283.109 202.8Z" fill="#756E65"/>
<path opacity="0.4" d="M283.109 202.8H234.426L233.928 199.656C233.875 199.311 233.699 198.997 233.432 198.773C233.165 198.548 232.825 198.429 232.476 198.437H219.025C218.65 198.447 218.287 198.568 217.981 198.785C217.675 199.002 217.44 199.306 217.307 199.656L216.131 202.8H205.205C204.169 202.82 203.176 203.213 202.407 203.907C201.638 204.602 201.146 205.551 201.022 206.579L194.366 267.563C194.298 268.039 194.335 268.525 194.474 268.986C194.613 269.447 194.85 269.872 195.17 270.232C195.489 270.593 195.883 270.879 196.324 271.072C196.765 271.265 197.243 271.36 197.724 271.351H275.628C276.664 271.329 277.657 270.933 278.424 270.237C279.191 269.541 279.681 268.591 279.803 267.563L286.459 206.579C286.527 206.104 286.49 205.619 286.351 205.159C286.213 204.699 285.976 204.275 285.658 203.916C285.339 203.556 284.946 203.27 284.506 203.078C284.066 202.885 283.59 202.79 283.109 202.8Z" fill="#1F2937"/>
<path d="M194.495 269.014L197.106 205.609H281.332L277.141 267.623L194.495 269.014Z" fill="#756E65"/>
<path opacity="0.7" d="M194.495 269.014L197.106 205.609H281.332L277.141 267.623L194.495 269.014Z" fill="white"/>
<path d="M274.547 271.591H196.634C196.156 271.606 195.681 271.526 195.234 271.357C194.787 271.187 194.379 270.931 194.032 270.603C193.684 270.275 193.405 269.881 193.211 269.445C193.016 269.009 192.91 268.538 192.897 268.061L193.37 211.183C193.408 210.214 193.827 209.299 194.537 208.638C195.246 207.977 196.188 207.623 197.158 207.653H275.071C275.548 207.638 276.024 207.718 276.47 207.887C276.917 208.057 277.325 208.313 277.673 208.641C278.02 208.969 278.299 209.363 278.493 209.799C278.688 210.235 278.795 210.706 278.807 211.183L278.343 268.061C278.301 269.03 277.879 269.943 277.168 270.604C276.458 271.265 275.516 271.619 274.547 271.591Z" fill="#756E65"/>
<path opacity="0.25" d="M274.547 271.591H196.634C196.156 271.606 195.681 271.526 195.234 271.357C194.787 271.187 194.379 270.931 194.032 270.603C193.684 270.275 193.405 269.881 193.211 269.445C193.016 269.009 192.91 268.538 192.897 268.061L193.37 211.183C193.408 210.214 193.827 209.299 194.537 208.638C195.246 207.977 196.188 207.623 197.158 207.653H275.071C275.548 207.638 276.024 207.718 276.47 207.887C276.917 208.057 277.325 208.313 277.673 208.641C278.02 208.969 278.299 209.363 278.493 209.799C278.688 210.235 278.795 210.706 278.807 211.183L278.343 268.061C278.301 269.03 277.879 269.943 277.168 270.604C276.458 271.265 275.516 271.619 274.547 271.591Z" fill="#1F2937"/>
<path opacity="0.15" d="M243.282 207.653L244.863 265.355H202.234L199.761 207.653H243.282Z" fill="#1F2937"/>
<path d="M230.69 200.867H182.006L181.147 197.741C181.056 197.391 180.851 197.082 180.565 196.861C180.279 196.641 179.928 196.521 179.567 196.521H166.142C165.78 196.521 165.429 196.641 165.143 196.861C164.857 197.082 164.653 197.391 164.561 197.741L163.702 200.867H152.786C151.788 200.867 150.831 201.264 150.125 201.969C149.42 202.675 149.023 203.632 149.023 204.63V265.304C149.023 266.302 149.42 267.258 150.125 267.964C150.831 268.67 151.788 269.066 152.786 269.066H230.69C231.688 269.066 232.646 268.67 233.353 267.965C234.06 267.259 234.458 266.302 234.46 265.304V204.63C234.458 203.631 234.06 202.674 233.353 201.969C232.646 201.264 231.688 200.867 230.69 200.867Z" fill="#756E65"/>
<path opacity="0.15" d="M230.69 200.867H182.006L181.147 197.741C181.056 197.391 180.851 197.082 180.565 196.861C180.279 196.641 179.928 196.521 179.567 196.521H166.142C165.78 196.521 165.429 196.641 165.143 196.861C164.857 197.082 164.653 197.391 164.561 197.741L163.702 200.867H152.786C151.788 200.867 150.831 201.264 150.125 201.969C149.42 202.675 149.023 203.632 149.023 204.63V265.304C149.023 266.302 149.42 267.258 150.125 267.964C150.831 268.67 151.788 269.066 152.786 269.066H230.69C231.688 269.066 232.646 268.67 233.353 267.965C234.06 267.259 234.458 266.302 234.46 265.304V204.63C234.458 203.631 234.06 202.674 233.353 201.969C232.646 201.264 231.688 200.867 230.69 200.867Z" fill="#1F2937"/>
<path d="M149.308 266.747L144.996 203.659H229.222L231.799 265.355L149.308 266.747Z" fill="#756E65"/>
<path opacity="0.8" d="M149.308 266.747L144.996 203.659H229.222L231.799 265.355L149.308 266.747Z" fill="white"/>
<path d="M229.633 269.306H151.729C150.734 269.316 149.769 268.965 149.012 268.32C148.254 267.674 147.755 266.777 147.606 265.793L141.86 209.208C141.819 208.743 141.88 208.274 142.037 207.835C142.194 207.396 142.444 206.995 142.771 206.662C143.097 206.328 143.492 206.069 143.927 205.902C144.363 205.735 144.83 205.664 145.296 205.695H223.208C224.203 205.684 225.168 206.034 225.924 206.68C226.681 207.326 227.177 208.224 227.323 209.208L233.069 265.793C233.109 266.258 233.049 266.726 232.892 267.166C232.735 267.605 232.484 268.006 232.158 268.339C231.832 268.673 231.437 268.932 231.001 269.099C230.566 269.266 230.099 269.337 229.633 269.306Z" fill="#756E65"/>
<path d="M209.337 248.452L290.058 236.221V280.172L215.246 294.49L209.337 248.452Z" fill="#756E65"/>
<path opacity="0.5" d="M209.337 248.452L290.058 236.221V280.172L215.246 294.49L209.337 248.452Z" fill="white"/>
<path opacity="0.7" d="M209.337 248.452L210.471 249.697L290.058 237.458V236.221L209.337 248.452Z" fill="white"/>
<path opacity="0.2" d="M222.582 246.45L226.223 247.275L229.221 291.819L215.246 294.49L209.337 248.452L222.582 246.45Z" fill="#1F2937"/>
<path d="M222.582 300.279H131.622L125.901 210.668H216.87L222.582 300.279Z" fill="#756E65"/>
<path opacity="0.7" d="M222.582 300.279H131.622L125.901 210.668H216.87L222.582 300.279Z" fill="white"/>
<path opacity="0.2" d="M222.581 300.279H219.996L214.275 210.668H216.869L222.581 300.279Z" fill="#1F2937"/>
<path d="M183.415 229.427H151.815L151.309 221.387H182.908L183.415 229.427Z" fill="white"/>
<path opacity="0.1" d="M199.218 261.25L190.157 250.384H188.49L188.963 257.762H186.755L189.813 261.25C189.841 261.28 189.86 261.318 189.867 261.359C189.874 261.4 189.869 261.442 189.853 261.48C189.837 261.518 189.81 261.551 189.775 261.574C189.741 261.597 189.7 261.61 189.658 261.61H165.832C165.618 261.608 165.408 261.559 165.215 261.467C165.022 261.375 164.852 261.242 164.715 261.078L161.95 257.762H152.398L159.837 266.24C159.972 266.397 160.139 266.524 160.328 266.611C160.516 266.698 160.72 266.745 160.928 266.747H198.488C198.662 266.75 198.834 266.716 198.994 266.649C199.154 266.582 199.299 266.482 199.418 266.356C199.538 266.23 199.63 266.081 199.688 265.917C199.747 265.754 199.771 265.58 199.759 265.407L199.545 262.066C199.523 261.766 199.409 261.481 199.218 261.25Z" fill="#1F2937"/>
<path d="M189.573 258.879H144.832C144.475 258.876 144.133 258.739 143.872 258.496C143.611 258.253 143.451 257.92 143.423 257.565L143.011 251.149C142.999 250.979 143.022 250.809 143.08 250.649C143.137 250.49 143.228 250.344 143.345 250.221C143.462 250.098 143.604 250.001 143.761 249.936C143.918 249.871 144.086 249.839 144.256 249.843H188.963C189.319 249.846 189.662 249.981 189.924 250.223C190.186 250.464 190.348 250.794 190.38 251.149L190.784 257.565C190.797 257.732 190.775 257.9 190.721 258.059C190.666 258.217 190.579 258.363 190.465 258.486C190.351 258.609 190.213 258.708 190.06 258.776C189.907 258.843 189.741 258.878 189.573 258.879Z" fill="#756E65"/>
<path opacity="0.2" d="M178.871 258.879H144.832C144.475 258.876 144.133 258.739 143.872 258.496C143.611 258.253 143.451 257.92 143.423 257.565L143.011 251.149C142.999 250.979 143.022 250.809 143.08 250.649C143.137 250.49 143.228 250.344 143.345 250.221C143.462 250.098 143.604 250.001 143.761 249.936C143.918 249.871 144.086 249.839 144.256 249.843H178.295C178.651 249.844 178.994 249.979 179.255 250.221C179.516 250.463 179.676 250.794 179.704 251.149L180.116 257.565C180.128 257.735 180.105 257.905 180.047 258.065C179.99 258.226 179.9 258.372 179.783 258.496C179.665 258.619 179.524 258.717 179.367 258.783C179.21 258.849 179.041 258.882 178.871 258.879Z" fill="white"/>
<path d="M154.478 225.415C155.068 225.61 155.703 225.618 156.298 225.438C156.893 225.258 157.418 224.899 157.802 224.411C157.802 225.089 157.604 225.965 157.647 226.738C158.254 226.129 158.749 225.416 159.107 224.634C158.472 226.034 160.138 226.352 161.117 225.888C161.442 225.74 161.72 225.505 161.922 225.21C162.123 224.915 162.24 224.57 162.259 224.213C162.259 223.99 162.165 223.715 161.942 223.672C161.718 223.629 161.546 223.818 161.435 223.998C161.04 224.608 160.576 226.292 161.538 226.498C162.5 226.704 163.616 225.081 163.874 224.419C163.614 224.55 163.399 224.756 163.257 225.01C163.114 225.264 163.051 225.555 163.075 225.845C164.072 225.802 165.437 226.042 165.497 224.703C165.412 226.472 167.095 225.871 167.714 224.703C167.516 225.33 168.452 225.647 169.105 225.639L177.875 225.441" stroke="#1F2937" stroke-width="0.5" stroke-linecap="round" stroke-linejoin="round"/>
</svg>
