<svg width="16" height="16" viewBox="0 0 16 16" fill="none" xmlns="http://www.w3.org/2000/svg">
<path fill-rule="evenodd" clip-rule="evenodd" d="M8 14.4001C9.69738 14.4001 11.3252 13.7258 12.5255 12.5256C13.7257 11.3253 14.4 9.69748 14.4 8.0001C14.4 6.30271 13.7257 4.67485 12.5255 3.47461C11.3252 2.27438 9.69738 1.6001 8 1.6001C6.30261 1.6001 4.67475 2.27438 3.47452 3.47461C2.27428 4.67485 1.6 6.30271 1.6 8.0001C1.6 9.69748 2.27428 11.3253 3.47452 12.5256C4.67475 13.7258 6.30261 14.4001 8 14.4001V14.4001ZM7.644 5.7345C7.52352 5.65411 7.38347 5.60795 7.23881 5.60092C7.09415 5.59389 6.95029 5.62627 6.82259 5.6946C6.69488 5.76293 6.58812 5.86464 6.5137 5.98889C6.43927 6.11314 6.39998 6.25526 6.4 6.4001V9.6001C6.39998 9.74493 6.43927 9.88706 6.5137 10.0113C6.58812 10.1356 6.69488 10.2373 6.82259 10.3056C6.95029 10.3739 7.09415 10.4063 7.23881 10.3993C7.38347 10.3922 7.52352 10.3461 7.644 10.2657L10.044 8.6657C10.1536 8.59264 10.2434 8.49366 10.3055 8.37755C10.3677 8.26144 10.4002 8.13179 10.4002 8.0001C10.4002 7.86841 10.3677 7.73875 10.3055 7.62264C10.2434 7.50653 10.1536 7.40756 10.044 7.3345L7.644 5.7345V5.7345Z" fill="#000000"/>
</svg>
