<svg width="48" height="48" viewBox="0 0 48 48" fill="none" xmlns="http://www.w3.org/2000/svg">
<circle cx="24" cy="24" r="24" fill="#B2B7BF"/>
<path fill-rule="evenodd" clip-rule="evenodd" d="M41.7704 40.1314C45.6411 35.8699 48 30.2104 48 24C48 10.7452 37.2548 0 24 0C10.7452 0 0 10.7452 0 24C0 30.2104 2.35884 35.8698 6.22946 40.1312C7.19538 38.0553 8.51854 36.1627 10.1406 34.5406C11.9606 32.7206 14.1213 31.2769 16.4993 30.2919C18.8773 29.3069 21.426 28.7999 23.9999 28.7999C26.5738 28.7999 29.1225 29.3069 31.5005 30.2919C33.8785 31.2769 36.0392 32.7206 37.8592 34.5406C39.4813 36.1627 40.8045 38.0554 41.7704 40.1314ZM29.9396 20.7396C28.3643 22.3149 26.2277 23.1999 23.9999 23.1999C21.7721 23.1999 19.6355 22.3149 18.0602 20.7396C16.4849 19.1643 15.5999 17.0278 15.5999 14.7999C15.5999 12.5721 16.4849 10.4356 18.0602 8.86025C19.6355 7.28494 21.7721 6.39994 23.9999 6.39994C26.2277 6.39994 28.3643 7.28494 29.9396 8.86025C31.5149 10.4356 32.3999 12.5721 32.3999 14.7999C32.3999 17.0278 31.5149 19.1643 29.9396 20.7396Z" fill="#E5E7EB"/>
</svg>
