<svg width="48" height="48" viewBox="0 0 48 48" fill="none" xmlns="http://www.w3.org/2000/svg">
<rect width="48" height="48" rx="6" fill="#9CA3AF"/>
<path fill-rule="evenodd" clip-rule="evenodd" d="M24 22.1999C25.4322 22.1999 26.8057 21.631 27.8184 20.6183C28.8311 19.6056 29.4 18.2321 29.4 16.7999C29.4 15.3677 28.8311 13.9942 27.8184 12.9815C26.8057 11.9688 25.4322 11.3999 24 11.3999C22.5678 11.3999 21.1943 11.9688 20.1816 12.9815C19.1689 13.9942 18.6 15.3677 18.6 16.7999C18.6 18.2321 19.1689 19.6056 20.1816 20.6183C21.1943 21.631 22.5678 22.1999 24 22.1999ZM11.4 38.3999C11.4 36.7452 11.7259 35.1068 12.3591 33.5781C12.9923 32.0494 13.9204 30.6604 15.0904 29.4904C16.2605 28.3203 17.6495 27.3922 19.1782 26.759C20.7069 26.1258 22.3453 25.7999 24 25.7999C25.6546 25.7999 27.2931 26.1258 28.8218 26.759C30.3505 27.3922 31.7395 28.3203 32.9095 29.4904C34.0796 30.6604 35.0077 32.0494 35.6409 33.5781C36.2741 35.1068 36.6 36.7452 36.6 38.3999H11.4Z" fill="white"/>
</svg>
