<svg width="20" height="20" viewBox="0 0 20 20" fill="none" xmlns="http://www.w3.org/2000/svg">
<path fill-rule="evenodd" clip-rule="evenodd" d="M11.788 1.80402C11.332 -0.0679756 8.66803 -0.0679756 8.21203 1.80402C8.14395 2.08532 8.01042 2.34657 7.8223 2.56652C7.63418 2.78646 7.39679 2.95888 7.12944 3.06975C6.8621 3.18062 6.57236 3.2268 6.28379 3.20453C5.99523 3.18227 5.716 3.09219 5.46883 2.94162C3.82243 1.93842 1.93843 3.82242 2.94163 5.46882C3.58963 6.53202 3.01483 7.91922 1.80523 8.21322C-0.0679703 8.66802 -0.0679703 11.3332 1.80523 11.7868C2.0866 11.855 2.3479 11.9886 2.56784 12.1769C2.78779 12.3652 2.96016 12.6027 3.07092 12.8702C3.18168 13.1377 3.2277 13.4276 3.20523 13.7162C3.18277 14.0048 3.09245 14.2841 2.94163 14.5312C1.93843 16.1776 3.82243 18.0616 5.46883 17.0584C5.71596 16.9076 5.99521 16.8173 6.28385 16.7948C6.57249 16.7724 6.86236 16.8184 7.12984 16.9291C7.39733 17.0399 7.63488 17.2123 7.82314 17.4322C8.01141 17.6522 8.14506 17.9135 8.21323 18.1948C8.66803 20.068 11.3332 20.068 11.7868 18.1948C11.8552 17.9136 11.989 17.6525 12.1773 17.4327C12.3656 17.2129 12.6031 17.0406 12.8705 16.9299C13.1379 16.8192 13.4277 16.7731 13.7163 16.7954C14.0048 16.8178 14.284 16.9079 14.5312 17.0584C16.1776 18.0616 18.0616 16.1776 17.0584 14.5312C16.9079 14.284 16.8178 14.0048 16.7954 13.7163C16.7731 13.4277 16.8192 13.1379 16.9299 12.8705C17.0406 12.6031 17.2129 12.3656 17.4327 12.1773C17.6525 11.989 17.9136 11.8552 18.1948 11.7868C20.068 11.332 20.068 8.66682 18.1948 8.21322C17.9135 8.14506 17.6522 8.0114 17.4322 7.82314C17.2123 7.63488 17.0399 7.39733 16.9291 7.12984C16.8184 6.86235 16.7724 6.57249 16.7948 6.28385C16.8173 5.99521 16.9076 5.71595 17.0584 5.46882C18.0616 3.82242 16.1776 1.93842 14.5312 2.94162C14.2841 3.09244 14.0048 3.18276 13.7162 3.20523C13.4276 3.22769 13.1377 3.18167 12.8702 3.07091C12.6027 2.96015 12.3652 2.78778 12.1769 2.56784C11.9887 2.3479 11.855 2.0866 11.7868 1.80522L11.788 1.80402ZM10 13.6C10.9548 13.6 11.8705 13.2207 12.5456 12.5456C13.2207 11.8705 13.6 10.9548 13.6 10C13.6 9.04525 13.2207 8.12957 12.5456 7.45444C11.8705 6.77931 10.9548 6.40002 10 6.40002C9.04525 6.40002 8.12958 6.77931 7.45445 7.45444C6.77931 8.12957 6.40003 9.04525 6.40003 10C6.40003 10.9548 6.77931 11.8705 7.45445 12.5456C8.12958 13.2207 9.04525 13.6 10 13.6V13.6Z" fill="#6B7280"/>
</svg>
