<svg width="20" height="18" viewBox="0 0 20 18" fill="none" xmlns="http://www.w3.org/2000/svg">
<path fill-rule="evenodd" clip-rule="evenodd" d="M1.60002 0.600098C1.28176 0.600098 0.97654 0.726526 0.751496 0.951569C0.526453 1.17661 0.400024 1.48184 0.400024 1.8001V16.2001C0.400024 16.5184 0.526453 16.8236 0.751496 17.0486C0.97654 17.2737 1.28176 17.4001 1.60002 17.4001C1.91828 17.4001 2.22351 17.2737 2.44855 17.0486C2.6736 16.8236 2.80002 16.5184 2.80002 16.2001V1.8001C2.80002 1.48184 2.6736 1.17661 2.44855 0.951569C2.22351 0.726526 1.91828 0.600098 1.60002 0.600098V0.600098ZM13.9516 11.7517C13.733 11.978 13.6121 12.2811 13.6148 12.5958C13.6175 12.9104 13.7438 13.2114 13.9662 13.4339C14.1887 13.6564 14.4897 13.7826 14.8043 13.7853C15.119 13.788 15.4221 13.6671 15.6484 13.4485L19.2484 9.8485C19.4734 9.62346 19.5998 9.3183 19.5998 9.0001C19.5998 8.6819 19.4734 8.37673 19.2484 8.1517L15.6484 4.5517C15.5377 4.43709 15.4053 4.34567 15.2589 4.28278C15.1125 4.21989 14.955 4.18678 14.7957 4.1854C14.6364 4.18401 14.4784 4.21437 14.3309 4.27471C14.1834 4.33505 14.0494 4.42415 13.9367 4.53682C13.8241 4.64949 13.735 4.78348 13.6746 4.93095C13.6143 5.07843 13.5839 5.23644 13.5853 5.39578C13.5867 5.55511 13.6198 5.71258 13.6827 5.85898C13.7456 6.00539 13.837 6.1378 13.9516 6.2485L15.5032 7.8001H6.40002C6.08176 7.8001 5.77654 7.92653 5.5515 8.15157C5.32645 8.37661 5.20002 8.68184 5.20002 9.0001C5.20002 9.31836 5.32645 9.62358 5.5515 9.84863C5.77654 10.0737 6.08176 10.2001 6.40002 10.2001H15.5032L13.9516 11.7517V11.7517Z" fill="#000000"/>
</svg>
