<svg width="20" height="20" viewBox="0 0 20 20" fill="none" xmlns="http://www.w3.org/2000/svg">
<path fill-rule="evenodd" clip-rule="evenodd" d="M10 0C4.47715 0 0 4.47715 0 10C0 15.5228 4.47715 20 10 20C15.5228 20 20 15.5228 20 10C20 4.47715 15.5228 0 10 0ZM10.1021 5H10.1026C10.3397 5 10.8135 5.03321 11.3217 5.25554C11.6137 5.38343 11.8763 5.55644 12.1024 5.76989C12.3719 6.02459 12.5914 6.33876 12.7548 6.70405C12.9933 7.23739 12.9365 8.13577 12.8908 8.85764L12.889 8.88818L12.8873 8.91595C12.8834 8.97733 12.8797 9.03661 12.8763 9.09452C12.9073 9.1086 12.9552 9.12335 13.0234 9.12679C13.1517 9.12073 13.3011 9.07817 13.468 9.00034C13.5459 8.96406 13.6282 8.95646 13.6838 8.95646C13.7655 8.95646 13.8456 8.97175 13.916 9.00075C14.1242 9.07503 14.2551 9.22674 14.2584 9.39746C14.2597 9.46802 14.2384 9.57585 14.1288 9.68839C14.0371 9.78279 13.898 9.86592 13.7034 9.94254C13.6585 9.96024 13.6046 9.97733 13.5473 9.9953C13.3497 10.0579 13.051 10.1524 12.9732 10.3352C12.9336 10.4281 12.9505 10.55 13.0234 10.6976C13.0254 10.7015 13.0273 10.7056 13.029 10.7097C13.0556 10.7717 13.698 12.2327 15.124 12.467C15.2501 12.4876 15.3402 12.5998 15.333 12.7268C15.3309 12.7642 15.322 12.801 15.3066 12.8365C15.2553 12.9548 15.1374 13.0556 14.9458 13.1442C14.7111 13.2529 14.3602 13.3441 13.9025 13.4158C13.8796 13.4598 13.8549 13.572 13.8393 13.6427L13.8391 13.644C13.8212 13.7255 13.8032 13.806 13.7778 13.8917C13.7397 14.0219 13.6398 14.0963 13.5039 14.0963H13.4977L13.4916 14.0962C13.43 14.0962 13.3497 14.0864 13.2464 14.0661C13.0881 14.0353 12.9107 14.0069 12.6868 14.0069C12.5567 14.0069 12.422 14.0183 12.2865 14.0407C12.0253 14.0841 11.8003 14.2425 11.5396 14.426L11.5394 14.4262L11.5388 14.4267L11.5385 14.4269C11.1574 14.6956 10.7257 15 10.0657 15C10.0372 15 10.0101 14.9992 9.98831 14.9982C9.97048 14.9994 9.95243 15 9.93444 15C9.27451 15 8.84258 14.6956 8.461 14.4266C8.20029 14.2428 7.97498 14.0841 7.71361 14.0407C7.57802 14.0183 7.44331 14.0069 7.31333 14.0069C7.07889 14.0069 6.89106 14.0435 6.7537 14.0704L6.75048 14.071C6.65805 14.0889 6.5781 14.1043 6.50848 14.1043C6.32263 14.1043 6.25029 13.991 6.2224 13.8962C6.19655 13.8086 6.17842 13.7262 6.16103 13.6461L6.16007 13.6417C6.1435 13.5665 6.11998 13.4597 6.09731 13.4167C5.6399 13.3452 5.28894 13.2537 5.05428 13.145C4.86224 13.056 4.74412 12.9551 4.69317 12.8363L4.69281 12.8356C4.67786 12.8003 4.66924 12.7637 4.66708 12.7271C4.66006 12.5999 4.75004 12.4879 4.87603 12.4673C5.19689 12.4146 5.50312 12.2954 5.78613 12.113C6.018 11.9636 6.23619 11.7712 6.43428 11.541C6.78289 11.1362 6.95284 10.7523 6.97106 10.7099C6.9728 10.7058 6.97471 10.7018 6.97661 10.6978C7.04951 10.5503 7.06651 10.4283 7.02701 10.3355C6.94914 10.1528 6.65076 10.0582 6.45325 9.99561L6.45261 9.99541L6.45192 9.99519C6.39525 9.97727 6.34177 9.96036 6.29667 9.94266C6.12412 9.87466 5.99044 9.7982 5.89944 9.71529C5.734 9.56469 5.7333 9.41618 5.74762 9.34104C5.76935 9.22745 5.84935 9.125 5.97317 9.05251C6.07157 8.99482 6.18502 8.96324 6.29264 8.96324C6.35962 8.96324 6.42032 8.97572 6.47351 9.00042C6.65427 9.08487 6.81415 9.12773 6.94861 9.12773C7.03218 9.12773 7.08887 9.11084 7.12384 9.09482C7.11962 9.02385 7.11504 8.95119 7.11061 8.88088L7.10919 8.85828L7.10902 8.85715L7.10901 8.85688C7.06356 8.13552 7.00702 7.23798 7.24536 6.70509C7.40812 6.3411 7.62684 6.02774 7.89531 5.77358C8.12049 5.56027 8.38221 5.38723 8.67319 5.25926C9.1821 5.03528 9.65588 5.00193 9.89267 5.00193L10.076 5.00011L10.1021 5Z" fill="#4B5563"/>
</svg>
