<svg width="30" height="30" viewBox="0 0 30 30" fill="none" xmlns="http://www.w3.org/2000/svg">
<g filter="url(#filter0_dd)">
<circle cx="15" cy="14" r="12" fill="#000000"/>
</g>
<path fill-rule="evenodd" clip-rule="evenodd" d="M10.8 10.3998C10.8 10.2407 10.8632 10.0881 10.9757 9.97554C11.0882 9.86302 11.2409 9.7998 11.4 9.7998H18.6C18.7591 9.7998 18.9117 9.86302 19.0243 9.97554C19.1368 10.0881 19.2 10.2407 19.2 10.3998C19.2 10.5589 19.1368 10.7115 19.0243 10.8241C18.9117 10.9366 18.7591 10.9998 18.6 10.9998H11.4C11.2409 10.9998 11.0882 10.9366 10.9757 10.8241C10.8632 10.7115 10.8 10.5589 10.8 10.3998ZM10.8 12.7998C10.8 12.6407 10.8632 12.4881 10.9757 12.3755C11.0882 12.263 11.2409 12.1998 11.4 12.1998H18.6C18.7591 12.1998 18.9117 12.263 19.0243 12.3755C19.1368 12.4881 19.2 12.6407 19.2 12.7998C19.2 12.9589 19.1368 13.1115 19.0243 13.2241C18.9117 13.3366 18.7591 13.3998 18.6 13.3998H11.4C11.2409 13.3998 11.0882 13.3366 10.9757 13.2241C10.8632 13.1115 10.8 12.9589 10.8 12.7998ZM10.8 15.1998C10.8 15.0407 10.8632 14.8881 10.9757 14.7755C11.0882 14.663 11.2409 14.5998 11.4 14.5998H18.6C18.7591 14.5998 18.9117 14.663 19.0243 14.7755C19.1368 14.8881 19.2 15.0407 19.2 15.1998C19.2 15.3589 19.1368 15.5115 19.0243 15.6241C18.9117 15.7366 18.7591 15.7998 18.6 15.7998H11.4C11.2409 15.7998 11.0882 15.7366 10.9757 15.6241C10.8632 15.5115 10.8 15.3589 10.8 15.1998ZM10.8 17.5998C10.8 17.4407 10.8632 17.2881 10.9757 17.1755C11.0882 17.063 11.2409 16.9998 11.4 16.9998H18.6C18.7591 16.9998 18.9117 17.063 19.0243 17.1755C19.1368 17.2881 19.2 17.4407 19.2 17.5998C19.2 17.7589 19.1368 17.9115 19.0243 18.0241C18.9117 18.1366 18.7591 18.1998 18.6 18.1998H11.4C11.2409 18.1998 11.0882 18.1366 10.9757 18.0241C10.8632 17.9115 10.8 17.7589 10.8 17.5998Z" fill="white"/>
<defs>
<filter id="filter0_dd" x="0" y="0" width="30" height="30" filterUnits="userSpaceOnUse" color-interpolation-filters="sRGB">
<feFlood flood-opacity="0" result="BackgroundImageFix"/>
<feColorMatrix in="SourceAlpha" type="matrix" values="0 0 0 0 0 0 0 0 0 0 0 0 0 0 0 0 0 0 127 0"/>
<feOffset dy="1"/>
<feGaussianBlur stdDeviation="1.5"/>
<feColorMatrix type="matrix" values="0 0 0 0 0 0 0 0 0 0 0 0 0 0 0 0 0 0 0.1 0"/>
<feBlend mode="normal" in2="BackgroundImageFix" result="effect1_dropShadow"/>
<feColorMatrix in="SourceAlpha" type="matrix" values="0 0 0 0 0 0 0 0 0 0 0 0 0 0 0 0 0 0 127 0"/>
<feOffset dy="1"/>
<feGaussianBlur stdDeviation="1"/>
<feColorMatrix type="matrix" values="0 0 0 0 0 0 0 0 0 0 0 0 0 0 0 0 0 0 0.06 0"/>
<feBlend mode="normal" in2="effect1_dropShadow" result="effect2_dropShadow"/>
<feBlend mode="normal" in="SourceGraphic" in2="effect2_dropShadow" result="shape"/>
</filter>
</defs>
</svg>
