<svg width="20" height="20" viewBox="0 0 20 20" fill="none" xmlns="http://www.w3.org/2000/svg">
<path fill-rule="evenodd" clip-rule="evenodd" d="M10 0C4.47715 0 0 4.47715 0 10C0 15.5228 4.47715 20 10 20C15.5228 20 20 15.5228 20 10C20 4.47715 15.5228 0 10 0ZM9.72148 8.47413L9.7005 8.12811C9.63755 7.23128 10.1901 6.41212 11.0645 6.09435C11.3862 5.98136 11.9318 5.96724 12.2886 6.0661C12.4285 6.10847 12.6943 6.2497 12.8831 6.37681L13.2259 6.60985L13.6036 6.4898C13.8134 6.42624 14.0932 6.32032 14.2191 6.2497C14.338 6.18615 14.443 6.15084 14.443 6.17202C14.443 6.29207 14.1842 6.70165 13.9673 6.92762C13.6735 7.2454 13.7575 7.27365 14.352 7.0618C14.7088 6.94175 14.7158 6.94175 14.6458 7.07592C14.6038 7.14654 14.387 7.3937 14.1562 7.61967C13.7645 8.00806 13.7435 8.05043 13.7435 8.37527C13.7435 8.87665 13.5057 9.92178 13.2678 10.4938C12.8272 11.5672 11.8829 12.6758 10.9386 13.2337C9.60957 14.0176 7.83989 14.2153 6.34999 13.7563C5.85336 13.6009 5 13.2055 5 13.1348C5 13.1137 5.25881 13.0854 5.57357 13.0784C6.23108 13.0642 6.88859 12.8806 7.44818 12.5558L7.8259 12.3298L7.39222 12.1815C6.77668 11.9697 6.22409 11.4824 6.08419 11.0234C6.04222 10.8751 6.05621 10.868 6.44792 10.868L6.85362 10.861L6.51087 10.6986C6.10518 10.4938 5.73445 10.1478 5.55259 9.79467C5.41969 9.54045 5.25181 8.89783 5.30078 8.8484C5.31477 8.82722 5.46166 8.86959 5.62953 8.92608C6.11217 9.10262 6.17513 9.06025 5.89533 8.76366C5.37072 8.22697 5.20984 7.429 5.46166 6.6734L5.58057 6.33444L6.04222 6.79345C6.98652 7.71853 8.09869 8.26934 9.37175 8.43176L9.72148 8.47413Z" fill="#4B5563"/>
</svg>
