<svg width="12" height="12" viewBox="0 0 12 12" fill="none" xmlns="http://www.w3.org/2000/svg">
<path d="M7.8001 3.5998C7.8001 4.07719 7.61046 4.53503 7.27289 4.8726C6.93532 5.21016 6.47749 5.3998 6.0001 5.3998C5.52271 5.3998 5.06487 5.21016 4.72731 4.8726C4.38974 4.53503 4.2001 4.07719 4.2001 3.5998C4.2001 3.12241 4.38974 2.66458 4.72731 2.32701C5.06487 1.98945 5.52271 1.7998 6.0001 1.7998C6.47749 1.7998 6.93532 1.98945 7.27289 2.32701C7.61046 2.66458 7.8001 3.12241 7.8001 3.5998ZM10.8001 4.7998C10.8001 5.11806 10.6737 5.42329 10.4486 5.64833C10.2236 5.87338 9.91836 5.9998 9.6001 5.9998C9.28184 5.9998 8.97661 5.87338 8.75157 5.64833C8.52653 5.42329 8.4001 5.11806 8.4001 4.7998C8.4001 4.48154 8.52653 4.17632 8.75157 3.95128C8.97661 3.72623 9.28184 3.5998 9.6001 3.5998C9.91836 3.5998 10.2236 3.72623 10.4486 3.95128C10.6737 4.17632 10.8001 4.48154 10.8001 4.7998ZM8.4001 8.9998C8.4001 8.36328 8.14724 7.75284 7.69715 7.30275C7.24707 6.85266 6.63662 6.5998 6.0001 6.5998C5.36358 6.5998 4.75313 6.85266 4.30304 7.30275C3.85295 7.75284 3.6001 8.36328 3.6001 8.9998V10.7998H8.4001V8.9998ZM3.6001 4.7998C3.6001 5.11806 3.47367 5.42329 3.24863 5.64833C3.02358 5.87338 2.71836 5.9998 2.4001 5.9998C2.08184 5.9998 1.77661 5.87338 1.55157 5.64833C1.32653 5.42329 1.2001 5.11806 1.2001 4.7998C1.2001 4.48154 1.32653 4.17632 1.55157 3.95128C1.77661 3.72623 2.08184 3.5998 2.4001 3.5998C2.71836 3.5998 3.02358 3.72623 3.24863 3.95128C3.47367 4.17632 3.6001 4.48154 3.6001 4.7998ZM9.6001 10.7998V8.9998C9.60097 8.38977 9.44607 7.78962 9.1501 7.2562C9.41611 7.18813 9.69415 7.18171 9.96302 7.23744C10.2319 7.29316 10.4845 7.40956 10.7015 7.57775C10.9185 7.74594 11.0943 7.96148 11.2154 8.20793C11.3364 8.45438 11.3996 8.72522 11.4001 8.9998V10.7998H9.6001ZM2.8501 7.2562C2.55415 7.78963 2.39926 8.38978 2.4001 8.9998V10.7998H0.600098V8.9998C0.599982 8.72503 0.662776 8.45387 0.783666 8.20712C0.904556 7.96037 1.08033 7.74456 1.29753 7.57625C1.51472 7.40794 1.76757 7.29159 2.03668 7.23611C2.3058 7.18064 2.58405 7.18751 2.8501 7.2562Z" fill="#756E65"/>
</svg>
