<svg width="14" height="10" viewBox="0 0 14 10" fill="none" xmlns="http://www.w3.org/2000/svg">
<path d="M0.599998 1.8C0.599998 1.37565 0.768569 0.968684 1.06863 0.668626C1.36869 0.368568 1.77565 0.199997 2.2 0.199997H7C7.42434 0.199997 7.83131 0.368568 8.13137 0.668626C8.43143 0.968684 8.6 1.37565 8.6 1.8V8.2C8.6 8.62434 8.43143 9.03131 8.13137 9.33137C7.83131 9.63143 7.42434 9.8 7 9.8H2.2C1.77565 9.8 1.36869 9.63143 1.06863 9.33137C0.768569 9.03131 0.599998 8.62434 0.599998 8.2V1.8ZM10.6424 2.6848C10.5095 2.75119 10.3978 2.85326 10.3196 2.97958C10.2415 3.10589 10.2001 3.25147 10.2 3.4V6.6C10.2001 6.74853 10.2415 6.8941 10.3196 7.02042C10.3978 7.14673 10.5095 7.2488 10.6424 7.3152L12.2424 8.1152C12.3643 8.17613 12.4998 8.20489 12.636 8.19876C12.7722 8.19263 12.9045 8.1518 13.0205 8.08015C13.1364 8.00851 13.2322 7.90842 13.2986 7.78938C13.365 7.67034 13.3999 7.53631 13.4 7.4V2.6C13.3999 2.46368 13.365 2.32965 13.2986 2.21061C13.2322 2.09158 13.1364 1.99149 13.0205 1.91984C12.9045 1.84819 12.7722 1.80737 12.636 1.80123C12.4998 1.7951 12.3643 1.82387 12.2424 1.8848L10.6424 2.6848Z" fill="#4B5563"/>
</svg>
