<svg width="20" height="20" viewBox="0 0 20 20" fill="none" xmlns="http://www.w3.org/2000/svg">
<path fill-rule="evenodd" clip-rule="evenodd" d="M10 0C4.47715 0 0 4.47715 0 10C0 15.5228 4.47715 20 10 20C15.5228 20 20 15.5228 20 10C20 4.47715 15.5228 0 10 0ZM14.1672 6.56225C14.6262 6.68819 14.9876 7.05928 15.1103 7.53054C15.3332 8.38463 15.3332 10.1667 15.3332 10.1667C15.3332 10.1667 15.3332 11.9487 15.1103 12.8029C14.9876 13.2741 14.6262 13.6452 14.1672 13.7712C13.3355 14 9.99988 14 9.99988 14C9.99988 14 6.66431 14 5.83249 13.7712C5.37352 13.6452 5.01207 13.2741 4.8894 12.8029C4.66655 11.9487 4.66655 10.1667 4.66655 10.1667C4.66655 10.1667 4.66655 8.38463 4.8894 7.53054C5.01207 7.05928 5.37352 6.68819 5.83249 6.56225C6.66431 6.33336 9.99988 6.33336 9.99988 6.33336C9.99988 6.33336 13.3355 6.33336 14.1672 6.56225Z" fill="#4B5563"/>
<path d="M8.99994 12.0001V8.66675L11.6666 10.3335L8.99994 12.0001Z" fill="#9CA3AF"/>
</svg>

